G75*
G70*
%OFA0B0*%
%FSLAX24Y24*%
%IPPOS*%
%LPD*%
%AMOC8*
5,1,8,0,0,1.08239X$1,22.5*
%
%ADD10C,0.0906*%
%ADD11R,0.0630X0.0512*%
%ADD12R,0.0472X0.0354*%
%ADD13C,0.1063*%
%ADD14C,0.1260*%
%ADD15C,0.0827*%
%ADD16C,0.0160*%
%ADD17R,0.0396X0.0396*%
%ADD18C,0.3937*%
%ADD19C,0.1000*%
%ADD20C,0.0400*%
%ADD21C,0.0120*%
%ADD22C,0.0500*%
D10*
X011489Y009804D03*
X018181Y009804D03*
X024874Y009804D03*
X024874Y020631D03*
X024874Y023190D03*
X018181Y023190D03*
X018181Y020631D03*
X011489Y020631D03*
X011489Y023190D03*
X011489Y034017D03*
X018181Y034017D03*
X024874Y034017D03*
D11*
X039441Y029371D03*
X039441Y028623D03*
X040229Y014804D03*
X040229Y014056D03*
D12*
X039441Y014883D03*
X039441Y015552D03*
X040229Y029450D03*
X040229Y030119D03*
D13*
X041591Y030391D03*
X042591Y029391D03*
X043591Y030391D03*
X043591Y028391D03*
X041591Y028391D03*
X041591Y015824D03*
X042591Y014824D03*
X043591Y015824D03*
X043591Y013824D03*
X041591Y013824D03*
D14*
X041042Y017999D03*
X043353Y017999D03*
X043353Y020310D03*
X041042Y020310D03*
X041042Y023511D03*
X041042Y025822D03*
X043353Y025822D03*
X043353Y023511D03*
X042959Y036109D03*
X042959Y038420D03*
X040648Y038420D03*
X040648Y036109D03*
X040648Y008893D03*
X042959Y008893D03*
X042959Y006581D03*
X040648Y006581D03*
X005951Y020755D03*
X005951Y023066D03*
X003640Y023066D03*
X003640Y020755D03*
X003246Y007711D03*
X005557Y007711D03*
X005557Y005400D03*
X003246Y005400D03*
X003246Y036109D03*
X003246Y038420D03*
X005557Y038420D03*
X005557Y036109D03*
D15*
X030780Y034115D03*
X033930Y034115D03*
X037079Y034115D03*
X037079Y030178D03*
X033930Y030178D03*
X030780Y030178D03*
X031174Y014430D03*
X034323Y014430D03*
X037473Y014430D03*
X037473Y010493D03*
X034323Y010493D03*
X031174Y010493D03*
D16*
X002433Y008524D02*
X002433Y004587D01*
X006764Y004587D01*
X006764Y008524D01*
X002433Y008524D01*
X002433Y008417D02*
X006764Y008417D01*
X006764Y008258D02*
X002433Y008258D01*
X002433Y008100D02*
X006764Y008100D01*
X006764Y007941D02*
X002433Y007941D01*
X002433Y007783D02*
X006764Y007783D01*
X006764Y007624D02*
X002433Y007624D01*
X002433Y007466D02*
X006764Y007466D01*
X006764Y007307D02*
X002433Y007307D01*
X002433Y007149D02*
X006764Y007149D01*
X006764Y006990D02*
X002433Y006990D01*
X002433Y006832D02*
X006764Y006832D01*
X006764Y006673D02*
X002433Y006673D01*
X002433Y006515D02*
X006764Y006515D01*
X006764Y006356D02*
X002433Y006356D01*
X002433Y006198D02*
X006764Y006198D01*
X006764Y006039D02*
X002433Y006039D01*
X002433Y005881D02*
X006764Y005881D01*
X006764Y005722D02*
X002433Y005722D01*
X002433Y005564D02*
X006764Y005564D01*
X006764Y005405D02*
X002433Y005405D01*
X002433Y005247D02*
X006764Y005247D01*
X006764Y005088D02*
X002433Y005088D01*
X002433Y004930D02*
X006764Y004930D01*
X006764Y004771D02*
X002433Y004771D01*
X002433Y004613D02*
X006764Y004613D01*
X002433Y012068D02*
X002433Y031753D01*
X026056Y031753D01*
X028024Y029784D01*
X029882Y029784D01*
X029949Y029623D01*
X030225Y029347D01*
X030585Y029198D01*
X037097Y029198D01*
X037240Y029055D01*
X037291Y029004D01*
X037649Y028798D01*
X038048Y028691D01*
X038896Y028691D01*
X039031Y028635D01*
X039393Y028635D01*
X039393Y028575D01*
X038946Y028575D01*
X038946Y028343D01*
X038959Y028297D01*
X038982Y028256D01*
X039016Y028223D01*
X039057Y028199D01*
X039103Y028187D01*
X039393Y028187D01*
X039393Y028575D01*
X039489Y028575D01*
X039489Y028187D01*
X039780Y028187D01*
X039826Y028199D01*
X039867Y028223D01*
X039900Y028256D01*
X039924Y028297D01*
X039936Y028343D01*
X039936Y028575D01*
X039489Y028575D01*
X039489Y028635D01*
X039852Y028635D01*
X040028Y028708D01*
X040066Y028746D01*
X040153Y028711D01*
X040954Y028711D01*
X040951Y028706D01*
X040916Y028620D01*
X040892Y028530D01*
X040882Y028458D01*
X041523Y028458D01*
X041523Y028323D01*
X040882Y028323D01*
X040892Y028251D01*
X040916Y028161D01*
X040951Y028075D01*
X040998Y027994D01*
X041055Y027920D01*
X041121Y027854D01*
X041195Y027798D01*
X041276Y027751D01*
X041362Y027715D01*
X041452Y027691D01*
X041523Y027682D01*
X041523Y028323D01*
X041659Y028323D01*
X041659Y028458D01*
X042183Y028458D01*
X042201Y028448D01*
X042458Y028379D01*
X042724Y028379D01*
X042981Y028448D01*
X042999Y028458D01*
X043523Y028458D01*
X043523Y028323D01*
X042882Y028323D01*
X042892Y028251D01*
X042916Y028161D01*
X042951Y028075D01*
X042998Y027994D01*
X043055Y027920D01*
X043121Y027854D01*
X043195Y027798D01*
X043276Y027751D01*
X043362Y027715D01*
X043452Y027691D01*
X043523Y027682D01*
X043523Y028323D01*
X043659Y028323D01*
X043659Y028458D01*
X044300Y028458D01*
X044290Y028530D01*
X044266Y028620D01*
X044230Y028706D01*
X044184Y028787D01*
X044127Y028861D01*
X044061Y028927D01*
X043987Y028983D01*
X043906Y029030D01*
X043820Y029066D01*
X043730Y029090D01*
X043659Y029099D01*
X043659Y028458D01*
X043523Y028458D01*
X043523Y028982D01*
X043534Y029000D01*
X043602Y029257D01*
X043602Y029524D01*
X043534Y029781D01*
X043523Y029799D01*
X043523Y030323D01*
X042999Y030323D01*
X042981Y030333D01*
X042724Y030402D01*
X042458Y030402D01*
X042201Y030333D01*
X042183Y030323D01*
X041659Y030323D01*
X041659Y030458D01*
X042300Y030458D01*
X042290Y030530D01*
X042266Y030620D01*
X042230Y030706D01*
X042184Y030787D01*
X042127Y030861D01*
X042061Y030927D01*
X041987Y030983D01*
X041906Y031030D01*
X041820Y031066D01*
X041730Y031090D01*
X041659Y031099D01*
X041659Y030458D01*
X041523Y030458D01*
X041523Y030323D01*
X040882Y030323D01*
X040892Y030251D01*
X040916Y030161D01*
X040951Y030075D01*
X040954Y030071D01*
X040648Y030071D01*
X040645Y030072D01*
X040645Y030110D01*
X040411Y030110D01*
X040369Y030127D01*
X040645Y030127D01*
X040645Y030320D01*
X040633Y030366D01*
X040609Y030407D01*
X040575Y030440D01*
X040534Y030464D01*
X040489Y030476D01*
X040237Y030476D01*
X040237Y030130D01*
X040220Y030130D01*
X040220Y030476D01*
X039969Y030476D01*
X039923Y030464D01*
X039882Y030440D01*
X039848Y030407D01*
X039825Y030366D01*
X039813Y030320D01*
X039813Y030130D01*
X039385Y030130D01*
X039363Y030121D01*
X039276Y030121D01*
X039243Y030107D01*
X039031Y030107D01*
X038940Y030069D01*
X038940Y030572D01*
X039048Y030572D01*
X039048Y032146D01*
X044473Y032146D01*
X044473Y012068D01*
X039048Y012068D01*
X039048Y014036D01*
X038940Y014036D01*
X038940Y014171D01*
X038927Y014203D01*
X039580Y014203D01*
X039642Y014141D01*
X039818Y014068D01*
X040181Y014068D01*
X040181Y014008D01*
X040277Y014008D01*
X040277Y014068D01*
X040639Y014068D01*
X040774Y014124D01*
X040945Y014124D01*
X040916Y014053D01*
X040892Y013963D01*
X040882Y013891D01*
X041523Y013891D01*
X041523Y013756D01*
X040882Y013756D01*
X040892Y013685D01*
X040916Y013594D01*
X040951Y013508D01*
X040998Y013427D01*
X041055Y013353D01*
X041121Y013288D01*
X041195Y013231D01*
X041276Y013184D01*
X041362Y013148D01*
X041452Y013124D01*
X041523Y013115D01*
X041523Y013756D01*
X041659Y013756D01*
X041659Y013891D01*
X042183Y013891D01*
X042201Y013881D01*
X042458Y013812D01*
X042724Y013812D01*
X042981Y013881D01*
X042999Y013891D01*
X043523Y013891D01*
X043523Y013756D01*
X042882Y013756D01*
X042892Y013685D01*
X042916Y013594D01*
X042951Y013508D01*
X042998Y013427D01*
X043055Y013353D01*
X043121Y013288D01*
X043195Y013231D01*
X043276Y013184D01*
X043362Y013148D01*
X043452Y013124D01*
X043523Y013115D01*
X043523Y013756D01*
X043659Y013756D01*
X043659Y013891D01*
X044300Y013891D01*
X044290Y013963D01*
X044266Y014053D01*
X044230Y014139D01*
X044184Y014220D01*
X044127Y014294D01*
X044061Y014360D01*
X043987Y014416D01*
X043906Y014463D01*
X043820Y014499D01*
X043730Y014523D01*
X043659Y014532D01*
X043659Y013891D01*
X043523Y013891D01*
X043523Y014416D01*
X043534Y014433D01*
X043602Y014690D01*
X043602Y014957D01*
X043534Y015214D01*
X043523Y015232D01*
X043523Y015756D01*
X042999Y015756D01*
X042981Y015766D01*
X042724Y015835D01*
X042458Y015835D01*
X042201Y015766D01*
X042183Y015756D01*
X041659Y015756D01*
X041659Y015891D01*
X042300Y015891D01*
X042290Y015963D01*
X042266Y016053D01*
X042230Y016139D01*
X042184Y016220D01*
X042127Y016294D01*
X042061Y016360D01*
X041987Y016416D01*
X041906Y016463D01*
X041820Y016499D01*
X041730Y016523D01*
X041659Y016532D01*
X041659Y015891D01*
X041523Y015891D01*
X041523Y015756D01*
X040882Y015756D01*
X040892Y015685D01*
X040916Y015594D01*
X040951Y015508D01*
X040965Y015484D01*
X040774Y015484D01*
X040639Y015540D01*
X040340Y015540D01*
X040285Y015563D01*
X039858Y015563D01*
X039858Y015753D01*
X039845Y015799D01*
X039822Y015840D01*
X039788Y015873D01*
X039747Y015897D01*
X039701Y015909D01*
X039450Y015909D01*
X039450Y015563D01*
X039433Y015563D01*
X039433Y015909D01*
X039181Y015909D01*
X039136Y015897D01*
X039095Y015873D01*
X039061Y015840D01*
X039037Y015799D01*
X039025Y015753D01*
X039025Y015563D01*
X038078Y015563D01*
X037687Y015458D01*
X037604Y015410D01*
X030979Y015410D01*
X030618Y015261D01*
X030343Y014985D01*
X030194Y014625D01*
X030194Y014235D01*
X030276Y014036D01*
X028024Y014036D01*
X026449Y012068D01*
X002433Y012068D01*
X002433Y012221D02*
X026572Y012221D01*
X026699Y012379D02*
X002433Y012379D01*
X002433Y012538D02*
X026825Y012538D01*
X026952Y012696D02*
X002433Y012696D01*
X002433Y012855D02*
X027079Y012855D01*
X027206Y013013D02*
X002433Y013013D01*
X002433Y013172D02*
X027333Y013172D01*
X027459Y013330D02*
X002433Y013330D01*
X002433Y013489D02*
X027586Y013489D01*
X027713Y013647D02*
X002433Y013647D01*
X002433Y013806D02*
X027840Y013806D01*
X027967Y013964D02*
X002433Y013964D01*
X002433Y014123D02*
X030240Y014123D01*
X030194Y014281D02*
X002433Y014281D01*
X002433Y014440D02*
X030194Y014440D01*
X030194Y014598D02*
X002433Y014598D01*
X002433Y014757D02*
X030248Y014757D01*
X030314Y014915D02*
X002433Y014915D01*
X002433Y015074D02*
X030432Y015074D01*
X030590Y015232D02*
X002433Y015232D01*
X002433Y015391D02*
X030933Y015391D01*
X025665Y020102D02*
X025807Y020445D01*
X025807Y020816D01*
X025665Y021159D01*
X025403Y021421D01*
X025060Y021563D01*
X024689Y021563D01*
X024346Y021421D01*
X024084Y021159D01*
X023942Y020816D01*
X023942Y020445D01*
X024084Y020102D01*
X024346Y019840D01*
X024689Y019698D01*
X025060Y019698D01*
X025403Y019840D01*
X025665Y020102D01*
X025683Y020146D02*
X040247Y020146D01*
X040246Y020151D02*
X040273Y020049D01*
X040314Y019951D01*
X040367Y019859D01*
X040431Y019775D01*
X040507Y019700D01*
X040591Y019635D01*
X040683Y019582D01*
X040781Y019541D01*
X040883Y019514D01*
X040962Y019503D01*
X040962Y020230D01*
X041122Y020230D01*
X041122Y020390D01*
X041848Y020390D01*
X041838Y020468D01*
X041810Y020571D01*
X041770Y020669D01*
X041717Y020761D01*
X041652Y020845D01*
X041577Y020920D01*
X041493Y020985D01*
X041401Y021038D01*
X041303Y021078D01*
X041200Y021106D01*
X041122Y021116D01*
X041122Y020390D01*
X040962Y020390D01*
X040962Y021116D01*
X040883Y021106D01*
X040781Y021078D01*
X040683Y021038D01*
X040591Y020985D01*
X040507Y020920D01*
X040431Y020845D01*
X040367Y020761D01*
X040314Y020669D01*
X040273Y020571D01*
X040246Y020468D01*
X040235Y020390D01*
X040962Y020390D01*
X040962Y020230D01*
X040235Y020230D01*
X040246Y020151D01*
X040299Y019987D02*
X025550Y019987D01*
X025376Y019829D02*
X040390Y019829D01*
X040545Y019670D02*
X002433Y019670D01*
X002433Y019512D02*
X040897Y019512D01*
X040962Y019512D02*
X041122Y019512D01*
X041122Y019503D02*
X041200Y019514D01*
X041303Y019541D01*
X041401Y019582D01*
X041493Y019635D01*
X041577Y019700D01*
X041652Y019775D01*
X041717Y019859D01*
X041770Y019951D01*
X041810Y020049D01*
X041838Y020151D01*
X041848Y020230D01*
X041122Y020230D01*
X041122Y019503D01*
X041186Y019512D02*
X043209Y019512D01*
X043194Y019514D02*
X043273Y019503D01*
X043273Y020230D01*
X043433Y020230D01*
X043433Y020390D01*
X044159Y020390D01*
X044149Y020468D01*
X044121Y020571D01*
X044081Y020669D01*
X044028Y020761D01*
X043963Y020845D01*
X043888Y020920D01*
X043804Y020985D01*
X043712Y021038D01*
X043614Y021078D01*
X043511Y021106D01*
X043433Y021116D01*
X043433Y020390D01*
X043273Y020390D01*
X043273Y021116D01*
X043194Y021106D01*
X043092Y021078D01*
X042994Y021038D01*
X042902Y020985D01*
X042818Y020920D01*
X042743Y020845D01*
X042678Y020761D01*
X042625Y020669D01*
X042584Y020571D01*
X042557Y020468D01*
X042546Y020390D01*
X043273Y020390D01*
X043273Y020230D01*
X042546Y020230D01*
X042557Y020151D01*
X042584Y020049D01*
X042625Y019951D01*
X042678Y019859D01*
X042743Y019775D01*
X042818Y019700D01*
X042902Y019635D01*
X042994Y019582D01*
X043092Y019541D01*
X043194Y019514D01*
X043273Y019512D02*
X043433Y019512D01*
X043433Y019503D02*
X043511Y019514D01*
X043614Y019541D01*
X043712Y019582D01*
X043804Y019635D01*
X043888Y019700D01*
X043963Y019775D01*
X044028Y019859D01*
X044081Y019951D01*
X044121Y020049D01*
X044149Y020151D01*
X044159Y020230D01*
X043433Y020230D01*
X043433Y019503D01*
X043497Y019512D02*
X044473Y019512D01*
X044473Y019670D02*
X043850Y019670D01*
X044005Y019829D02*
X044473Y019829D01*
X044473Y019987D02*
X044096Y019987D01*
X044147Y020146D02*
X044473Y020146D01*
X044473Y020304D02*
X043433Y020304D01*
X043433Y020146D02*
X043273Y020146D01*
X043273Y020304D02*
X041122Y020304D01*
X041122Y020146D02*
X040962Y020146D01*
X040962Y020304D02*
X025749Y020304D01*
X025807Y020463D02*
X040245Y020463D01*
X040294Y020621D02*
X025807Y020621D01*
X025807Y020780D02*
X040382Y020780D01*
X040530Y020938D02*
X025757Y020938D01*
X025691Y021097D02*
X040850Y021097D01*
X040962Y021097D02*
X041122Y021097D01*
X041234Y021097D02*
X043161Y021097D01*
X043273Y021097D02*
X043433Y021097D01*
X043545Y021097D02*
X044473Y021097D01*
X044473Y021255D02*
X025569Y021255D01*
X025410Y021414D02*
X044473Y021414D01*
X044473Y021572D02*
X002433Y021572D01*
X002433Y021414D02*
X003169Y021414D01*
X003189Y021430D02*
X003105Y021365D01*
X003030Y021290D01*
X002965Y021206D01*
X002912Y021114D01*
X002872Y021016D01*
X002844Y020913D01*
X002834Y020835D01*
X003560Y020835D01*
X003560Y021561D01*
X003482Y021551D01*
X003379Y021523D01*
X003281Y021483D01*
X003189Y021430D01*
X003003Y021255D02*
X002433Y021255D01*
X002433Y021097D02*
X002905Y021097D01*
X002851Y020938D02*
X002433Y020938D01*
X002433Y020780D02*
X003560Y020780D01*
X003560Y020835D02*
X003560Y020675D01*
X002834Y020675D01*
X002844Y020596D01*
X002872Y020494D01*
X002912Y020396D01*
X002965Y020304D01*
X003030Y020220D01*
X003105Y020144D01*
X003189Y020080D01*
X003281Y020027D01*
X003379Y019986D01*
X003482Y019959D01*
X003560Y019948D01*
X003560Y020675D01*
X003720Y020675D01*
X003720Y020835D01*
X003560Y020835D01*
X003560Y020938D02*
X003720Y020938D01*
X003720Y020835D02*
X003720Y021561D01*
X003799Y021551D01*
X003901Y021523D01*
X003999Y021483D01*
X004091Y021430D01*
X004175Y021365D01*
X004250Y021290D01*
X004315Y021206D01*
X004368Y021114D01*
X004409Y021016D01*
X004436Y020913D01*
X004447Y020835D01*
X003720Y020835D01*
X003720Y020780D02*
X005871Y020780D01*
X005871Y020835D02*
X005871Y020675D01*
X005145Y020675D01*
X005155Y020596D01*
X005183Y020494D01*
X005223Y020396D01*
X005276Y020304D01*
X005341Y020220D01*
X005416Y020144D01*
X005500Y020080D01*
X005592Y020027D01*
X005690Y019986D01*
X005793Y019959D01*
X005871Y019948D01*
X005871Y020675D01*
X006031Y020675D01*
X006031Y020835D01*
X005871Y020835D01*
X005871Y021561D01*
X005793Y021551D01*
X005690Y021523D01*
X005592Y021483D01*
X005500Y021430D01*
X005416Y021365D01*
X005341Y021290D01*
X005276Y021206D01*
X005223Y021114D01*
X005183Y021016D01*
X005155Y020913D01*
X005145Y020835D01*
X005871Y020835D01*
X005871Y020938D02*
X006031Y020938D01*
X006031Y020835D02*
X006031Y021561D01*
X006110Y021551D01*
X006212Y021523D01*
X006310Y021483D01*
X006402Y021430D01*
X006486Y021365D01*
X006561Y021290D01*
X006626Y021206D01*
X006679Y021114D01*
X006720Y021016D01*
X006747Y020913D01*
X006758Y020835D01*
X006031Y020835D01*
X006031Y020780D02*
X010556Y020780D01*
X010556Y020816D02*
X010556Y020445D01*
X010698Y020102D01*
X010960Y019840D01*
X011303Y019698D01*
X011674Y019698D01*
X012017Y019840D01*
X012279Y020102D01*
X012421Y020445D01*
X012421Y020816D01*
X012279Y021159D01*
X012017Y021421D01*
X011674Y021563D01*
X011303Y021563D01*
X010960Y021421D01*
X010698Y021159D01*
X010556Y020816D01*
X010606Y020938D02*
X006740Y020938D01*
X006686Y021097D02*
X010672Y021097D01*
X010794Y021255D02*
X006588Y021255D01*
X006423Y021414D02*
X010953Y021414D01*
X010556Y020621D02*
X006751Y020621D01*
X006747Y020596D02*
X006758Y020675D01*
X006031Y020675D01*
X006031Y019948D01*
X006110Y019959D01*
X006212Y019986D01*
X006310Y020027D01*
X006402Y020080D01*
X006486Y020144D01*
X006561Y020220D01*
X006626Y020304D01*
X006679Y020396D01*
X006720Y020494D01*
X006747Y020596D01*
X006707Y020463D02*
X010556Y020463D01*
X010614Y020304D02*
X006626Y020304D01*
X006488Y020146D02*
X010680Y020146D01*
X010813Y019987D02*
X006215Y019987D01*
X006031Y019987D02*
X005871Y019987D01*
X005871Y020146D02*
X006031Y020146D01*
X006031Y020304D02*
X005871Y020304D01*
X005871Y020463D02*
X006031Y020463D01*
X006031Y020621D02*
X005871Y020621D01*
X005871Y021097D02*
X006031Y021097D01*
X006031Y021255D02*
X005871Y021255D01*
X005871Y021414D02*
X006031Y021414D01*
X005480Y021414D02*
X004112Y021414D01*
X004277Y021255D02*
X005315Y021255D01*
X005216Y021097D02*
X004375Y021097D01*
X004429Y020938D02*
X005162Y020938D01*
X005152Y020621D02*
X004440Y020621D01*
X004436Y020596D02*
X004447Y020675D01*
X003720Y020675D01*
X003720Y019948D01*
X003799Y019959D01*
X003901Y019986D01*
X003999Y020027D01*
X004091Y020080D01*
X004175Y020144D01*
X004250Y020220D01*
X004315Y020304D01*
X004368Y020396D01*
X004409Y020494D01*
X004436Y020596D01*
X004396Y020463D02*
X005195Y020463D01*
X005276Y020304D02*
X004315Y020304D01*
X004177Y020146D02*
X005415Y020146D01*
X005687Y019987D02*
X003904Y019987D01*
X003720Y019987D02*
X003560Y019987D01*
X003560Y020146D02*
X003720Y020146D01*
X003720Y020304D02*
X003560Y020304D01*
X003560Y020463D02*
X003720Y020463D01*
X003720Y020621D02*
X003560Y020621D01*
X003560Y021097D02*
X003720Y021097D01*
X003720Y021255D02*
X003560Y021255D01*
X003560Y021414D02*
X003720Y021414D01*
X003720Y022259D02*
X003799Y022270D01*
X003901Y022297D01*
X003999Y022338D01*
X004091Y022391D01*
X004175Y022456D01*
X004250Y022531D01*
X004315Y022615D01*
X004368Y022707D01*
X004409Y022805D01*
X004436Y022907D01*
X004447Y022986D01*
X003720Y022986D01*
X003720Y023146D01*
X003560Y023146D01*
X003560Y023872D01*
X003482Y023862D01*
X003379Y023834D01*
X003281Y023794D01*
X003189Y023741D01*
X003105Y023676D01*
X003030Y023601D01*
X002965Y023517D01*
X002912Y023425D01*
X002872Y023327D01*
X002844Y023224D01*
X002834Y023146D01*
X003560Y023146D01*
X003560Y022986D01*
X002834Y022986D01*
X002844Y022907D01*
X002872Y022805D01*
X002912Y022707D01*
X002965Y022615D01*
X003030Y022531D01*
X003105Y022456D01*
X003189Y022391D01*
X003281Y022338D01*
X003379Y022297D01*
X003482Y022270D01*
X003560Y022259D01*
X003560Y022986D01*
X003720Y022986D01*
X003720Y022259D01*
X003720Y022365D02*
X003560Y022365D01*
X003560Y022523D02*
X003720Y022523D01*
X003720Y022682D02*
X003560Y022682D01*
X003560Y022840D02*
X003720Y022840D01*
X003720Y022999D02*
X005871Y022999D01*
X005871Y022986D02*
X005145Y022986D01*
X005155Y022907D01*
X005183Y022805D01*
X005223Y022707D01*
X005276Y022615D01*
X005341Y022531D01*
X005416Y022456D01*
X005500Y022391D01*
X005592Y022338D01*
X005690Y022297D01*
X005793Y022270D01*
X005871Y022259D01*
X005871Y022986D01*
X005871Y023146D01*
X005871Y023872D01*
X005793Y023862D01*
X005690Y023834D01*
X005592Y023794D01*
X005500Y023741D01*
X005416Y023676D01*
X005341Y023601D01*
X005276Y023517D01*
X005223Y023425D01*
X005183Y023327D01*
X005155Y023224D01*
X005145Y023146D01*
X005871Y023146D01*
X006031Y023146D01*
X006031Y023872D01*
X006110Y023862D01*
X006212Y023834D01*
X006310Y023794D01*
X006402Y023741D01*
X006486Y023676D01*
X006561Y023601D01*
X006626Y023517D01*
X006679Y023425D01*
X006720Y023327D01*
X006747Y023224D01*
X006758Y023146D01*
X006031Y023146D01*
X006031Y022986D01*
X006758Y022986D01*
X006747Y022907D01*
X006720Y022805D01*
X006679Y022707D01*
X006626Y022615D01*
X006561Y022531D01*
X006486Y022456D01*
X006402Y022391D01*
X006310Y022338D01*
X006212Y022297D01*
X006110Y022270D01*
X006031Y022259D01*
X006031Y022986D01*
X005871Y022986D01*
X005871Y022840D02*
X006031Y022840D01*
X006031Y022682D02*
X005871Y022682D01*
X005871Y022523D02*
X006031Y022523D01*
X006031Y022365D02*
X005871Y022365D01*
X005545Y022365D02*
X004046Y022365D01*
X004243Y022523D02*
X005348Y022523D01*
X005238Y022682D02*
X004354Y022682D01*
X004418Y022840D02*
X005173Y022840D01*
X005146Y023157D02*
X004445Y023157D01*
X004447Y023146D02*
X004436Y023224D01*
X004409Y023327D01*
X004368Y023425D01*
X004315Y023517D01*
X004250Y023601D01*
X004175Y023676D01*
X004091Y023741D01*
X003999Y023794D01*
X003901Y023834D01*
X003799Y023862D01*
X003720Y023872D01*
X003720Y023146D01*
X004447Y023146D01*
X004412Y023316D02*
X005180Y023316D01*
X005252Y023474D02*
X004339Y023474D01*
X004218Y023633D02*
X005373Y023633D01*
X005588Y023791D02*
X004003Y023791D01*
X003720Y023791D02*
X003560Y023791D01*
X003560Y023633D02*
X003720Y023633D01*
X003720Y023474D02*
X003560Y023474D01*
X003560Y023316D02*
X003720Y023316D01*
X003720Y023157D02*
X003560Y023157D01*
X003560Y022999D02*
X002433Y022999D01*
X002433Y023157D02*
X002835Y023157D01*
X002869Y023316D02*
X002433Y023316D01*
X002433Y023474D02*
X002941Y023474D01*
X003062Y023633D02*
X002433Y023633D01*
X002433Y023791D02*
X003277Y023791D01*
X002433Y023950D02*
X010930Y023950D01*
X010960Y023981D02*
X010698Y023718D01*
X010556Y023375D01*
X010556Y023004D01*
X010698Y022661D01*
X010960Y022399D01*
X011303Y022257D01*
X011674Y022257D01*
X012017Y022399D01*
X012279Y022661D01*
X012421Y023004D01*
X012421Y023375D01*
X012279Y023718D01*
X012017Y023981D01*
X011674Y024123D01*
X011303Y024123D01*
X010960Y023981D01*
X010771Y023791D02*
X006314Y023791D01*
X006529Y023633D02*
X010663Y023633D01*
X010597Y023474D02*
X006650Y023474D01*
X006723Y023316D02*
X010556Y023316D01*
X010556Y023157D02*
X006756Y023157D01*
X006729Y022840D02*
X010624Y022840D01*
X010689Y022682D02*
X006665Y022682D01*
X006554Y022523D02*
X010836Y022523D01*
X011043Y022365D02*
X006357Y022365D01*
X006031Y022999D02*
X010558Y022999D01*
X011269Y024108D02*
X002433Y024108D01*
X002433Y024267D02*
X040751Y024267D01*
X040781Y024279D02*
X040683Y024239D01*
X040591Y024185D01*
X040507Y024121D01*
X040431Y024046D01*
X040367Y023962D01*
X040314Y023870D01*
X040273Y023772D01*
X040246Y023669D01*
X040235Y023591D01*
X040962Y023591D01*
X040962Y024317D01*
X040883Y024307D01*
X040781Y024279D01*
X040962Y024267D02*
X041122Y024267D01*
X041122Y024317D02*
X041200Y024307D01*
X041303Y024279D01*
X041401Y024239D01*
X041493Y024185D01*
X041577Y024121D01*
X041652Y024046D01*
X041717Y023962D01*
X041770Y023870D01*
X041810Y023772D01*
X041838Y023669D01*
X041848Y023591D01*
X041122Y023591D01*
X040962Y023591D01*
X040962Y023431D01*
X040235Y023431D01*
X040246Y023352D01*
X040273Y023250D01*
X040314Y023152D01*
X040367Y023060D01*
X040431Y022975D01*
X040507Y022900D01*
X040591Y022836D01*
X040683Y022783D01*
X040781Y022742D01*
X040883Y022715D01*
X040962Y022704D01*
X040962Y023431D01*
X041122Y023431D01*
X041122Y023591D01*
X041122Y024317D01*
X041122Y024108D02*
X040962Y024108D01*
X040962Y023950D02*
X041122Y023950D01*
X041122Y023791D02*
X040962Y023791D01*
X040962Y023633D02*
X041122Y023633D01*
X041122Y023474D02*
X043273Y023474D01*
X043273Y023431D02*
X042546Y023431D01*
X042557Y023352D01*
X042584Y023250D01*
X042625Y023152D01*
X042678Y023060D01*
X042743Y022975D01*
X042818Y022900D01*
X042902Y022836D01*
X042994Y022783D01*
X043092Y022742D01*
X043194Y022715D01*
X043273Y022704D01*
X043273Y023431D01*
X043273Y023591D01*
X043273Y024317D01*
X043194Y024307D01*
X043092Y024279D01*
X042994Y024239D01*
X042902Y024185D01*
X042818Y024121D01*
X042743Y024046D01*
X042678Y023962D01*
X042625Y023870D01*
X042584Y023772D01*
X042557Y023669D01*
X042546Y023591D01*
X043273Y023591D01*
X043433Y023591D01*
X043433Y024317D01*
X043511Y024307D01*
X043614Y024279D01*
X043712Y024239D01*
X043804Y024185D01*
X043888Y024121D01*
X043963Y024046D01*
X044028Y023962D01*
X044081Y023870D01*
X044121Y023772D01*
X044149Y023669D01*
X044159Y023591D01*
X043433Y023591D01*
X043433Y023431D01*
X044159Y023431D01*
X044149Y023352D01*
X044121Y023250D01*
X044081Y023152D01*
X044028Y023060D01*
X043963Y022975D01*
X043888Y022900D01*
X043804Y022836D01*
X043712Y022783D01*
X043614Y022742D01*
X043511Y022715D01*
X043433Y022704D01*
X043433Y023431D01*
X043273Y023431D01*
X043273Y023316D02*
X043433Y023316D01*
X043433Y023474D02*
X044473Y023474D01*
X044473Y023316D02*
X044139Y023316D01*
X044083Y023157D02*
X044473Y023157D01*
X044473Y022999D02*
X043981Y022999D01*
X043810Y022840D02*
X044473Y022840D01*
X044473Y022682D02*
X025674Y022682D01*
X025665Y022661D02*
X025807Y023004D01*
X025807Y023375D01*
X025665Y023718D01*
X025403Y023981D01*
X025060Y024123D01*
X024689Y024123D01*
X024346Y023981D01*
X024084Y023718D01*
X023942Y023375D01*
X023942Y023004D01*
X024084Y022661D01*
X024346Y022399D01*
X024689Y022257D01*
X025060Y022257D01*
X025403Y022399D01*
X025665Y022661D01*
X025739Y022840D02*
X040585Y022840D01*
X040413Y022999D02*
X025805Y022999D01*
X025807Y023157D02*
X040311Y023157D01*
X040255Y023316D02*
X025807Y023316D01*
X025766Y023474D02*
X040962Y023474D01*
X040962Y023316D02*
X041122Y023316D01*
X041122Y023431D02*
X041122Y022704D01*
X041200Y022715D01*
X041303Y022742D01*
X041401Y022783D01*
X041493Y022836D01*
X041577Y022900D01*
X041652Y022975D01*
X041717Y023060D01*
X041770Y023152D01*
X041810Y023250D01*
X041838Y023352D01*
X041848Y023431D01*
X041122Y023431D01*
X041122Y023157D02*
X040962Y023157D01*
X040962Y022999D02*
X041122Y022999D01*
X041122Y022840D02*
X040962Y022840D01*
X041499Y022840D02*
X042896Y022840D01*
X042725Y022999D02*
X041670Y022999D01*
X041772Y023157D02*
X042622Y023157D01*
X042566Y023316D02*
X041828Y023316D01*
X041843Y023633D02*
X042552Y023633D01*
X042592Y023791D02*
X041802Y023791D01*
X041723Y023950D02*
X042671Y023950D01*
X042805Y024108D02*
X041589Y024108D01*
X041332Y024267D02*
X043062Y024267D01*
X043273Y024267D02*
X043433Y024267D01*
X043433Y024108D02*
X043273Y024108D01*
X043273Y023950D02*
X043433Y023950D01*
X043433Y023791D02*
X043273Y023791D01*
X043273Y023633D02*
X043433Y023633D01*
X043433Y023157D02*
X043273Y023157D01*
X043273Y022999D02*
X043433Y022999D01*
X043433Y022840D02*
X043273Y022840D01*
X044154Y023633D02*
X044473Y023633D01*
X044473Y023791D02*
X044113Y023791D01*
X044034Y023950D02*
X044473Y023950D01*
X044473Y024108D02*
X043900Y024108D01*
X043643Y024267D02*
X044473Y024267D01*
X044473Y024425D02*
X002433Y024425D01*
X002433Y024584D02*
X044473Y024584D01*
X044473Y024742D02*
X002433Y024742D01*
X002433Y024901D02*
X044473Y024901D01*
X044473Y025059D02*
X043629Y025059D01*
X043614Y025053D02*
X043712Y025094D01*
X043804Y025147D01*
X043888Y025211D01*
X043963Y025286D01*
X044028Y025371D01*
X044081Y025463D01*
X044121Y025561D01*
X044149Y025663D01*
X044159Y025742D01*
X043433Y025742D01*
X043433Y025902D01*
X043273Y025902D01*
X043273Y026628D01*
X043194Y026618D01*
X043092Y026590D01*
X042994Y026550D01*
X042902Y026497D01*
X042818Y026432D01*
X042743Y026357D01*
X042678Y026273D01*
X042625Y026181D01*
X042584Y026083D01*
X042557Y025980D01*
X042546Y025902D01*
X043273Y025902D01*
X043273Y025742D01*
X042546Y025742D01*
X042557Y025663D01*
X042584Y025561D01*
X042625Y025463D01*
X042678Y025371D01*
X042743Y025286D01*
X042818Y025211D01*
X042902Y025147D01*
X042994Y025094D01*
X043092Y025053D01*
X043194Y025026D01*
X043273Y025015D01*
X043273Y025742D01*
X043433Y025742D01*
X043433Y025015D01*
X043511Y025026D01*
X043614Y025053D01*
X043433Y025059D02*
X043273Y025059D01*
X043273Y025218D02*
X043433Y025218D01*
X043433Y025376D02*
X043273Y025376D01*
X043273Y025535D02*
X043433Y025535D01*
X043433Y025693D02*
X043273Y025693D01*
X043273Y025852D02*
X041122Y025852D01*
X041122Y025902D02*
X041122Y025742D01*
X041848Y025742D01*
X041838Y025663D01*
X041810Y025561D01*
X041770Y025463D01*
X041717Y025371D01*
X041652Y025286D01*
X041577Y025211D01*
X041493Y025147D01*
X041401Y025094D01*
X041303Y025053D01*
X041200Y025026D01*
X041122Y025015D01*
X041122Y025742D01*
X040962Y025742D01*
X040235Y025742D01*
X040246Y025663D01*
X040273Y025561D01*
X040314Y025463D01*
X040367Y025371D01*
X040431Y025286D01*
X040507Y025211D01*
X040591Y025147D01*
X040683Y025094D01*
X040781Y025053D01*
X040883Y025026D01*
X040962Y025015D01*
X040962Y025742D01*
X040962Y025902D01*
X040962Y026628D01*
X040883Y026618D01*
X040781Y026590D01*
X040683Y026550D01*
X040591Y026497D01*
X040507Y026432D01*
X040431Y026357D01*
X040367Y026273D01*
X040314Y026181D01*
X040273Y026083D01*
X040246Y025980D01*
X040235Y025902D01*
X040962Y025902D01*
X041122Y025902D01*
X041122Y026628D01*
X041200Y026618D01*
X041303Y026590D01*
X041401Y026550D01*
X041493Y026497D01*
X041577Y026432D01*
X041652Y026357D01*
X041717Y026273D01*
X041770Y026181D01*
X041810Y026083D01*
X041838Y025980D01*
X041848Y025902D01*
X041122Y025902D01*
X041122Y026010D02*
X040962Y026010D01*
X040962Y025852D02*
X002433Y025852D01*
X002433Y026010D02*
X040254Y026010D01*
X040309Y026169D02*
X002433Y026169D01*
X002433Y026327D02*
X040409Y026327D01*
X040577Y026486D02*
X002433Y026486D01*
X002433Y026644D02*
X044473Y026644D01*
X044473Y026486D02*
X043817Y026486D01*
X043804Y026497D02*
X043712Y026550D01*
X043614Y026590D01*
X043511Y026618D01*
X043433Y026628D01*
X043433Y025902D01*
X044159Y025902D01*
X044149Y025980D01*
X044121Y026083D01*
X044081Y026181D01*
X044028Y026273D01*
X043963Y026357D01*
X043888Y026432D01*
X043804Y026497D01*
X043986Y026327D02*
X044473Y026327D01*
X044473Y026169D02*
X044086Y026169D01*
X044141Y026010D02*
X044473Y026010D01*
X044473Y025852D02*
X043433Y025852D01*
X043433Y026010D02*
X043273Y026010D01*
X043273Y026169D02*
X043433Y026169D01*
X043433Y026327D02*
X043273Y026327D01*
X043273Y026486D02*
X043433Y026486D01*
X042888Y026486D02*
X041506Y026486D01*
X041675Y026327D02*
X042720Y026327D01*
X042620Y026169D02*
X041775Y026169D01*
X041830Y026010D02*
X042565Y026010D01*
X042553Y025693D02*
X041842Y025693D01*
X041800Y025535D02*
X042595Y025535D01*
X042675Y025376D02*
X041720Y025376D01*
X041583Y025218D02*
X042811Y025218D01*
X043076Y025059D02*
X041318Y025059D01*
X041122Y025059D02*
X040962Y025059D01*
X040962Y025218D02*
X041122Y025218D01*
X041122Y025376D02*
X040962Y025376D01*
X040962Y025535D02*
X041122Y025535D01*
X041122Y025693D02*
X040962Y025693D01*
X040962Y026169D02*
X041122Y026169D01*
X041122Y026327D02*
X040962Y026327D01*
X040962Y026486D02*
X041122Y026486D01*
X040242Y025693D02*
X002433Y025693D01*
X002433Y025535D02*
X040284Y025535D01*
X040364Y025376D02*
X002433Y025376D01*
X002433Y025218D02*
X040500Y025218D01*
X040765Y025059D02*
X002433Y025059D01*
X002433Y026803D02*
X044473Y026803D01*
X044473Y026961D02*
X002433Y026961D01*
X002433Y027120D02*
X044473Y027120D01*
X044473Y027278D02*
X002433Y027278D01*
X002433Y027437D02*
X044473Y027437D01*
X044473Y027595D02*
X002433Y027595D01*
X002433Y027754D02*
X041271Y027754D01*
X041523Y027754D02*
X041659Y027754D01*
X041659Y027682D02*
X041730Y027691D01*
X041820Y027715D01*
X041906Y027751D01*
X041987Y027798D01*
X042061Y027854D01*
X042127Y027920D01*
X042184Y027994D01*
X042230Y028075D01*
X042266Y028161D01*
X042290Y028251D01*
X042300Y028323D01*
X041659Y028323D01*
X041659Y027682D01*
X041659Y027912D02*
X041523Y027912D01*
X041523Y028071D02*
X041659Y028071D01*
X041659Y028229D02*
X041523Y028229D01*
X041523Y028388D02*
X039936Y028388D01*
X039936Y028546D02*
X040896Y028546D01*
X040951Y028705D02*
X040021Y028705D01*
X039873Y028229D02*
X040898Y028229D01*
X040954Y028071D02*
X002433Y028071D01*
X002433Y028229D02*
X039009Y028229D01*
X038946Y028388D02*
X002433Y028388D01*
X002433Y028546D02*
X038946Y028546D01*
X039393Y028546D02*
X039489Y028546D01*
X039489Y028388D02*
X039393Y028388D01*
X039393Y028229D02*
X039489Y028229D01*
X037996Y028705D02*
X002433Y028705D01*
X002433Y028863D02*
X037535Y028863D01*
X037649Y028798D02*
X037649Y028798D01*
X037291Y029004D02*
X037291Y029004D01*
X037273Y029022D02*
X002433Y029022D01*
X002433Y029180D02*
X037115Y029180D01*
X038940Y030131D02*
X039813Y030131D01*
X039813Y030290D02*
X038940Y030290D01*
X038940Y030448D02*
X039896Y030448D01*
X040220Y030448D02*
X040237Y030448D01*
X040220Y030290D02*
X040237Y030290D01*
X040220Y030131D02*
X040237Y030131D01*
X040645Y030131D02*
X040928Y030131D01*
X040887Y030290D02*
X040645Y030290D01*
X040561Y030448D02*
X041523Y030448D01*
X041523Y030458D02*
X040882Y030458D01*
X040892Y030530D01*
X040916Y030620D01*
X040951Y030706D01*
X040998Y030787D01*
X041055Y030861D01*
X041121Y030927D01*
X041195Y030983D01*
X041276Y031030D01*
X041362Y031066D01*
X041452Y031090D01*
X041523Y031099D01*
X041523Y030458D01*
X041659Y030448D02*
X043523Y030448D01*
X043523Y030458D02*
X043523Y030323D01*
X043659Y030323D01*
X043659Y030458D01*
X044300Y030458D01*
X044290Y030530D01*
X044266Y030620D01*
X044230Y030706D01*
X044184Y030787D01*
X044127Y030861D01*
X044061Y030927D01*
X043987Y030983D01*
X043906Y031030D01*
X043820Y031066D01*
X043730Y031090D01*
X043659Y031099D01*
X043659Y030458D01*
X043523Y030458D01*
X042882Y030458D01*
X042892Y030530D01*
X042916Y030620D01*
X042951Y030706D01*
X042998Y030787D01*
X043055Y030861D01*
X043121Y030927D01*
X043195Y030983D01*
X043276Y031030D01*
X043362Y031066D01*
X043452Y031090D01*
X043523Y031099D01*
X043523Y030458D01*
X043659Y030448D02*
X044473Y030448D01*
X044473Y030290D02*
X044295Y030290D01*
X044300Y030323D02*
X043659Y030323D01*
X043659Y029682D01*
X043730Y029691D01*
X043820Y029715D01*
X043906Y029751D01*
X043987Y029798D01*
X044061Y029854D01*
X044127Y029920D01*
X044184Y029994D01*
X044230Y030075D01*
X044266Y030161D01*
X044290Y030251D01*
X044300Y030323D01*
X044254Y030131D02*
X044473Y030131D01*
X044473Y029973D02*
X044167Y029973D01*
X044009Y029814D02*
X044473Y029814D01*
X044473Y029656D02*
X043567Y029656D01*
X043602Y029497D02*
X044473Y029497D01*
X044473Y029339D02*
X043602Y029339D01*
X043582Y029180D02*
X044473Y029180D01*
X044473Y029022D02*
X043920Y029022D01*
X044124Y028863D02*
X044473Y028863D01*
X044473Y028705D02*
X044231Y028705D01*
X044286Y028546D02*
X044473Y028546D01*
X044473Y028388D02*
X043659Y028388D01*
X043659Y028323D02*
X044300Y028323D01*
X044290Y028251D01*
X044266Y028161D01*
X044230Y028075D01*
X044184Y027994D01*
X044127Y027920D01*
X044061Y027854D01*
X043987Y027798D01*
X043906Y027751D01*
X043820Y027715D01*
X043730Y027691D01*
X043659Y027682D01*
X043659Y028323D01*
X043659Y028229D02*
X043523Y028229D01*
X043523Y028071D02*
X043659Y028071D01*
X043659Y027912D02*
X043523Y027912D01*
X043523Y027754D02*
X043659Y027754D01*
X043911Y027754D02*
X044473Y027754D01*
X044473Y027912D02*
X044119Y027912D01*
X044228Y028071D02*
X044473Y028071D01*
X044473Y028229D02*
X044284Y028229D01*
X043659Y028546D02*
X043523Y028546D01*
X043523Y028388D02*
X042757Y028388D01*
X042898Y028229D02*
X042284Y028229D01*
X042228Y028071D02*
X042954Y028071D01*
X043063Y027912D02*
X042119Y027912D01*
X041911Y027754D02*
X043271Y027754D01*
X042425Y028388D02*
X041659Y028388D01*
X041063Y027912D02*
X002433Y027912D01*
X002433Y029339D02*
X030245Y029339D01*
X030075Y029497D02*
X002433Y029497D01*
X002433Y029656D02*
X029935Y029656D01*
X027994Y029814D02*
X002433Y029814D01*
X002433Y029973D02*
X027835Y029973D01*
X027677Y030131D02*
X002433Y030131D01*
X002433Y030290D02*
X027518Y030290D01*
X027360Y030448D02*
X002433Y030448D01*
X002433Y030607D02*
X027201Y030607D01*
X027043Y030765D02*
X002433Y030765D01*
X002433Y030924D02*
X026884Y030924D01*
X026726Y031082D02*
X002433Y031082D01*
X002433Y031241D02*
X026567Y031241D01*
X026409Y031399D02*
X002433Y031399D01*
X002433Y031558D02*
X026250Y031558D01*
X026092Y031716D02*
X002433Y031716D01*
X002433Y035296D02*
X002433Y039233D01*
X006764Y039233D01*
X006764Y035296D01*
X002433Y035296D01*
X002433Y035362D02*
X006764Y035362D01*
X006764Y035520D02*
X002433Y035520D01*
X002433Y035679D02*
X006764Y035679D01*
X006764Y035837D02*
X002433Y035837D01*
X002433Y035996D02*
X006764Y035996D01*
X006764Y036154D02*
X002433Y036154D01*
X002433Y036313D02*
X006764Y036313D01*
X006764Y036471D02*
X002433Y036471D01*
X002433Y036630D02*
X006764Y036630D01*
X006764Y036788D02*
X002433Y036788D01*
X002433Y036947D02*
X006764Y036947D01*
X006764Y037105D02*
X002433Y037105D01*
X002433Y037264D02*
X006764Y037264D01*
X006764Y037422D02*
X002433Y037422D01*
X002433Y037581D02*
X006764Y037581D01*
X006764Y037739D02*
X002433Y037739D01*
X002433Y037898D02*
X006764Y037898D01*
X006764Y038056D02*
X002433Y038056D01*
X002433Y038215D02*
X006764Y038215D01*
X006764Y038373D02*
X002433Y038373D01*
X002433Y038532D02*
X006764Y038532D01*
X006764Y038690D02*
X002433Y038690D01*
X002433Y038849D02*
X006764Y038849D01*
X006764Y039007D02*
X002433Y039007D01*
X002433Y039166D02*
X006764Y039166D01*
X006031Y023791D02*
X005871Y023791D01*
X005871Y023633D02*
X006031Y023633D01*
X006031Y023474D02*
X005871Y023474D01*
X005871Y023316D02*
X006031Y023316D01*
X006031Y023157D02*
X005871Y023157D01*
X003234Y022365D02*
X002433Y022365D01*
X002433Y022523D02*
X003037Y022523D01*
X002927Y022682D02*
X002433Y022682D01*
X002433Y022840D02*
X002862Y022840D01*
X002433Y022206D02*
X044473Y022206D01*
X044473Y022048D02*
X002433Y022048D01*
X002433Y021889D02*
X044473Y021889D01*
X044473Y021731D02*
X002433Y021731D01*
X002433Y020621D02*
X002841Y020621D01*
X002884Y020463D02*
X002433Y020463D01*
X002433Y020304D02*
X002965Y020304D01*
X003104Y020146D02*
X002433Y020146D01*
X002433Y019987D02*
X003376Y019987D01*
X002433Y019829D02*
X010987Y019829D01*
X011990Y019829D02*
X017680Y019829D01*
X017653Y019840D02*
X017996Y019698D01*
X018367Y019698D01*
X018710Y019840D01*
X018972Y020102D01*
X019114Y020445D01*
X019114Y020816D01*
X018972Y021159D01*
X018710Y021421D01*
X018367Y021563D01*
X017996Y021563D01*
X017653Y021421D01*
X017391Y021159D01*
X017249Y020816D01*
X017249Y020445D01*
X017391Y020102D01*
X017653Y019840D01*
X017506Y019987D02*
X012164Y019987D01*
X012297Y020146D02*
X017373Y020146D01*
X017307Y020304D02*
X012363Y020304D01*
X012421Y020463D02*
X017249Y020463D01*
X017249Y020621D02*
X012421Y020621D01*
X012421Y020780D02*
X017249Y020780D01*
X017299Y020938D02*
X012371Y020938D01*
X012305Y021097D02*
X017365Y021097D01*
X017487Y021255D02*
X012183Y021255D01*
X012024Y021414D02*
X017646Y021414D01*
X017996Y022257D02*
X017653Y022399D01*
X017391Y022661D01*
X017249Y023004D01*
X017249Y023375D01*
X017391Y023718D01*
X017653Y023981D01*
X017996Y024123D01*
X018367Y024123D01*
X018710Y023981D01*
X018972Y023718D01*
X019114Y023375D01*
X019114Y023004D01*
X018972Y022661D01*
X018710Y022399D01*
X018367Y022257D01*
X017996Y022257D01*
X017735Y022365D02*
X011935Y022365D01*
X012141Y022523D02*
X017529Y022523D01*
X017382Y022682D02*
X012288Y022682D01*
X012353Y022840D02*
X017317Y022840D01*
X017251Y022999D02*
X012419Y022999D01*
X012421Y023157D02*
X017249Y023157D01*
X017249Y023316D02*
X012421Y023316D01*
X012380Y023474D02*
X017290Y023474D01*
X017355Y023633D02*
X012315Y023633D01*
X012206Y023791D02*
X017464Y023791D01*
X017623Y023950D02*
X012048Y023950D01*
X011708Y024108D02*
X017962Y024108D01*
X018401Y024108D02*
X024655Y024108D01*
X024315Y023950D02*
X018740Y023950D01*
X018899Y023791D02*
X024157Y023791D01*
X024048Y023633D02*
X019008Y023633D01*
X019073Y023474D02*
X023983Y023474D01*
X023942Y023316D02*
X019114Y023316D01*
X019114Y023157D02*
X023942Y023157D01*
X023944Y022999D02*
X019112Y022999D01*
X019046Y022840D02*
X024010Y022840D01*
X024075Y022682D02*
X018981Y022682D01*
X018834Y022523D02*
X024222Y022523D01*
X024428Y022365D02*
X018628Y022365D01*
X018717Y021414D02*
X024339Y021414D01*
X024180Y021255D02*
X018876Y021255D01*
X018998Y021097D02*
X024058Y021097D01*
X023992Y020938D02*
X019064Y020938D01*
X019114Y020780D02*
X023942Y020780D01*
X023942Y020621D02*
X019114Y020621D01*
X019114Y020463D02*
X023942Y020463D01*
X024000Y020304D02*
X019056Y020304D01*
X018990Y020146D02*
X024066Y020146D01*
X024199Y019987D02*
X018857Y019987D01*
X018683Y019829D02*
X024373Y019829D01*
X025320Y022365D02*
X044473Y022365D01*
X044473Y022523D02*
X025527Y022523D01*
X025700Y023633D02*
X040241Y023633D01*
X040281Y023791D02*
X025592Y023791D01*
X025433Y023950D02*
X040360Y023950D01*
X040494Y024108D02*
X025094Y024108D01*
X037687Y015458D02*
X037687Y015458D01*
X038029Y015549D02*
X002433Y015549D01*
X002433Y015708D02*
X039025Y015708D01*
X039088Y015866D02*
X002433Y015866D01*
X002433Y016025D02*
X040908Y016025D01*
X040916Y016053D02*
X040892Y015963D01*
X040882Y015891D01*
X041523Y015891D01*
X041523Y016532D01*
X041452Y016523D01*
X041362Y016499D01*
X041276Y016463D01*
X041195Y016416D01*
X041121Y016360D01*
X041055Y016294D01*
X040998Y016220D01*
X040951Y016139D01*
X040916Y016053D01*
X040977Y016183D02*
X002433Y016183D01*
X002433Y016342D02*
X041103Y016342D01*
X041368Y016500D02*
X002433Y016500D01*
X002433Y016659D02*
X044473Y016659D01*
X044473Y016817D02*
X002433Y016817D01*
X002433Y016976D02*
X044473Y016976D01*
X044473Y017134D02*
X002433Y017134D01*
X002433Y017293D02*
X040645Y017293D01*
X040683Y017271D02*
X040781Y017230D01*
X040883Y017203D01*
X040962Y017192D01*
X040962Y017919D01*
X041122Y017919D01*
X041122Y018079D01*
X041848Y018079D01*
X041838Y018157D01*
X041810Y018260D01*
X041770Y018358D01*
X041717Y018450D01*
X041652Y018534D01*
X041577Y018609D01*
X041493Y018674D01*
X041401Y018727D01*
X041303Y018767D01*
X041200Y018795D01*
X041122Y018805D01*
X041122Y018079D01*
X040962Y018079D01*
X040962Y018805D01*
X040883Y018795D01*
X040781Y018767D01*
X040683Y018727D01*
X040591Y018674D01*
X040507Y018609D01*
X040431Y018534D01*
X040367Y018450D01*
X040314Y018358D01*
X040273Y018260D01*
X040246Y018157D01*
X040235Y018079D01*
X040962Y018079D01*
X040962Y017919D01*
X040235Y017919D01*
X040246Y017840D01*
X040273Y017738D01*
X040314Y017640D01*
X040367Y017548D01*
X040431Y017464D01*
X040507Y017389D01*
X040591Y017324D01*
X040683Y017271D01*
X040962Y017293D02*
X041122Y017293D01*
X041122Y017192D02*
X041200Y017203D01*
X041303Y017230D01*
X041401Y017271D01*
X041493Y017324D01*
X041577Y017389D01*
X041652Y017464D01*
X041717Y017548D01*
X041770Y017640D01*
X041810Y017738D01*
X041838Y017840D01*
X041848Y017919D01*
X041122Y017919D01*
X041122Y017192D01*
X041122Y017451D02*
X040962Y017451D01*
X040962Y017610D02*
X041122Y017610D01*
X041122Y017768D02*
X040962Y017768D01*
X040962Y017927D02*
X002433Y017927D01*
X002433Y018085D02*
X040236Y018085D01*
X040269Y018244D02*
X002433Y018244D01*
X002433Y018402D02*
X040340Y018402D01*
X040458Y018561D02*
X002433Y018561D01*
X002433Y018719D02*
X040670Y018719D01*
X040962Y018719D02*
X041122Y018719D01*
X041122Y018561D02*
X040962Y018561D01*
X040962Y018402D02*
X041122Y018402D01*
X041122Y018244D02*
X040962Y018244D01*
X040962Y018085D02*
X041122Y018085D01*
X041122Y017927D02*
X043273Y017927D01*
X043273Y017919D02*
X042546Y017919D01*
X042557Y017840D01*
X042584Y017738D01*
X042625Y017640D01*
X042678Y017548D01*
X042743Y017464D01*
X042818Y017389D01*
X042902Y017324D01*
X042994Y017271D01*
X043092Y017230D01*
X043194Y017203D01*
X043273Y017192D01*
X043273Y017919D01*
X043433Y017919D01*
X043433Y018079D01*
X044159Y018079D01*
X044149Y018157D01*
X044121Y018260D01*
X044081Y018358D01*
X044028Y018450D01*
X043963Y018534D01*
X043888Y018609D01*
X043804Y018674D01*
X043712Y018727D01*
X043614Y018767D01*
X043511Y018795D01*
X043433Y018805D01*
X043433Y018079D01*
X043273Y018079D01*
X043273Y018805D01*
X043194Y018795D01*
X043092Y018767D01*
X042994Y018727D01*
X042902Y018674D01*
X042818Y018609D01*
X042743Y018534D01*
X042678Y018450D01*
X042625Y018358D01*
X042584Y018260D01*
X042557Y018157D01*
X042546Y018079D01*
X043273Y018079D01*
X043273Y017919D01*
X043273Y017768D02*
X043433Y017768D01*
X043433Y017919D02*
X043433Y017192D01*
X043511Y017203D01*
X043614Y017230D01*
X043712Y017271D01*
X043804Y017324D01*
X043888Y017389D01*
X043963Y017464D01*
X044028Y017548D01*
X044081Y017640D01*
X044121Y017738D01*
X044149Y017840D01*
X044159Y017919D01*
X043433Y017919D01*
X043433Y017927D02*
X044473Y017927D01*
X044473Y018085D02*
X044158Y018085D01*
X044126Y018244D02*
X044473Y018244D01*
X044473Y018402D02*
X044055Y018402D01*
X043936Y018561D02*
X044473Y018561D01*
X044473Y018719D02*
X043724Y018719D01*
X043433Y018719D02*
X043273Y018719D01*
X043273Y018561D02*
X043433Y018561D01*
X043433Y018402D02*
X043273Y018402D01*
X043273Y018244D02*
X043433Y018244D01*
X043433Y018085D02*
X043273Y018085D01*
X043273Y017610D02*
X043433Y017610D01*
X043433Y017451D02*
X043273Y017451D01*
X043273Y017293D02*
X043433Y017293D01*
X043750Y017293D02*
X044473Y017293D01*
X044473Y017451D02*
X043951Y017451D01*
X044063Y017610D02*
X044473Y017610D01*
X044473Y017768D02*
X044130Y017768D01*
X044473Y018878D02*
X002433Y018878D01*
X002433Y019036D02*
X044473Y019036D01*
X044473Y019195D02*
X002433Y019195D01*
X002433Y019353D02*
X044473Y019353D01*
X043433Y019670D02*
X043273Y019670D01*
X043273Y019829D02*
X043433Y019829D01*
X043433Y019987D02*
X043273Y019987D01*
X043273Y020463D02*
X043433Y020463D01*
X043433Y020621D02*
X043273Y020621D01*
X043273Y020780D02*
X043433Y020780D01*
X043433Y020938D02*
X043273Y020938D01*
X042842Y020938D02*
X041553Y020938D01*
X041702Y020780D02*
X042693Y020780D01*
X042605Y020621D02*
X041789Y020621D01*
X041838Y020463D02*
X042556Y020463D01*
X042558Y020146D02*
X041836Y020146D01*
X041785Y019987D02*
X042610Y019987D01*
X042701Y019829D02*
X041694Y019829D01*
X041539Y019670D02*
X042856Y019670D01*
X042981Y018719D02*
X041413Y018719D01*
X041625Y018561D02*
X042769Y018561D01*
X042651Y018402D02*
X041744Y018402D01*
X041815Y018244D02*
X042580Y018244D01*
X042547Y018085D02*
X041847Y018085D01*
X041818Y017768D02*
X042576Y017768D01*
X042642Y017610D02*
X041752Y017610D01*
X041640Y017451D02*
X042755Y017451D01*
X042956Y017293D02*
X041439Y017293D01*
X041523Y016500D02*
X041659Y016500D01*
X041814Y016500D02*
X043368Y016500D01*
X043362Y016499D02*
X043276Y016463D01*
X043195Y016416D01*
X043121Y016360D01*
X043055Y016294D01*
X042998Y016220D01*
X042951Y016139D01*
X042916Y016053D01*
X042892Y015963D01*
X042882Y015891D01*
X043523Y015891D01*
X043523Y015756D01*
X043659Y015756D01*
X043659Y015891D01*
X044300Y015891D01*
X044290Y015963D01*
X044266Y016053D01*
X044230Y016139D01*
X044184Y016220D01*
X044127Y016294D01*
X044061Y016360D01*
X043987Y016416D01*
X043906Y016463D01*
X043820Y016499D01*
X043730Y016523D01*
X043659Y016532D01*
X043659Y015891D01*
X043523Y015891D01*
X043523Y016532D01*
X043452Y016523D01*
X043362Y016499D01*
X043523Y016500D02*
X043659Y016500D01*
X043814Y016500D02*
X044473Y016500D01*
X044473Y016342D02*
X044079Y016342D01*
X044205Y016183D02*
X044473Y016183D01*
X044473Y016025D02*
X044274Y016025D01*
X044473Y015866D02*
X043659Y015866D01*
X043659Y015756D02*
X044300Y015756D01*
X044290Y015685D01*
X044266Y015594D01*
X044230Y015508D01*
X044184Y015427D01*
X044127Y015353D01*
X044061Y015288D01*
X043987Y015231D01*
X043906Y015184D01*
X043820Y015148D01*
X043730Y015124D01*
X043659Y015115D01*
X043659Y015756D01*
X043659Y015708D02*
X043523Y015708D01*
X043523Y015866D02*
X041659Y015866D01*
X041523Y015866D02*
X039795Y015866D01*
X039858Y015708D02*
X040889Y015708D01*
X040934Y015549D02*
X040317Y015549D01*
X039450Y015708D02*
X039433Y015708D01*
X039433Y015866D02*
X039450Y015866D01*
X039686Y014123D02*
X038940Y014123D01*
X039048Y013964D02*
X039734Y013964D01*
X039734Y014008D02*
X039734Y013776D01*
X039746Y013731D01*
X039770Y013689D01*
X039803Y013656D01*
X039844Y013632D01*
X039890Y013620D01*
X040181Y013620D01*
X040181Y014008D01*
X039734Y014008D01*
X039734Y013806D02*
X039048Y013806D01*
X039048Y013647D02*
X039818Y013647D01*
X040181Y013647D02*
X040277Y013647D01*
X040277Y013620D02*
X040567Y013620D01*
X040613Y013632D01*
X040654Y013656D01*
X040688Y013689D01*
X040711Y013731D01*
X040724Y013776D01*
X040724Y014008D01*
X040277Y014008D01*
X040277Y013620D01*
X040277Y013806D02*
X040181Y013806D01*
X040181Y013964D02*
X040277Y013964D01*
X040724Y013964D02*
X040892Y013964D01*
X040945Y014123D02*
X040772Y014123D01*
X040724Y013806D02*
X041523Y013806D01*
X041659Y013806D02*
X043523Y013806D01*
X043659Y013806D02*
X044473Y013806D01*
X044473Y013964D02*
X044290Y013964D01*
X044237Y014123D02*
X044473Y014123D01*
X044473Y014281D02*
X044136Y014281D01*
X043946Y014440D02*
X044473Y014440D01*
X044473Y014598D02*
X043578Y014598D01*
X043602Y014757D02*
X044473Y014757D01*
X044473Y014915D02*
X043602Y014915D01*
X043571Y015074D02*
X044473Y015074D01*
X044473Y015232D02*
X043989Y015232D01*
X044156Y015391D02*
X044473Y015391D01*
X044473Y015549D02*
X044247Y015549D01*
X044293Y015708D02*
X044473Y015708D01*
X043659Y015549D02*
X043523Y015549D01*
X043523Y015391D02*
X043659Y015391D01*
X043659Y015232D02*
X043523Y015232D01*
X043535Y014440D02*
X043659Y014440D01*
X043659Y014281D02*
X043523Y014281D01*
X043523Y014123D02*
X043659Y014123D01*
X043659Y013964D02*
X043523Y013964D01*
X043659Y013756D02*
X044300Y013756D01*
X044290Y013685D01*
X044266Y013594D01*
X044230Y013508D01*
X044184Y013427D01*
X044127Y013353D01*
X044061Y013288D01*
X043987Y013231D01*
X043906Y013184D01*
X043820Y013148D01*
X043730Y013124D01*
X043659Y013115D01*
X043659Y013756D01*
X043659Y013647D02*
X043523Y013647D01*
X043523Y013489D02*
X043659Y013489D01*
X043659Y013330D02*
X043523Y013330D01*
X043523Y013172D02*
X043659Y013172D01*
X043877Y013172D02*
X044473Y013172D01*
X044473Y013330D02*
X044104Y013330D01*
X044219Y013489D02*
X044473Y013489D01*
X044473Y013647D02*
X044280Y013647D01*
X044473Y013013D02*
X039048Y013013D01*
X039048Y012855D02*
X044473Y012855D01*
X044473Y012696D02*
X039048Y012696D01*
X039048Y012538D02*
X044473Y012538D01*
X044473Y012379D02*
X039048Y012379D01*
X039048Y012221D02*
X044473Y012221D01*
X043305Y013172D02*
X041877Y013172D01*
X041906Y013184D02*
X041987Y013231D01*
X042061Y013288D01*
X042127Y013353D01*
X042184Y013427D01*
X042230Y013508D01*
X042266Y013594D01*
X042290Y013685D01*
X042300Y013756D01*
X041659Y013756D01*
X041659Y013115D01*
X041730Y013124D01*
X041820Y013148D01*
X041906Y013184D01*
X042104Y013330D02*
X043078Y013330D01*
X042963Y013489D02*
X042219Y013489D01*
X042280Y013647D02*
X042902Y013647D01*
X041659Y013647D02*
X041523Y013647D01*
X041523Y013489D02*
X041659Y013489D01*
X041659Y013330D02*
X041523Y013330D01*
X041523Y013172D02*
X041659Y013172D01*
X041305Y013172D02*
X039048Y013172D01*
X039048Y013330D02*
X041078Y013330D01*
X040963Y013489D02*
X039048Y013489D01*
X040639Y013647D02*
X040902Y013647D01*
X041523Y016025D02*
X041659Y016025D01*
X041659Y016183D02*
X041523Y016183D01*
X041523Y016342D02*
X041659Y016342D01*
X042079Y016342D02*
X043103Y016342D01*
X042977Y016183D02*
X042205Y016183D01*
X042274Y016025D02*
X042908Y016025D01*
X043523Y016025D02*
X043659Y016025D01*
X043659Y016183D02*
X043523Y016183D01*
X043523Y016342D02*
X043659Y016342D01*
X040444Y017451D02*
X002433Y017451D01*
X002433Y017610D02*
X040331Y017610D01*
X040265Y017768D02*
X002433Y017768D01*
X039048Y030607D02*
X040912Y030607D01*
X040986Y030765D02*
X039048Y030765D01*
X039048Y030924D02*
X041118Y030924D01*
X041424Y031082D02*
X039048Y031082D01*
X039048Y031241D02*
X044473Y031241D01*
X044473Y031399D02*
X039048Y031399D01*
X039048Y031558D02*
X044473Y031558D01*
X044473Y031716D02*
X039048Y031716D01*
X039048Y031875D02*
X044473Y031875D01*
X044473Y032033D02*
X039048Y032033D01*
X041523Y031082D02*
X041659Y031082D01*
X041758Y031082D02*
X043424Y031082D01*
X043523Y031082D02*
X043659Y031082D01*
X043758Y031082D02*
X044473Y031082D01*
X044473Y030924D02*
X044064Y030924D01*
X044196Y030765D02*
X044473Y030765D01*
X044473Y030607D02*
X044270Y030607D01*
X043659Y030607D02*
X043523Y030607D01*
X043523Y030765D02*
X043659Y030765D01*
X043659Y030924D02*
X043523Y030924D01*
X043118Y030924D02*
X042064Y030924D01*
X042196Y030765D02*
X042986Y030765D01*
X042912Y030607D02*
X042270Y030607D01*
X041659Y030607D02*
X041523Y030607D01*
X041523Y030765D02*
X041659Y030765D01*
X041659Y030924D02*
X041523Y030924D01*
X043523Y030290D02*
X043659Y030290D01*
X043659Y030131D02*
X043523Y030131D01*
X043523Y029973D02*
X043659Y029973D01*
X043659Y029814D02*
X043523Y029814D01*
X043539Y029022D02*
X043659Y029022D01*
X043659Y028863D02*
X043523Y028863D01*
X043523Y028705D02*
X043659Y028705D01*
X044153Y025693D02*
X044473Y025693D01*
X044473Y025535D02*
X044111Y025535D01*
X044031Y025376D02*
X044473Y025376D01*
X044473Y025218D02*
X043894Y025218D01*
X043864Y020938D02*
X044473Y020938D01*
X044473Y020780D02*
X044013Y020780D01*
X044100Y020621D02*
X044473Y020621D01*
X044473Y020463D02*
X044150Y020463D01*
X041122Y020463D02*
X040962Y020463D01*
X040962Y020621D02*
X041122Y020621D01*
X041122Y020780D02*
X040962Y020780D01*
X040962Y020938D02*
X041122Y020938D01*
X041122Y019987D02*
X040962Y019987D01*
X040962Y019829D02*
X041122Y019829D01*
X041122Y019670D02*
X040962Y019670D01*
X039441Y009706D02*
X044166Y009706D01*
X044166Y005769D01*
X039441Y005769D01*
X039441Y009706D01*
X039441Y009685D02*
X044166Y009685D01*
X044166Y009526D02*
X039441Y009526D01*
X039441Y009368D02*
X044166Y009368D01*
X044166Y009209D02*
X039441Y009209D01*
X039441Y009051D02*
X044166Y009051D01*
X044166Y008892D02*
X039441Y008892D01*
X039441Y008734D02*
X044166Y008734D01*
X044166Y008575D02*
X039441Y008575D01*
X039441Y008417D02*
X044166Y008417D01*
X044166Y008258D02*
X039441Y008258D01*
X039441Y008100D02*
X044166Y008100D01*
X044166Y007941D02*
X039441Y007941D01*
X039441Y007783D02*
X044166Y007783D01*
X044166Y007624D02*
X039441Y007624D01*
X039441Y007466D02*
X044166Y007466D01*
X044166Y007307D02*
X039441Y007307D01*
X039441Y007149D02*
X044166Y007149D01*
X044166Y006990D02*
X039441Y006990D01*
X039441Y006832D02*
X044166Y006832D01*
X044166Y006673D02*
X039441Y006673D01*
X039441Y006515D02*
X044166Y006515D01*
X044166Y006356D02*
X039441Y006356D01*
X039441Y006198D02*
X044166Y006198D01*
X044166Y006039D02*
X039441Y006039D01*
X039441Y005881D02*
X044166Y005881D01*
X044166Y035296D02*
X039441Y035296D01*
X039441Y039233D01*
X044166Y039233D01*
X044166Y035296D01*
X044166Y035362D02*
X039441Y035362D01*
X039441Y035520D02*
X044166Y035520D01*
X044166Y035679D02*
X039441Y035679D01*
X039441Y035837D02*
X044166Y035837D01*
X044166Y035996D02*
X039441Y035996D01*
X039441Y036154D02*
X044166Y036154D01*
X044166Y036313D02*
X039441Y036313D01*
X039441Y036471D02*
X044166Y036471D01*
X044166Y036630D02*
X039441Y036630D01*
X039441Y036788D02*
X044166Y036788D01*
X044166Y036947D02*
X039441Y036947D01*
X039441Y037105D02*
X044166Y037105D01*
X044166Y037264D02*
X039441Y037264D01*
X039441Y037422D02*
X044166Y037422D01*
X044166Y037581D02*
X039441Y037581D01*
X039441Y037739D02*
X044166Y037739D01*
X044166Y037898D02*
X039441Y037898D01*
X039441Y038056D02*
X044166Y038056D01*
X044166Y038215D02*
X039441Y038215D01*
X039441Y038373D02*
X044166Y038373D01*
X044166Y038532D02*
X039441Y038532D01*
X039441Y038690D02*
X044166Y038690D01*
X044166Y038849D02*
X039441Y038849D01*
X039441Y039007D02*
X044166Y039007D01*
X044166Y039166D02*
X039441Y039166D01*
D17*
X039441Y031753D03*
X039441Y030572D03*
X041016Y031753D03*
X042591Y031753D03*
X044166Y031753D03*
X042591Y027816D03*
X044166Y026635D03*
X040622Y027816D03*
X039441Y027816D03*
X039441Y025847D03*
X039441Y024272D03*
X039441Y022698D03*
X039441Y021123D03*
X039441Y019548D03*
X039441Y017973D03*
X039441Y016398D03*
X041016Y016792D03*
X042591Y016792D03*
X039441Y014036D03*
X039441Y012855D03*
X040622Y012855D03*
X042591Y012855D03*
X044166Y012855D03*
X044166Y022304D03*
X042591Y022304D03*
X041016Y022304D03*
D18*
X004796Y025847D03*
X004796Y017973D03*
D19*
X009961Y009804D02*
X005557Y005400D01*
X009961Y009804D02*
X011489Y009804D01*
X018181Y009804D01*
X024874Y009804D01*
X031174Y010032D02*
X031174Y010493D01*
X034323Y010493D01*
X037473Y010493D01*
X037473Y008918D02*
X032287Y008918D01*
X032222Y008920D01*
X032158Y008926D01*
X032094Y008935D01*
X032030Y008948D01*
X031968Y008965D01*
X031906Y008985D01*
X031846Y009009D01*
X031787Y009036D01*
X031730Y009067D01*
X031675Y009101D01*
X031622Y009138D01*
X031571Y009179D01*
X031523Y009222D01*
X031477Y009268D01*
X031434Y009316D01*
X031393Y009367D01*
X031356Y009420D01*
X031322Y009475D01*
X031291Y009532D01*
X031264Y009591D01*
X031240Y009651D01*
X031220Y009713D01*
X031203Y009775D01*
X031190Y009839D01*
X031181Y009903D01*
X031175Y009967D01*
X031173Y010032D01*
X031174Y014430D02*
X034323Y014430D01*
X037473Y014430D01*
X037473Y008918D02*
X039835Y006556D01*
X041410Y006556D01*
X040648Y006581D01*
X037079Y030178D02*
X033930Y030178D01*
X030780Y030178D01*
X030780Y034115D02*
X037079Y034115D01*
X033930Y034115D01*
X031893Y035690D02*
X031828Y035688D01*
X031764Y035682D01*
X031700Y035673D01*
X031636Y035660D01*
X031574Y035643D01*
X031512Y035623D01*
X031452Y035599D01*
X031393Y035572D01*
X031336Y035541D01*
X031281Y035507D01*
X031228Y035470D01*
X031177Y035429D01*
X031129Y035386D01*
X031083Y035340D01*
X031040Y035292D01*
X030999Y035241D01*
X030962Y035188D01*
X030928Y035133D01*
X030897Y035076D01*
X030870Y035017D01*
X030846Y034957D01*
X030826Y034895D01*
X030809Y034833D01*
X030796Y034769D01*
X030787Y034705D01*
X030781Y034641D01*
X030779Y034576D01*
X030780Y034576D02*
X030780Y034115D01*
X031893Y035690D02*
X037867Y035690D01*
X040597Y038420D01*
X040648Y038420D01*
X024874Y034017D02*
X018181Y034017D01*
X011489Y034017D01*
X009961Y034017D01*
X005557Y038420D01*
X005557Y036109D01*
X003246Y036109D01*
X003246Y038420D02*
X005557Y038420D01*
D20*
X037079Y030178D02*
X037626Y029631D01*
X038255Y029371D02*
X039441Y029371D01*
X039520Y029450D01*
X040229Y029450D01*
X040288Y029391D01*
X042591Y029391D01*
X038255Y029370D02*
X038197Y029372D01*
X038139Y029378D01*
X038081Y029387D01*
X038025Y029400D01*
X037969Y029417D01*
X037914Y029438D01*
X037861Y029462D01*
X037810Y029489D01*
X037761Y029520D01*
X037713Y029554D01*
X037668Y029591D01*
X037626Y029631D01*
X038281Y014883D02*
X039441Y014883D01*
X040150Y014883D01*
X040229Y014804D02*
X042571Y014804D01*
X042591Y014824D01*
X038281Y014883D02*
X038225Y014881D01*
X038169Y014876D01*
X038114Y014867D01*
X038059Y014854D01*
X038005Y014837D01*
X037953Y014818D01*
X037902Y014795D01*
X037852Y014768D01*
X037804Y014738D01*
X037759Y014706D01*
X037715Y014670D01*
X037674Y014632D01*
X037674Y014631D02*
X037473Y014430D01*
D21*
X040150Y014883D02*
X040152Y014868D01*
X040156Y014853D01*
X040163Y014839D01*
X040173Y014827D01*
X040185Y014817D01*
X040199Y014810D01*
X040214Y014806D01*
X040229Y014804D01*
D22*
X039441Y029371D02*
X039422Y029391D01*
M02*
