G75*
G70*
%OFA0B0*%
%FSLAX24Y24*%
%IPPOS*%
%LPD*%
%AMOC8*
5,1,8,0,0,1.08239X$1,22.5*
%
%ADD10C,0.2049*%
%ADD11C,0.0986*%
%ADD12R,0.0710X0.0592*%
%ADD13R,0.0552X0.0434*%
%ADD14C,0.1143*%
%ADD15C,0.1340*%
%ADD16C,0.0907*%
%ADD17R,0.0476X0.0476*%
%ADD18C,0.4017*%
D10*
X003615Y002619D03*
X003615Y041595D03*
X042985Y041595D03*
X042985Y003013D03*
D11*
X024874Y009804D03*
X018181Y009804D03*
X011489Y009804D03*
X011489Y020631D03*
X011489Y023190D03*
X018181Y023190D03*
X018181Y020631D03*
X024874Y020631D03*
X024874Y023190D03*
X024874Y034017D03*
X018181Y034017D03*
X011489Y034017D03*
D12*
X039441Y029371D03*
X039441Y028623D03*
X040229Y014804D03*
X040229Y014056D03*
D13*
X039441Y014883D03*
X039441Y015552D03*
X040229Y029450D03*
X040229Y030119D03*
D14*
X041591Y030391D03*
X042591Y029391D03*
X043591Y030391D03*
X043591Y028391D03*
X041591Y028391D03*
X041591Y015824D03*
X042591Y014824D03*
X043591Y015824D03*
X043591Y013824D03*
X041591Y013824D03*
D15*
X041042Y017999D03*
X043353Y017999D03*
X043353Y020310D03*
X041042Y020310D03*
X041042Y023511D03*
X041042Y025822D03*
X043353Y025822D03*
X043353Y023511D03*
X042959Y036109D03*
X042959Y038420D03*
X040648Y038420D03*
X040648Y036109D03*
X040648Y008893D03*
X042959Y008893D03*
X042959Y006581D03*
X040648Y006581D03*
X005951Y020755D03*
X005951Y023066D03*
X003640Y023066D03*
X003640Y020755D03*
X003246Y007711D03*
X005557Y007711D03*
X005557Y005400D03*
X003246Y005400D03*
X003246Y036109D03*
X003246Y038420D03*
X005557Y038420D03*
X005557Y036109D03*
D16*
X030780Y034115D03*
X033930Y034115D03*
X037079Y034115D03*
X037079Y030178D03*
X033930Y030178D03*
X030780Y030178D03*
X031174Y014430D03*
X034323Y014430D03*
X037473Y014430D03*
X037473Y010493D03*
X034323Y010493D03*
X031174Y010493D03*
D17*
X039441Y012855D03*
X039441Y014036D03*
X040622Y012855D03*
X042591Y012855D03*
X044166Y012855D03*
X042591Y016792D03*
X041016Y016792D03*
X039441Y016398D03*
X039441Y017973D03*
X039441Y019548D03*
X039441Y021123D03*
X039441Y022698D03*
X039441Y024272D03*
X039441Y025847D03*
X039441Y027816D03*
X040622Y027816D03*
X042591Y027816D03*
X044166Y026635D03*
X044166Y022304D03*
X042591Y022304D03*
X041016Y022304D03*
X039441Y030572D03*
X039441Y031753D03*
X041016Y031753D03*
X042591Y031753D03*
X044166Y031753D03*
D18*
X004796Y025847D03*
X004796Y017973D03*
M02*
