%
M48
M72
T01C0.0236
T02C0.0354
T03C0.0433
T04C0.0591
T05C0.0728
T06C0.1969
T07C0.2362
%
T01
X39441Y12855
X39441Y14036
X40622Y12855
X42591Y12855
X44166Y12855
X42591Y16792
X41016Y16792
X39441Y16398
X39441Y17973
X39441Y19548
X39441Y21123
X39441Y22698
X39441Y24272
X39441Y25847
X39441Y27816
X40622Y27816
X42591Y27816
X44166Y26635
X44166Y22304
X42591Y22304
X41016Y22304
X39441Y30572
X39441Y31753
X41016Y31753
X42591Y31753
X44166Y31753
T02
X37079Y30178
X33930Y30178
X30780Y30178
X30780Y34115
X33930Y34115
X37079Y34115
X37473Y14430
X34323Y14430
X31174Y14430
X31174Y10493
X34323Y10493
X37473Y10493
T03
X24874Y9804
X18181Y9804
X11489Y9804
X11489Y20631
X11489Y23190
X18181Y23190
X18181Y20631
X24874Y20631
X24874Y23190
X24874Y34017
X18181Y34017
X11489Y34017
T04
X41591Y30391
X42591Y29391
X43591Y30391
X43591Y28391
X41591Y28391
X41591Y15824
X42591Y14824
X43591Y15824
X43591Y13824
X41591Y13824
T05
X41042Y17999
X43353Y17999
X43353Y20310
X41042Y20310
X41042Y23511
X41042Y25822
X43353Y25822
X43353Y23511
X42959Y36109
X42959Y38420
X40648Y38420
X40648Y36109
X40648Y8893
X42959Y8893
X42959Y6581
X40648Y6581
X5951Y20755
X5951Y23066
X3640Y23066
X3640Y20755
X3246Y7711
X5557Y7711
X5557Y5400
X3246Y5400
X3246Y36109
X3246Y38420
X5557Y38420
X5557Y36109
T06
X3615Y2619
X3615Y41595
X42985Y41595
X42985Y3013
T07
X4796Y17973
X4796Y25847
M30
