G75*
G70*
%OFA0B0*%
%FSLAX24Y24*%
%IPPOS*%
%LPD*%
%AMOC8*
5,1,8,0,0,1.08239X$1,22.5*
%
%ADD10C,0.0000*%
%ADD11C,0.0080*%
%ADD12C,0.0100*%
%ADD13C,0.0059*%
%ADD14C,0.0070*%
%ADD15C,0.0160*%
%ADD16C,0.0098*%
%ADD17C,0.0060*%
%ADD18C,0.0110*%
%ADD19C,0.0050*%
D10*
X001646Y000650D02*
X001646Y043564D01*
X044953Y043564D01*
X044953Y000650D01*
X001646Y000650D01*
X002631Y002619D02*
X002633Y002681D01*
X002639Y002744D01*
X002649Y002805D01*
X002663Y002866D01*
X002680Y002926D01*
X002701Y002985D01*
X002727Y003042D01*
X002755Y003097D01*
X002787Y003151D01*
X002823Y003202D01*
X002861Y003252D01*
X002903Y003298D01*
X002947Y003342D01*
X002995Y003383D01*
X003044Y003421D01*
X003096Y003455D01*
X003150Y003486D01*
X003206Y003514D01*
X003264Y003538D01*
X003323Y003559D01*
X003383Y003575D01*
X003444Y003588D01*
X003506Y003597D01*
X003568Y003602D01*
X003631Y003603D01*
X003693Y003600D01*
X003755Y003593D01*
X003817Y003582D01*
X003877Y003567D01*
X003937Y003549D01*
X003995Y003527D01*
X004052Y003501D01*
X004107Y003471D01*
X004160Y003438D01*
X004211Y003402D01*
X004259Y003363D01*
X004305Y003320D01*
X004348Y003275D01*
X004388Y003227D01*
X004425Y003177D01*
X004459Y003124D01*
X004490Y003070D01*
X004516Y003014D01*
X004540Y002956D01*
X004559Y002896D01*
X004575Y002836D01*
X004587Y002774D01*
X004595Y002713D01*
X004599Y002650D01*
X004599Y002588D01*
X004595Y002525D01*
X004587Y002464D01*
X004575Y002402D01*
X004559Y002342D01*
X004540Y002282D01*
X004516Y002224D01*
X004490Y002168D01*
X004459Y002114D01*
X004425Y002061D01*
X004388Y002011D01*
X004348Y001963D01*
X004305Y001918D01*
X004259Y001875D01*
X004211Y001836D01*
X004160Y001800D01*
X004107Y001767D01*
X004052Y001737D01*
X003995Y001711D01*
X003937Y001689D01*
X003877Y001671D01*
X003817Y001656D01*
X003755Y001645D01*
X003693Y001638D01*
X003631Y001635D01*
X003568Y001636D01*
X003506Y001641D01*
X003444Y001650D01*
X003383Y001663D01*
X003323Y001679D01*
X003264Y001700D01*
X003206Y001724D01*
X003150Y001752D01*
X003096Y001783D01*
X003044Y001817D01*
X002995Y001855D01*
X002947Y001896D01*
X002903Y001940D01*
X002861Y001986D01*
X002823Y002036D01*
X002787Y002087D01*
X002755Y002141D01*
X002727Y002196D01*
X002701Y002253D01*
X002680Y002312D01*
X002663Y002372D01*
X002649Y002433D01*
X002639Y002494D01*
X002633Y002557D01*
X002631Y002619D01*
X002631Y041595D02*
X002633Y041657D01*
X002639Y041720D01*
X002649Y041781D01*
X002663Y041842D01*
X002680Y041902D01*
X002701Y041961D01*
X002727Y042018D01*
X002755Y042073D01*
X002787Y042127D01*
X002823Y042178D01*
X002861Y042228D01*
X002903Y042274D01*
X002947Y042318D01*
X002995Y042359D01*
X003044Y042397D01*
X003096Y042431D01*
X003150Y042462D01*
X003206Y042490D01*
X003264Y042514D01*
X003323Y042535D01*
X003383Y042551D01*
X003444Y042564D01*
X003506Y042573D01*
X003568Y042578D01*
X003631Y042579D01*
X003693Y042576D01*
X003755Y042569D01*
X003817Y042558D01*
X003877Y042543D01*
X003937Y042525D01*
X003995Y042503D01*
X004052Y042477D01*
X004107Y042447D01*
X004160Y042414D01*
X004211Y042378D01*
X004259Y042339D01*
X004305Y042296D01*
X004348Y042251D01*
X004388Y042203D01*
X004425Y042153D01*
X004459Y042100D01*
X004490Y042046D01*
X004516Y041990D01*
X004540Y041932D01*
X004559Y041872D01*
X004575Y041812D01*
X004587Y041750D01*
X004595Y041689D01*
X004599Y041626D01*
X004599Y041564D01*
X004595Y041501D01*
X004587Y041440D01*
X004575Y041378D01*
X004559Y041318D01*
X004540Y041258D01*
X004516Y041200D01*
X004490Y041144D01*
X004459Y041090D01*
X004425Y041037D01*
X004388Y040987D01*
X004348Y040939D01*
X004305Y040894D01*
X004259Y040851D01*
X004211Y040812D01*
X004160Y040776D01*
X004107Y040743D01*
X004052Y040713D01*
X003995Y040687D01*
X003937Y040665D01*
X003877Y040647D01*
X003817Y040632D01*
X003755Y040621D01*
X003693Y040614D01*
X003631Y040611D01*
X003568Y040612D01*
X003506Y040617D01*
X003444Y040626D01*
X003383Y040639D01*
X003323Y040655D01*
X003264Y040676D01*
X003206Y040700D01*
X003150Y040728D01*
X003096Y040759D01*
X003044Y040793D01*
X002995Y040831D01*
X002947Y040872D01*
X002903Y040916D01*
X002861Y040962D01*
X002823Y041012D01*
X002787Y041063D01*
X002755Y041117D01*
X002727Y041172D01*
X002701Y041229D01*
X002680Y041288D01*
X002663Y041348D01*
X002649Y041409D01*
X002639Y041470D01*
X002633Y041533D01*
X002631Y041595D01*
X042001Y041595D02*
X042003Y041657D01*
X042009Y041720D01*
X042019Y041781D01*
X042033Y041842D01*
X042050Y041902D01*
X042071Y041961D01*
X042097Y042018D01*
X042125Y042073D01*
X042157Y042127D01*
X042193Y042178D01*
X042231Y042228D01*
X042273Y042274D01*
X042317Y042318D01*
X042365Y042359D01*
X042414Y042397D01*
X042466Y042431D01*
X042520Y042462D01*
X042576Y042490D01*
X042634Y042514D01*
X042693Y042535D01*
X042753Y042551D01*
X042814Y042564D01*
X042876Y042573D01*
X042938Y042578D01*
X043001Y042579D01*
X043063Y042576D01*
X043125Y042569D01*
X043187Y042558D01*
X043247Y042543D01*
X043307Y042525D01*
X043365Y042503D01*
X043422Y042477D01*
X043477Y042447D01*
X043530Y042414D01*
X043581Y042378D01*
X043629Y042339D01*
X043675Y042296D01*
X043718Y042251D01*
X043758Y042203D01*
X043795Y042153D01*
X043829Y042100D01*
X043860Y042046D01*
X043886Y041990D01*
X043910Y041932D01*
X043929Y041872D01*
X043945Y041812D01*
X043957Y041750D01*
X043965Y041689D01*
X043969Y041626D01*
X043969Y041564D01*
X043965Y041501D01*
X043957Y041440D01*
X043945Y041378D01*
X043929Y041318D01*
X043910Y041258D01*
X043886Y041200D01*
X043860Y041144D01*
X043829Y041090D01*
X043795Y041037D01*
X043758Y040987D01*
X043718Y040939D01*
X043675Y040894D01*
X043629Y040851D01*
X043581Y040812D01*
X043530Y040776D01*
X043477Y040743D01*
X043422Y040713D01*
X043365Y040687D01*
X043307Y040665D01*
X043247Y040647D01*
X043187Y040632D01*
X043125Y040621D01*
X043063Y040614D01*
X043001Y040611D01*
X042938Y040612D01*
X042876Y040617D01*
X042814Y040626D01*
X042753Y040639D01*
X042693Y040655D01*
X042634Y040676D01*
X042576Y040700D01*
X042520Y040728D01*
X042466Y040759D01*
X042414Y040793D01*
X042365Y040831D01*
X042317Y040872D01*
X042273Y040916D01*
X042231Y040962D01*
X042193Y041012D01*
X042157Y041063D01*
X042125Y041117D01*
X042097Y041172D01*
X042071Y041229D01*
X042050Y041288D01*
X042033Y041348D01*
X042019Y041409D01*
X042009Y041470D01*
X042003Y041533D01*
X042001Y041595D01*
X042001Y003013D02*
X042003Y003075D01*
X042009Y003138D01*
X042019Y003199D01*
X042033Y003260D01*
X042050Y003320D01*
X042071Y003379D01*
X042097Y003436D01*
X042125Y003491D01*
X042157Y003545D01*
X042193Y003596D01*
X042231Y003646D01*
X042273Y003692D01*
X042317Y003736D01*
X042365Y003777D01*
X042414Y003815D01*
X042466Y003849D01*
X042520Y003880D01*
X042576Y003908D01*
X042634Y003932D01*
X042693Y003953D01*
X042753Y003969D01*
X042814Y003982D01*
X042876Y003991D01*
X042938Y003996D01*
X043001Y003997D01*
X043063Y003994D01*
X043125Y003987D01*
X043187Y003976D01*
X043247Y003961D01*
X043307Y003943D01*
X043365Y003921D01*
X043422Y003895D01*
X043477Y003865D01*
X043530Y003832D01*
X043581Y003796D01*
X043629Y003757D01*
X043675Y003714D01*
X043718Y003669D01*
X043758Y003621D01*
X043795Y003571D01*
X043829Y003518D01*
X043860Y003464D01*
X043886Y003408D01*
X043910Y003350D01*
X043929Y003290D01*
X043945Y003230D01*
X043957Y003168D01*
X043965Y003107D01*
X043969Y003044D01*
X043969Y002982D01*
X043965Y002919D01*
X043957Y002858D01*
X043945Y002796D01*
X043929Y002736D01*
X043910Y002676D01*
X043886Y002618D01*
X043860Y002562D01*
X043829Y002508D01*
X043795Y002455D01*
X043758Y002405D01*
X043718Y002357D01*
X043675Y002312D01*
X043629Y002269D01*
X043581Y002230D01*
X043530Y002194D01*
X043477Y002161D01*
X043422Y002131D01*
X043365Y002105D01*
X043307Y002083D01*
X043247Y002065D01*
X043187Y002050D01*
X043125Y002039D01*
X043063Y002032D01*
X043001Y002029D01*
X042938Y002030D01*
X042876Y002035D01*
X042814Y002044D01*
X042753Y002057D01*
X042693Y002073D01*
X042634Y002094D01*
X042576Y002118D01*
X042520Y002146D01*
X042466Y002177D01*
X042414Y002211D01*
X042365Y002249D01*
X042317Y002290D01*
X042273Y002334D01*
X042231Y002380D01*
X042193Y002430D01*
X042157Y002481D01*
X042125Y002535D01*
X042097Y002590D01*
X042071Y002647D01*
X042050Y002706D01*
X042033Y002766D01*
X042019Y002827D01*
X042009Y002888D01*
X042003Y002951D01*
X042001Y003013D01*
D11*
X042158Y013613D02*
X043024Y013613D01*
X043802Y014391D02*
X043802Y015257D01*
X043024Y016034D02*
X042158Y016034D01*
X041380Y015257D02*
X041380Y014391D01*
X041922Y014824D02*
X041924Y014875D01*
X041930Y014926D01*
X041940Y014976D01*
X041953Y015026D01*
X041971Y015074D01*
X041991Y015121D01*
X042016Y015166D01*
X042044Y015209D01*
X042075Y015250D01*
X042109Y015288D01*
X042146Y015323D01*
X042185Y015356D01*
X042227Y015386D01*
X042271Y015412D01*
X042317Y015434D01*
X042365Y015454D01*
X042414Y015469D01*
X042464Y015481D01*
X042514Y015489D01*
X042565Y015493D01*
X042617Y015493D01*
X042668Y015489D01*
X042718Y015481D01*
X042768Y015469D01*
X042817Y015454D01*
X042865Y015434D01*
X042911Y015412D01*
X042955Y015386D01*
X042997Y015356D01*
X043036Y015323D01*
X043073Y015288D01*
X043107Y015250D01*
X043138Y015209D01*
X043166Y015166D01*
X043191Y015121D01*
X043211Y015074D01*
X043229Y015026D01*
X043242Y014976D01*
X043252Y014926D01*
X043258Y014875D01*
X043260Y014824D01*
X043258Y014773D01*
X043252Y014722D01*
X043242Y014672D01*
X043229Y014622D01*
X043211Y014574D01*
X043191Y014527D01*
X043166Y014482D01*
X043138Y014439D01*
X043107Y014398D01*
X043073Y014360D01*
X043036Y014325D01*
X042997Y014292D01*
X042955Y014262D01*
X042911Y014236D01*
X042865Y014214D01*
X042817Y014194D01*
X042768Y014179D01*
X042718Y014167D01*
X042668Y014159D01*
X042617Y014155D01*
X042565Y014155D01*
X042514Y014159D01*
X042464Y014167D01*
X042414Y014179D01*
X042365Y014194D01*
X042317Y014214D01*
X042271Y014236D01*
X042227Y014262D01*
X042185Y014292D01*
X042146Y014325D01*
X042109Y014360D01*
X042075Y014398D01*
X042044Y014439D01*
X042016Y014482D01*
X041991Y014527D01*
X041971Y014574D01*
X041953Y014622D01*
X041940Y014672D01*
X041930Y014722D01*
X041924Y014773D01*
X041922Y014824D01*
X038300Y021557D02*
X038300Y022477D01*
X037686Y022477D02*
X038300Y021557D01*
X037686Y021557D02*
X037686Y022477D01*
X037379Y022324D02*
X037225Y022477D01*
X036918Y022477D01*
X036765Y022324D01*
X036765Y022170D01*
X036918Y022017D01*
X037225Y022017D01*
X037379Y021863D01*
X037379Y021710D01*
X037225Y021557D01*
X036918Y021557D01*
X036765Y021710D01*
X036458Y021557D02*
X036151Y021557D01*
X036304Y021557D02*
X036304Y022477D01*
X036151Y022477D02*
X036458Y022477D01*
X035844Y021557D02*
X035230Y021557D01*
X035230Y022477D01*
X033849Y022477D02*
X033849Y021557D01*
X033696Y021557D02*
X034003Y021557D01*
X033389Y021863D02*
X033389Y022017D01*
X033235Y022170D01*
X032928Y022170D01*
X032775Y022017D01*
X032775Y021710D01*
X032928Y021557D01*
X033235Y021557D01*
X033389Y021863D02*
X032775Y021863D01*
X032468Y022170D02*
X032161Y021557D01*
X031854Y022170D01*
X031547Y022017D02*
X031547Y021557D01*
X031087Y021557D01*
X030933Y021710D01*
X031087Y021863D01*
X031547Y021863D01*
X031547Y022017D02*
X031394Y022170D01*
X031087Y022170D01*
X030626Y022170D02*
X030473Y022170D01*
X030166Y021863D01*
X030166Y021557D02*
X030166Y022170D01*
X029859Y022477D02*
X029245Y022477D01*
X029552Y022477D02*
X029552Y021557D01*
X033696Y022477D02*
X033849Y022477D01*
X041380Y028957D02*
X041380Y029824D01*
X042158Y030601D02*
X043024Y030601D01*
X043802Y029824D02*
X043802Y028957D01*
X043024Y028180D02*
X042158Y028180D01*
X041922Y029391D02*
X041924Y029442D01*
X041930Y029493D01*
X041940Y029543D01*
X041953Y029593D01*
X041971Y029641D01*
X041991Y029688D01*
X042016Y029733D01*
X042044Y029776D01*
X042075Y029817D01*
X042109Y029855D01*
X042146Y029890D01*
X042185Y029923D01*
X042227Y029953D01*
X042271Y029979D01*
X042317Y030001D01*
X042365Y030021D01*
X042414Y030036D01*
X042464Y030048D01*
X042514Y030056D01*
X042565Y030060D01*
X042617Y030060D01*
X042668Y030056D01*
X042718Y030048D01*
X042768Y030036D01*
X042817Y030021D01*
X042865Y030001D01*
X042911Y029979D01*
X042955Y029953D01*
X042997Y029923D01*
X043036Y029890D01*
X043073Y029855D01*
X043107Y029817D01*
X043138Y029776D01*
X043166Y029733D01*
X043191Y029688D01*
X043211Y029641D01*
X043229Y029593D01*
X043242Y029543D01*
X043252Y029493D01*
X043258Y029442D01*
X043260Y029391D01*
X043258Y029340D01*
X043252Y029289D01*
X043242Y029239D01*
X043229Y029189D01*
X043211Y029141D01*
X043191Y029094D01*
X043166Y029049D01*
X043138Y029006D01*
X043107Y028965D01*
X043073Y028927D01*
X043036Y028892D01*
X042997Y028859D01*
X042955Y028829D01*
X042911Y028803D01*
X042865Y028781D01*
X042817Y028761D01*
X042768Y028746D01*
X042718Y028734D01*
X042668Y028726D01*
X042617Y028722D01*
X042565Y028722D01*
X042514Y028726D01*
X042464Y028734D01*
X042414Y028746D01*
X042365Y028761D01*
X042317Y028781D01*
X042271Y028803D01*
X042227Y028829D01*
X042185Y028859D01*
X042146Y028892D01*
X042109Y028927D01*
X042075Y028965D01*
X042044Y029006D01*
X042016Y029049D01*
X041991Y029094D01*
X041971Y029141D01*
X041953Y029189D01*
X041940Y029239D01*
X041930Y029289D01*
X041924Y029340D01*
X041922Y029391D01*
D12*
X037611Y026891D02*
X037276Y026891D01*
X036810Y026871D02*
X036812Y026901D01*
X036818Y026931D01*
X036828Y026959D01*
X036841Y026986D01*
X036858Y027011D01*
X036877Y027034D01*
X036900Y027053D01*
X036925Y027070D01*
X036952Y027083D01*
X036980Y027093D01*
X037010Y027099D01*
X037040Y027101D01*
X037070Y027099D01*
X037100Y027093D01*
X037128Y027083D01*
X037155Y027070D01*
X037180Y027053D01*
X037203Y027034D01*
X037222Y027011D01*
X037239Y026986D01*
X037252Y026959D01*
X037262Y026931D01*
X037268Y026901D01*
X037270Y026871D01*
X037268Y026841D01*
X037262Y026811D01*
X037252Y026783D01*
X037239Y026756D01*
X037222Y026731D01*
X037203Y026708D01*
X037180Y026689D01*
X037155Y026672D01*
X037128Y026659D01*
X037100Y026649D01*
X037070Y026643D01*
X037040Y026641D01*
X037010Y026643D01*
X036980Y026649D01*
X036952Y026659D01*
X036925Y026672D01*
X036900Y026689D01*
X036877Y026708D01*
X036858Y026731D01*
X036841Y026756D01*
X036828Y026783D01*
X036818Y026811D01*
X036812Y026841D01*
X036810Y026871D01*
X036784Y026891D02*
X029874Y026891D01*
X029894Y026280D02*
X030445Y026280D01*
X030485Y025690D02*
X029874Y025690D01*
X029874Y025080D02*
X030504Y025080D01*
X029874Y024469D02*
X036804Y024469D01*
X036810Y024469D02*
X036812Y024499D01*
X036818Y024529D01*
X036828Y024557D01*
X036841Y024584D01*
X036858Y024609D01*
X036877Y024632D01*
X036900Y024651D01*
X036925Y024668D01*
X036952Y024681D01*
X036980Y024691D01*
X037010Y024697D01*
X037040Y024699D01*
X037070Y024697D01*
X037100Y024691D01*
X037128Y024681D01*
X037155Y024668D01*
X037180Y024651D01*
X037203Y024632D01*
X037222Y024609D01*
X037239Y024584D01*
X037252Y024557D01*
X037262Y024529D01*
X037268Y024499D01*
X037270Y024469D01*
X037268Y024439D01*
X037262Y024409D01*
X037252Y024381D01*
X037239Y024354D01*
X037222Y024329D01*
X037203Y024306D01*
X037180Y024287D01*
X037155Y024270D01*
X037128Y024257D01*
X037100Y024247D01*
X037070Y024241D01*
X037040Y024239D01*
X037010Y024241D01*
X036980Y024247D01*
X036952Y024257D01*
X036925Y024270D01*
X036900Y024287D01*
X036877Y024306D01*
X036858Y024329D01*
X036841Y024354D01*
X036828Y024381D01*
X036818Y024409D01*
X036812Y024439D01*
X036810Y024469D01*
X037296Y024489D02*
X037630Y024489D01*
X037611Y025080D02*
X036390Y025080D01*
X035904Y025080D02*
X035906Y025110D01*
X035912Y025140D01*
X035922Y025168D01*
X035935Y025195D01*
X035952Y025220D01*
X035971Y025243D01*
X035994Y025262D01*
X036019Y025279D01*
X036046Y025292D01*
X036074Y025302D01*
X036104Y025308D01*
X036134Y025310D01*
X036164Y025308D01*
X036194Y025302D01*
X036222Y025292D01*
X036249Y025279D01*
X036274Y025262D01*
X036297Y025243D01*
X036316Y025220D01*
X036333Y025195D01*
X036346Y025168D01*
X036356Y025140D01*
X036362Y025110D01*
X036364Y025080D01*
X036362Y025050D01*
X036356Y025020D01*
X036346Y024992D01*
X036333Y024965D01*
X036316Y024940D01*
X036297Y024917D01*
X036274Y024898D01*
X036249Y024881D01*
X036222Y024868D01*
X036194Y024858D01*
X036164Y024852D01*
X036134Y024850D01*
X036104Y024852D01*
X036074Y024858D01*
X036046Y024868D01*
X036019Y024881D01*
X035994Y024898D01*
X035971Y024917D01*
X035952Y024940D01*
X035935Y024965D01*
X035922Y024992D01*
X035912Y025020D01*
X035906Y025050D01*
X035904Y025080D01*
X035898Y025099D02*
X034284Y025099D01*
X034619Y025690D02*
X036804Y025690D01*
X036810Y025690D02*
X036812Y025720D01*
X036818Y025750D01*
X036828Y025778D01*
X036841Y025805D01*
X036858Y025830D01*
X036877Y025853D01*
X036900Y025872D01*
X036925Y025889D01*
X036952Y025902D01*
X036980Y025912D01*
X037010Y025918D01*
X037040Y025920D01*
X037070Y025918D01*
X037100Y025912D01*
X037128Y025902D01*
X037155Y025889D01*
X037180Y025872D01*
X037203Y025853D01*
X037222Y025830D01*
X037239Y025805D01*
X037252Y025778D01*
X037262Y025750D01*
X037268Y025720D01*
X037270Y025690D01*
X037268Y025660D01*
X037262Y025630D01*
X037252Y025602D01*
X037239Y025575D01*
X037222Y025550D01*
X037203Y025527D01*
X037180Y025508D01*
X037155Y025491D01*
X037128Y025478D01*
X037100Y025468D01*
X037070Y025462D01*
X037040Y025460D01*
X037010Y025462D01*
X036980Y025468D01*
X036952Y025478D01*
X036925Y025491D01*
X036900Y025508D01*
X036877Y025527D01*
X036858Y025550D01*
X036841Y025575D01*
X036828Y025602D01*
X036818Y025630D01*
X036812Y025660D01*
X036810Y025690D01*
X037276Y025690D02*
X037630Y025690D01*
X037630Y026280D02*
X036390Y026280D01*
X035904Y026300D02*
X035906Y026330D01*
X035912Y026360D01*
X035922Y026388D01*
X035935Y026415D01*
X035952Y026440D01*
X035971Y026463D01*
X035994Y026482D01*
X036019Y026499D01*
X036046Y026512D01*
X036074Y026522D01*
X036104Y026528D01*
X036134Y026530D01*
X036164Y026528D01*
X036194Y026522D01*
X036222Y026512D01*
X036249Y026499D01*
X036274Y026482D01*
X036297Y026463D01*
X036316Y026440D01*
X036333Y026415D01*
X036346Y026388D01*
X036356Y026360D01*
X036362Y026330D01*
X036364Y026300D01*
X036362Y026270D01*
X036356Y026240D01*
X036346Y026212D01*
X036333Y026185D01*
X036316Y026160D01*
X036297Y026137D01*
X036274Y026118D01*
X036249Y026101D01*
X036222Y026088D01*
X036194Y026078D01*
X036164Y026072D01*
X036134Y026070D01*
X036104Y026072D01*
X036074Y026078D01*
X036046Y026088D01*
X036019Y026101D01*
X035994Y026118D01*
X035971Y026137D01*
X035952Y026160D01*
X035935Y026185D01*
X035922Y026212D01*
X035912Y026240D01*
X035906Y026270D01*
X035904Y026300D01*
X035918Y026280D02*
X034993Y026280D01*
D13*
X034794Y026378D02*
X033374Y026378D01*
X033408Y026435D02*
X034828Y026435D01*
X034862Y026493D02*
X033443Y026493D01*
X033477Y026550D02*
X034896Y026550D01*
X034930Y026608D02*
X033512Y026608D01*
X033546Y026665D02*
X034964Y026665D01*
X034993Y026713D02*
X033575Y026713D01*
X032335Y024646D01*
X033772Y024646D01*
X034048Y025080D01*
X033122Y025080D01*
X033359Y025493D01*
X034264Y025493D01*
X034520Y025926D01*
X033615Y025926D01*
X033831Y026280D01*
X034737Y026280D01*
X034993Y026713D01*
X034760Y026320D02*
X033339Y026320D01*
X033305Y026263D02*
X033820Y026263D01*
X033785Y026205D02*
X033270Y026205D01*
X033236Y026147D02*
X033750Y026147D01*
X033715Y026090D02*
X033201Y026090D01*
X033167Y026032D02*
X033680Y026032D01*
X033644Y025975D02*
X033132Y025975D01*
X033097Y025917D02*
X034515Y025917D01*
X034481Y025860D02*
X033063Y025860D01*
X033028Y025802D02*
X034447Y025802D01*
X034413Y025745D02*
X032994Y025745D01*
X032959Y025687D02*
X034379Y025687D01*
X034345Y025629D02*
X032925Y025629D01*
X032890Y025572D02*
X034311Y025572D01*
X034277Y025514D02*
X032856Y025514D01*
X032821Y025457D02*
X033338Y025457D01*
X033305Y025399D02*
X032787Y025399D01*
X032752Y025342D02*
X033272Y025342D01*
X033239Y025284D02*
X032718Y025284D01*
X032683Y025227D02*
X033206Y025227D01*
X033174Y025169D02*
X032649Y025169D01*
X032614Y025111D02*
X033141Y025111D01*
X032579Y025054D02*
X034031Y025054D01*
X033995Y024996D02*
X032545Y024996D01*
X032510Y024939D02*
X033958Y024939D01*
X033921Y024881D02*
X032476Y024881D01*
X032441Y024824D02*
X033885Y024824D01*
X033848Y024766D02*
X032407Y024766D01*
X032372Y024709D02*
X033812Y024709D01*
X033775Y024651D02*
X032338Y024651D01*
X032130Y024766D02*
X031572Y024766D01*
X031579Y024709D02*
X032096Y024709D01*
X032062Y024651D02*
X031586Y024651D01*
X031587Y024646D02*
X032059Y024646D01*
X033280Y026713D01*
X032788Y026713D01*
X032079Y025532D01*
X031981Y025926D01*
X031489Y025926D01*
X031174Y025532D01*
X031115Y026713D01*
X030662Y026713D01*
X030780Y024646D01*
X031213Y024646D01*
X031528Y025119D01*
X031587Y024646D01*
X031565Y024824D02*
X032164Y024824D01*
X032198Y024881D02*
X031558Y024881D01*
X031550Y024939D02*
X032232Y024939D01*
X032266Y024996D02*
X031543Y024996D01*
X031536Y025054D02*
X032300Y025054D01*
X032334Y025111D02*
X031529Y025111D01*
X031523Y025111D02*
X030753Y025111D01*
X030757Y025054D02*
X031485Y025054D01*
X031446Y024996D02*
X030760Y024996D01*
X030763Y024939D02*
X031408Y024939D01*
X031369Y024881D02*
X030767Y024881D01*
X030770Y024824D02*
X031331Y024824D01*
X031293Y024766D02*
X030773Y024766D01*
X030776Y024709D02*
X031254Y024709D01*
X031216Y024651D02*
X030780Y024651D01*
X030750Y025169D02*
X032368Y025169D01*
X032402Y025227D02*
X030747Y025227D01*
X030743Y025284D02*
X032436Y025284D01*
X032470Y025342D02*
X030740Y025342D01*
X030737Y025399D02*
X032504Y025399D01*
X032538Y025457D02*
X030734Y025457D01*
X030730Y025514D02*
X032572Y025514D01*
X032606Y025572D02*
X032103Y025572D01*
X032069Y025572D02*
X031205Y025572D01*
X031172Y025572D02*
X030727Y025572D01*
X030724Y025629D02*
X031169Y025629D01*
X031166Y025687D02*
X030720Y025687D01*
X030717Y025745D02*
X031163Y025745D01*
X031160Y025802D02*
X030714Y025802D01*
X030711Y025860D02*
X031157Y025860D01*
X031154Y025917D02*
X030707Y025917D01*
X030704Y025975D02*
X031151Y025975D01*
X031149Y026032D02*
X030701Y026032D01*
X030697Y026090D02*
X031146Y026090D01*
X031143Y026147D02*
X030694Y026147D01*
X030691Y026205D02*
X031140Y026205D01*
X031137Y026263D02*
X030688Y026263D01*
X030684Y026320D02*
X031134Y026320D01*
X031131Y026378D02*
X030681Y026378D01*
X030678Y026435D02*
X031128Y026435D01*
X031126Y026493D02*
X030674Y026493D01*
X030671Y026550D02*
X031123Y026550D01*
X031120Y026608D02*
X030668Y026608D01*
X030665Y026665D02*
X031117Y026665D01*
X031482Y025917D02*
X031983Y025917D01*
X031997Y025860D02*
X031436Y025860D01*
X031389Y025802D02*
X032012Y025802D01*
X032026Y025745D02*
X031343Y025745D01*
X031297Y025687D02*
X032040Y025687D01*
X032055Y025629D02*
X031251Y025629D01*
X032137Y025629D02*
X032640Y025629D01*
X032674Y025687D02*
X032172Y025687D01*
X032206Y025745D02*
X032708Y025745D01*
X032742Y025802D02*
X032241Y025802D01*
X032276Y025860D02*
X032776Y025860D01*
X032810Y025917D02*
X032310Y025917D01*
X032345Y025975D02*
X032844Y025975D01*
X032878Y026032D02*
X032379Y026032D01*
X032414Y026090D02*
X032912Y026090D01*
X032946Y026147D02*
X032448Y026147D01*
X032483Y026205D02*
X032980Y026205D01*
X033014Y026263D02*
X032517Y026263D01*
X032552Y026320D02*
X033048Y026320D01*
X033082Y026378D02*
X032586Y026378D01*
X032621Y026435D02*
X033116Y026435D01*
X033150Y026493D02*
X032655Y026493D01*
X032690Y026550D02*
X033184Y026550D01*
X033218Y026608D02*
X032724Y026608D01*
X032759Y026665D02*
X033252Y026665D01*
D14*
X033282Y024088D02*
X033282Y023658D01*
X033569Y023658D01*
X033742Y023658D02*
X034029Y023658D01*
X034203Y023658D02*
X034490Y023658D01*
X034663Y023658D02*
X034663Y024088D01*
X034490Y024088D02*
X034203Y024088D01*
X034203Y023658D01*
X034203Y023873D02*
X034346Y023873D01*
X034663Y023801D02*
X034950Y024088D01*
X035124Y024088D02*
X035410Y024088D01*
X035267Y024088D02*
X035267Y023658D01*
X034950Y023658D02*
X034735Y023873D01*
X035584Y023801D02*
X035799Y023801D01*
X035871Y023873D01*
X035871Y024016D01*
X035799Y024088D01*
X035584Y024088D01*
X035584Y023658D01*
X035727Y023801D02*
X035871Y023658D01*
X036044Y023730D02*
X036116Y023658D01*
X036260Y023658D01*
X036331Y023730D01*
X036331Y024016D01*
X036260Y024088D01*
X036116Y024088D01*
X036044Y024016D01*
X036044Y023730D01*
X036505Y023658D02*
X036505Y024088D01*
X036792Y023658D01*
X036792Y024088D01*
X036965Y024088D02*
X037109Y024088D01*
X037037Y024088D02*
X037037Y023658D01*
X036965Y023658D02*
X037109Y023658D01*
X037272Y023658D02*
X037272Y024088D01*
X037344Y023873D02*
X037559Y023658D01*
X037272Y023801D02*
X037559Y024088D01*
X033742Y024088D02*
X033742Y023658D01*
X033425Y023873D02*
X033282Y023873D01*
X033282Y024088D02*
X033569Y024088D01*
X032648Y024088D02*
X032648Y023658D01*
X032648Y023873D02*
X032361Y023873D01*
X032361Y023658D02*
X032361Y024088D01*
X032188Y024088D02*
X031901Y024088D01*
X032044Y024088D02*
X032044Y023658D01*
X031727Y023658D02*
X031584Y023801D01*
X031656Y023801D02*
X031440Y023801D01*
X031440Y023658D02*
X031440Y024088D01*
X031656Y024088D01*
X031727Y024016D01*
X031727Y023873D01*
X031656Y023801D01*
X031267Y023730D02*
X031267Y024088D01*
X030980Y024088D02*
X030980Y023730D01*
X031052Y023658D01*
X031195Y023658D01*
X031267Y023730D01*
X030807Y023658D02*
X030807Y024088D01*
X030520Y024088D02*
X030520Y023658D01*
X030663Y023801D01*
X030807Y023658D01*
D15*
X033733Y018564D02*
X035307Y015808D01*
X032158Y015808D01*
X033733Y018564D01*
X033733Y017776D02*
X033890Y017776D01*
X033496Y016989D01*
X034048Y016989D01*
X033811Y016517D01*
X033733Y016517D01*
X033654Y016202D01*
X033969Y016517D01*
X033811Y016517D02*
X033733Y016359D01*
X033496Y016989D02*
X033418Y016989D01*
X033733Y017776D01*
D16*
X033811Y016595D02*
X033654Y016595D01*
X033575Y016044D01*
X034126Y016595D01*
X033890Y016595D01*
D17*
X034011Y019097D02*
X033691Y019097D01*
X033798Y019310D02*
X033691Y019417D01*
X033798Y019524D01*
X034118Y019524D01*
X034336Y019524D02*
X034442Y019524D01*
X034442Y019097D01*
X034336Y019097D02*
X034549Y019097D01*
X034765Y019203D02*
X034765Y019417D01*
X034872Y019524D01*
X035085Y019524D01*
X035192Y019417D01*
X035192Y019203D01*
X035085Y019097D01*
X034872Y019097D01*
X034765Y019203D01*
X034442Y019737D02*
X034442Y019844D01*
X034818Y020147D02*
X034711Y020253D01*
X034711Y020681D01*
X034604Y020574D02*
X034818Y020574D01*
X035034Y020574D02*
X035034Y020147D01*
X035034Y020360D02*
X035247Y020574D01*
X035354Y020574D01*
X035678Y020574D02*
X035891Y020574D01*
X035998Y020467D01*
X035998Y020147D01*
X035678Y020147D01*
X035571Y020253D01*
X035678Y020360D01*
X035998Y020360D01*
X036215Y020147D02*
X036429Y020147D01*
X036322Y020147D02*
X036322Y020574D01*
X036215Y020574D01*
X036322Y020787D02*
X036322Y020894D01*
X036645Y020574D02*
X036965Y020574D01*
X037072Y020467D01*
X037072Y020147D01*
X037290Y020253D02*
X037290Y020467D01*
X037396Y020574D01*
X037610Y020574D01*
X037717Y020467D01*
X037717Y020360D01*
X037290Y020360D01*
X037290Y020253D02*
X037396Y020147D01*
X037610Y020147D01*
X037934Y020253D02*
X037934Y020467D01*
X038041Y020574D01*
X038361Y020574D01*
X038361Y020787D02*
X038361Y020147D01*
X038041Y020147D01*
X037934Y020253D01*
X037556Y019524D02*
X037235Y019524D01*
X037129Y019417D01*
X037235Y019310D01*
X037449Y019310D01*
X037556Y019203D01*
X037449Y019097D01*
X037129Y019097D01*
X036912Y019097D02*
X036699Y019097D01*
X036806Y019097D02*
X036806Y019737D01*
X036699Y019737D01*
X036481Y019417D02*
X036481Y019097D01*
X036161Y019097D01*
X036054Y019203D01*
X036161Y019310D01*
X036481Y019310D01*
X036481Y019417D02*
X036375Y019524D01*
X036161Y019524D01*
X035837Y019417D02*
X035837Y019097D01*
X035837Y019417D02*
X035730Y019524D01*
X035410Y019524D01*
X035410Y019097D01*
X036645Y020147D02*
X036645Y020574D01*
X034118Y019203D02*
X034011Y019310D01*
X033798Y019310D01*
X034011Y019097D02*
X034118Y019203D01*
X033473Y019203D02*
X033367Y019310D01*
X033153Y019310D01*
X033046Y019417D01*
X033153Y019524D01*
X033473Y019524D01*
X033473Y019203D02*
X033367Y019097D01*
X033046Y019097D01*
X032829Y019310D02*
X032402Y019310D01*
X032402Y019203D02*
X032402Y019417D01*
X032509Y019524D01*
X032722Y019524D01*
X032829Y019417D01*
X032829Y019310D01*
X032722Y019097D02*
X032509Y019097D01*
X032402Y019203D01*
X032186Y019417D02*
X031972Y019417D01*
X031755Y019417D02*
X031648Y019524D01*
X031434Y019524D01*
X031328Y019417D01*
X031328Y019203D01*
X031434Y019097D01*
X031648Y019097D01*
X031755Y019203D01*
X031755Y019417D01*
X032079Y019631D02*
X032186Y019737D01*
X032079Y019631D02*
X032079Y019097D01*
X031111Y019524D02*
X031004Y019524D01*
X030790Y019310D01*
X030790Y019097D02*
X030790Y019524D01*
X030573Y019417D02*
X030573Y019203D01*
X030466Y019097D01*
X030146Y019097D01*
X030146Y018883D02*
X030146Y019524D01*
X030466Y019524D01*
X030573Y019417D01*
X030629Y020147D02*
X030843Y020147D01*
X030736Y020147D02*
X030736Y020787D01*
X030629Y020787D01*
X030412Y020467D02*
X030412Y020147D01*
X030412Y020467D02*
X030305Y020574D01*
X029985Y020574D01*
X029985Y020147D01*
X029767Y020253D02*
X029767Y020467D01*
X029661Y020574D01*
X029447Y020574D01*
X029340Y020467D01*
X029340Y020253D01*
X029447Y020147D01*
X029661Y020147D01*
X029767Y020253D01*
X031059Y020253D02*
X031166Y020147D01*
X031486Y020147D01*
X031486Y020040D02*
X031379Y019933D01*
X031273Y019933D01*
X031486Y020040D02*
X031486Y020574D01*
X031059Y020574D02*
X031059Y020253D01*
X032348Y020467D02*
X032562Y020467D01*
X032778Y020467D02*
X032778Y020253D01*
X032885Y020147D01*
X033098Y020147D01*
X033205Y020253D01*
X033205Y020467D01*
X033098Y020574D01*
X032885Y020574D01*
X032778Y020467D01*
X032562Y020787D02*
X032455Y020681D01*
X032455Y020147D01*
X033422Y020147D02*
X033422Y020574D01*
X033422Y020360D02*
X033636Y020574D01*
X033743Y020574D01*
D18*
X035210Y018312D02*
X035535Y018312D01*
X035644Y018204D01*
X035644Y017987D01*
X035535Y017879D01*
X035210Y017879D01*
X035427Y017879D02*
X035644Y017662D01*
X035910Y017662D02*
X035910Y018312D01*
X036343Y018312D01*
X036610Y018312D02*
X036610Y017879D01*
X036826Y017662D01*
X037043Y017879D01*
X037043Y018312D01*
X036343Y017662D02*
X035910Y017662D01*
X035910Y017987D02*
X036127Y017987D01*
X035210Y017662D02*
X035210Y018312D01*
X038009Y018096D02*
X038226Y018312D01*
X038443Y018096D01*
X038443Y017662D01*
X038443Y017987D02*
X038009Y017987D01*
X038009Y018096D02*
X038009Y017662D01*
X040441Y021257D02*
X040835Y021847D01*
X041086Y021552D02*
X041479Y021552D01*
X041730Y021749D02*
X041730Y021355D01*
X041829Y021257D01*
X042026Y021257D01*
X042124Y021355D01*
X042124Y021552D01*
X041927Y021552D01*
X041730Y021749D02*
X041829Y021847D01*
X042026Y021847D01*
X042124Y021749D01*
X042375Y021847D02*
X042375Y021257D01*
X042375Y021453D02*
X042670Y021453D01*
X042769Y021552D01*
X042769Y021749D01*
X042670Y021847D01*
X042375Y021847D01*
X042572Y021453D02*
X042769Y021257D01*
X043019Y021257D02*
X043019Y021847D01*
X043315Y021847D01*
X043413Y021749D01*
X043413Y021552D01*
X043315Y021453D01*
X043019Y021453D01*
X043664Y021257D02*
X044058Y021650D01*
X044058Y021749D01*
X043959Y021847D01*
X043762Y021847D01*
X043664Y021749D01*
X043664Y021257D02*
X044058Y021257D01*
X040835Y021257D02*
X040441Y021847D01*
X040441Y026768D02*
X040835Y027359D01*
X041086Y027064D02*
X041479Y027064D01*
X041730Y027260D02*
X041730Y026867D01*
X041829Y026768D01*
X042026Y026768D01*
X042124Y026867D01*
X042124Y027064D01*
X041927Y027064D01*
X041730Y027260D02*
X041829Y027359D01*
X042026Y027359D01*
X042124Y027260D01*
X042375Y027359D02*
X042375Y026768D01*
X042375Y026965D02*
X042670Y026965D01*
X042769Y027064D01*
X042769Y027260D01*
X042670Y027359D01*
X042375Y027359D01*
X042572Y026965D02*
X042769Y026768D01*
X043019Y026768D02*
X043019Y027359D01*
X043315Y027359D01*
X043413Y027260D01*
X043413Y027064D01*
X043315Y026965D01*
X043019Y026965D01*
X040835Y026768D02*
X040441Y027359D01*
X038280Y028658D02*
X037887Y028658D01*
X038084Y028658D02*
X038084Y029249D01*
X037887Y029052D01*
X037636Y029249D02*
X037242Y029249D01*
X037439Y029249D02*
X037439Y028658D01*
X036991Y028757D02*
X036991Y029150D01*
X036893Y029249D01*
X036696Y029249D01*
X036598Y029150D01*
X036598Y028757D01*
X036696Y028658D01*
X036893Y028658D01*
X036991Y028757D01*
X036347Y028757D02*
X036248Y028658D01*
X036051Y028658D01*
X035953Y028757D01*
X035953Y029150D01*
X036051Y029249D01*
X036248Y029249D01*
X036347Y029150D01*
X035131Y029150D02*
X035131Y029052D01*
X035032Y028953D01*
X035131Y028855D01*
X035131Y028757D01*
X035032Y028658D01*
X034835Y028658D01*
X034737Y028757D01*
X034934Y028953D02*
X035032Y028953D01*
X035131Y029150D02*
X035032Y029249D01*
X034835Y029249D01*
X034737Y029150D01*
X034486Y029249D02*
X034093Y029249D01*
X034289Y029249D02*
X034289Y028658D01*
X033842Y028757D02*
X033842Y029150D01*
X033743Y029249D01*
X033546Y029249D01*
X033448Y029150D01*
X033448Y028757D01*
X033546Y028658D01*
X033743Y028658D01*
X033842Y028757D01*
X033197Y028757D02*
X033099Y028658D01*
X032902Y028658D01*
X032803Y028757D01*
X032803Y029150D01*
X032902Y029249D01*
X033099Y029249D01*
X033197Y029150D01*
X031981Y029150D02*
X031883Y029249D01*
X031686Y029249D01*
X031587Y029150D01*
X031337Y029249D02*
X030943Y029249D01*
X031140Y029249D02*
X031140Y028658D01*
X031587Y028658D02*
X031981Y029052D01*
X031981Y029150D01*
X031981Y028658D02*
X031587Y028658D01*
X030692Y028757D02*
X030692Y029150D01*
X030594Y029249D01*
X030397Y029249D01*
X030298Y029150D01*
X030298Y028757D01*
X030397Y028658D01*
X030594Y028658D01*
X030692Y028757D01*
X030047Y028757D02*
X029949Y028658D01*
X029752Y028658D01*
X029654Y028757D01*
X029654Y029150D01*
X029752Y029249D01*
X029949Y029249D01*
X030047Y029150D01*
X027655Y034957D02*
X027261Y034957D01*
X027458Y034957D02*
X027458Y035548D01*
X027261Y035351D01*
X027010Y035548D02*
X026617Y035548D01*
X026814Y035548D02*
X026814Y034957D01*
X026366Y034957D02*
X026366Y035548D01*
X025972Y035548D02*
X025972Y034957D01*
X025739Y034957D02*
X025542Y034957D01*
X025641Y034957D02*
X025641Y035548D01*
X025739Y035548D02*
X025542Y035548D01*
X025292Y035449D02*
X025193Y035548D01*
X024996Y035548D01*
X024898Y035449D01*
X024898Y035056D01*
X024996Y034957D01*
X025193Y034957D01*
X025292Y035056D01*
X025972Y035548D02*
X026366Y034957D01*
X024285Y035931D02*
X024285Y036324D01*
X024186Y036423D01*
X023990Y036423D01*
X023891Y036324D01*
X023891Y036226D01*
X023990Y036127D01*
X024285Y036127D01*
X024285Y035931D02*
X024186Y035832D01*
X023990Y035832D01*
X023891Y035931D01*
X023640Y035832D02*
X023443Y036029D01*
X023542Y036029D02*
X023247Y036029D01*
X023247Y035832D02*
X023247Y036423D01*
X023542Y036423D01*
X023640Y036324D01*
X023640Y036127D01*
X023542Y036029D01*
X022075Y037713D02*
X021878Y037713D01*
X021780Y037812D01*
X021780Y037910D01*
X021878Y038009D01*
X022075Y038009D01*
X022173Y037910D01*
X022173Y037812D01*
X022075Y037713D01*
X022075Y038009D02*
X022173Y038107D01*
X022173Y038205D01*
X022075Y038304D01*
X021878Y038304D01*
X021780Y038205D01*
X021780Y038107D01*
X021878Y038009D01*
X021529Y037713D02*
X021135Y037713D01*
X021135Y038304D01*
X021060Y035548D02*
X021257Y035548D01*
X021356Y035449D01*
X021356Y035351D01*
X021257Y035253D01*
X021356Y035154D01*
X021356Y035056D01*
X021257Y034957D01*
X021060Y034957D01*
X020962Y035056D01*
X021159Y035253D02*
X021257Y035253D01*
X020962Y035449D02*
X021060Y035548D01*
X020711Y035548D02*
X020318Y035548D01*
X020514Y035548D02*
X020514Y034957D01*
X020067Y034957D02*
X020067Y035548D01*
X019673Y035548D02*
X019673Y034957D01*
X019440Y034957D02*
X019243Y034957D01*
X019342Y034957D02*
X019342Y035548D01*
X019440Y035548D02*
X019243Y035548D01*
X018992Y035449D02*
X018894Y035548D01*
X018697Y035548D01*
X018599Y035449D01*
X018599Y035056D01*
X018697Y034957D01*
X018894Y034957D01*
X018992Y035056D01*
X019673Y035548D02*
X020067Y034957D01*
X017986Y035931D02*
X017887Y035832D01*
X017690Y035832D01*
X017592Y035931D01*
X017592Y036029D01*
X017690Y036127D01*
X017887Y036127D01*
X017986Y036029D01*
X017986Y035931D01*
X017887Y036127D02*
X017986Y036226D01*
X017986Y036324D01*
X017887Y036423D01*
X017690Y036423D01*
X017592Y036324D01*
X017592Y036226D01*
X017690Y036127D01*
X017341Y036127D02*
X017341Y036324D01*
X017243Y036423D01*
X016947Y036423D01*
X016947Y035832D01*
X016947Y036029D02*
X017243Y036029D01*
X017341Y036127D01*
X017144Y036029D02*
X017341Y035832D01*
X016268Y037713D02*
X016268Y037812D01*
X016662Y038205D01*
X016662Y038304D01*
X016268Y038304D01*
X016017Y037713D02*
X015623Y037713D01*
X015623Y038304D01*
X012474Y036423D02*
X012474Y036324D01*
X012080Y035931D01*
X012080Y035832D01*
X011829Y035832D02*
X011632Y036029D01*
X011731Y036029D02*
X011436Y036029D01*
X011436Y035832D02*
X011436Y036423D01*
X011731Y036423D01*
X011829Y036324D01*
X011829Y036127D01*
X011731Y036029D01*
X012080Y036423D02*
X012474Y036423D01*
X011119Y035449D02*
X011021Y035548D01*
X010824Y035548D01*
X010726Y035449D01*
X010475Y035548D02*
X010081Y035548D01*
X010278Y035548D02*
X010278Y034957D01*
X009830Y034957D02*
X009830Y035548D01*
X009437Y035548D02*
X009437Y034957D01*
X009204Y034957D02*
X009007Y034957D01*
X009105Y034957D02*
X009105Y035548D01*
X009007Y035548D02*
X009204Y035548D01*
X009437Y035548D02*
X009830Y034957D01*
X010726Y034957D02*
X011119Y035351D01*
X011119Y035449D01*
X011119Y034957D02*
X010726Y034957D01*
X008756Y035056D02*
X008658Y034957D01*
X008461Y034957D01*
X008362Y035056D01*
X008362Y035449D01*
X008461Y035548D01*
X008658Y035548D01*
X008756Y035449D01*
X009324Y037713D02*
X009718Y037713D01*
X009969Y037812D02*
X010067Y037713D01*
X010264Y037713D01*
X010362Y037812D01*
X010362Y037910D01*
X010264Y038009D01*
X009969Y038009D01*
X009969Y037812D01*
X009969Y038009D02*
X010166Y038205D01*
X010362Y038304D01*
X009324Y038304D02*
X009324Y037713D01*
X006441Y034839D02*
X006441Y034249D01*
X006048Y034839D01*
X006048Y034249D01*
X005815Y034249D02*
X005618Y034249D01*
X005716Y034249D02*
X005716Y034839D01*
X005618Y034839D02*
X005815Y034839D01*
X005170Y034839D02*
X005170Y034249D01*
X004973Y034249D02*
X005367Y034249D01*
X004973Y034642D02*
X005170Y034839D01*
X004722Y034249D02*
X004329Y034249D01*
X004329Y034839D01*
X004078Y034544D02*
X003684Y034544D01*
X003433Y034839D02*
X003040Y034249D01*
X003433Y034249D02*
X003040Y034839D01*
X002935Y031328D02*
X002935Y030934D01*
X002935Y031131D02*
X002344Y031131D01*
X002541Y030934D01*
X002344Y030683D02*
X002344Y030289D01*
X002344Y030486D02*
X002935Y030486D01*
X002935Y030038D02*
X002344Y030038D01*
X002344Y029645D02*
X002935Y030038D01*
X002935Y029645D02*
X002344Y029645D01*
X002344Y029412D02*
X002344Y029215D01*
X002344Y029314D02*
X002935Y029314D01*
X002935Y029412D02*
X002935Y029215D01*
X002935Y028964D02*
X002738Y028767D01*
X002738Y028866D02*
X002738Y028571D01*
X002935Y028571D02*
X002344Y028571D01*
X002344Y028866D01*
X002442Y028964D01*
X002639Y028964D01*
X002738Y028866D01*
X004706Y028866D02*
X004706Y028571D01*
X005297Y028571D01*
X005100Y028571D02*
X005100Y028866D01*
X005002Y028964D01*
X004805Y028964D01*
X004706Y028866D01*
X004706Y029215D02*
X004706Y029412D01*
X004706Y029314D02*
X005297Y029314D01*
X005297Y029412D02*
X005297Y029215D01*
X005297Y028964D02*
X005100Y028767D01*
X005297Y029645D02*
X004706Y029645D01*
X005297Y030038D01*
X004706Y030038D01*
X004706Y030289D02*
X004706Y030683D01*
X004706Y030486D02*
X005297Y030486D01*
X005297Y030934D02*
X004903Y031328D01*
X004805Y031328D01*
X004706Y031229D01*
X004706Y031032D01*
X004805Y030934D01*
X005297Y030934D02*
X005297Y031328D01*
X007291Y023132D02*
X007291Y022738D01*
X007882Y022738D01*
X007882Y023132D01*
X007586Y022935D02*
X007586Y022738D01*
X007586Y022487D02*
X007685Y022389D01*
X007685Y022093D01*
X007882Y022093D02*
X007291Y022093D01*
X007291Y022389D01*
X007390Y022487D01*
X007586Y022487D01*
X007586Y021843D02*
X007586Y021449D01*
X007291Y021198D02*
X007882Y020804D01*
X007882Y021198D02*
X007291Y020804D01*
X005297Y015580D02*
X005297Y015186D01*
X005297Y015383D02*
X004706Y015383D01*
X004903Y015186D01*
X004903Y014935D02*
X005002Y014837D01*
X005002Y014541D01*
X005297Y014541D02*
X004706Y014541D01*
X004706Y014837D01*
X004805Y014935D01*
X004903Y014935D01*
X005002Y014837D02*
X005100Y014935D01*
X005198Y014935D01*
X005297Y014837D01*
X005297Y014541D01*
X005297Y014290D02*
X004706Y014290D01*
X004706Y013897D02*
X005297Y014290D01*
X005297Y013897D02*
X004706Y013897D01*
X004706Y013664D02*
X004706Y013467D01*
X004706Y013565D02*
X005297Y013565D01*
X005297Y013467D02*
X005297Y013664D01*
X005297Y013216D02*
X005100Y013019D01*
X005100Y013118D02*
X005100Y012823D01*
X005297Y012823D02*
X004706Y012823D01*
X004706Y013118D01*
X004805Y013216D01*
X005002Y013216D01*
X005100Y013118D01*
X002935Y013216D02*
X002738Y013019D01*
X002738Y013118D02*
X002738Y012823D01*
X002935Y012823D02*
X002344Y012823D01*
X002344Y013118D01*
X002442Y013216D01*
X002639Y013216D01*
X002738Y013118D01*
X002935Y013467D02*
X002935Y013664D01*
X002935Y013565D02*
X002344Y013565D01*
X002344Y013467D02*
X002344Y013664D01*
X002344Y013897D02*
X002935Y014290D01*
X002344Y014290D01*
X002344Y014541D02*
X002344Y014837D01*
X002442Y014935D01*
X002541Y014935D01*
X002639Y014837D01*
X002639Y014541D01*
X002344Y014541D02*
X002935Y014541D01*
X002935Y014837D01*
X002836Y014935D01*
X002738Y014935D01*
X002639Y014837D01*
X002442Y015186D02*
X002344Y015284D01*
X002344Y015481D01*
X002442Y015580D01*
X002541Y015580D01*
X002935Y015186D01*
X002935Y015580D01*
X002935Y013897D02*
X002344Y013897D01*
X002646Y009642D02*
X003040Y009052D01*
X003290Y009347D02*
X003684Y009347D01*
X003935Y009052D02*
X004329Y009052D01*
X004580Y009052D02*
X004973Y009446D01*
X004973Y009544D01*
X004875Y009642D01*
X004678Y009642D01*
X004580Y009544D01*
X004580Y009052D02*
X004973Y009052D01*
X005224Y009052D02*
X005421Y009052D01*
X005323Y009052D02*
X005323Y009642D01*
X005421Y009642D02*
X005224Y009642D01*
X005654Y009642D02*
X006048Y009052D01*
X006048Y009642D01*
X005654Y009642D02*
X005654Y009052D01*
X003935Y009052D02*
X003935Y009642D01*
X003040Y009642D02*
X002646Y009052D01*
X008756Y008678D02*
X008756Y008284D01*
X008855Y008186D01*
X009051Y008186D01*
X009150Y008284D01*
X009401Y008186D02*
X009598Y008186D01*
X009499Y008186D02*
X009499Y008776D01*
X009401Y008776D02*
X009598Y008776D01*
X009830Y008776D02*
X009830Y008186D01*
X010224Y008186D02*
X009830Y008776D01*
X010224Y008776D02*
X010224Y008186D01*
X010475Y008186D02*
X010770Y008186D01*
X010869Y008284D01*
X010869Y008383D01*
X010770Y008481D01*
X010475Y008481D01*
X010475Y008776D02*
X010770Y008776D01*
X010869Y008678D01*
X010869Y008579D01*
X010770Y008481D01*
X011120Y008579D02*
X011316Y008776D01*
X011316Y008186D01*
X011120Y008186D02*
X011513Y008186D01*
X011898Y008345D02*
X012194Y008345D01*
X012292Y008246D01*
X012292Y008050D01*
X012194Y007951D01*
X011898Y007951D01*
X011898Y007754D02*
X011898Y008345D01*
X012095Y007951D02*
X012292Y007754D01*
X012543Y007754D02*
X012937Y007754D01*
X012740Y007754D02*
X012740Y008345D01*
X012543Y008148D01*
X013187Y008246D02*
X013286Y008345D01*
X013483Y008345D01*
X013581Y008246D01*
X013581Y008148D01*
X013187Y007754D01*
X013581Y007754D01*
X015174Y006474D02*
X015174Y005824D01*
X015608Y005824D01*
X015874Y005824D02*
X016308Y006257D01*
X016308Y006366D01*
X016200Y006474D01*
X015983Y006474D01*
X015874Y006366D01*
X015874Y005824D02*
X016308Y005824D01*
X016800Y007636D02*
X016800Y008227D01*
X017095Y008227D01*
X017194Y008128D01*
X017194Y007932D01*
X017095Y007833D01*
X016800Y007833D01*
X016997Y007833D02*
X017194Y007636D01*
X017444Y007636D02*
X017838Y007636D01*
X017641Y007636D02*
X017641Y008227D01*
X017444Y008030D01*
X018089Y008128D02*
X018187Y008227D01*
X018384Y008227D01*
X018483Y008128D01*
X018483Y008030D01*
X018384Y007932D01*
X018483Y007833D01*
X018483Y007735D01*
X018384Y007636D01*
X018187Y007636D01*
X018089Y007735D01*
X018286Y007932D02*
X018384Y007932D01*
X018992Y008284D02*
X019091Y008186D01*
X019288Y008186D01*
X019386Y008284D01*
X019637Y008186D02*
X019834Y008186D01*
X019735Y008186D02*
X019735Y008776D01*
X019637Y008776D02*
X019834Y008776D01*
X020067Y008776D02*
X020067Y008186D01*
X020460Y008186D02*
X020067Y008776D01*
X020460Y008776D02*
X020460Y008186D01*
X020711Y008186D02*
X021006Y008186D01*
X021105Y008284D01*
X021105Y008383D01*
X021006Y008481D01*
X020711Y008481D01*
X020711Y008776D02*
X021006Y008776D01*
X021105Y008678D01*
X021105Y008579D01*
X021006Y008481D01*
X021356Y008678D02*
X021454Y008776D01*
X021651Y008776D01*
X021749Y008678D01*
X021749Y008579D01*
X021356Y008186D01*
X021749Y008186D01*
X022595Y008302D02*
X022595Y007711D01*
X022595Y007908D02*
X022890Y007908D01*
X022989Y008006D01*
X022989Y008203D01*
X022890Y008302D01*
X022595Y008302D01*
X022792Y007908D02*
X022989Y007711D01*
X023240Y007711D02*
X023633Y007711D01*
X023437Y007711D02*
X023437Y008302D01*
X023240Y008105D01*
X023884Y008006D02*
X024278Y008006D01*
X024180Y007711D02*
X024180Y008302D01*
X023884Y008006D01*
X024898Y008284D02*
X024996Y008186D01*
X025193Y008186D01*
X025292Y008284D01*
X025542Y008186D02*
X025739Y008186D01*
X025641Y008186D02*
X025641Y008776D01*
X025739Y008776D02*
X025542Y008776D01*
X025292Y008678D02*
X025193Y008776D01*
X024996Y008776D01*
X024898Y008678D01*
X024898Y008284D01*
X025972Y008186D02*
X025972Y008776D01*
X026366Y008186D01*
X026366Y008776D01*
X026617Y008776D02*
X026617Y008186D01*
X026912Y008186D01*
X027010Y008284D01*
X027010Y008383D01*
X026912Y008481D01*
X026617Y008481D01*
X026912Y008481D02*
X027010Y008579D01*
X027010Y008678D01*
X026912Y008776D01*
X026617Y008776D01*
X027261Y008678D02*
X027360Y008776D01*
X027557Y008776D01*
X027655Y008678D01*
X027655Y008579D01*
X027557Y008481D01*
X027655Y008383D01*
X027655Y008284D01*
X027557Y008186D01*
X027360Y008186D01*
X027261Y008284D01*
X027458Y008481D02*
X027557Y008481D01*
X028355Y008345D02*
X028355Y007754D01*
X028355Y007951D02*
X028650Y007951D01*
X028749Y008050D01*
X028749Y008246D01*
X028650Y008345D01*
X028355Y008345D01*
X028552Y007951D02*
X028749Y007754D01*
X029000Y007754D02*
X029393Y007754D01*
X029196Y007754D02*
X029196Y008345D01*
X029000Y008148D01*
X029644Y008050D02*
X029841Y008148D01*
X029939Y008148D01*
X030038Y008050D01*
X030038Y007853D01*
X029939Y007754D01*
X029743Y007754D01*
X029644Y007853D01*
X029644Y008050D02*
X029644Y008345D01*
X030038Y008345D01*
X030146Y008973D02*
X030048Y009072D01*
X030048Y009465D01*
X030146Y009564D01*
X030343Y009564D01*
X030441Y009465D01*
X030692Y009465D02*
X030692Y009072D01*
X030790Y008973D01*
X030987Y008973D01*
X031086Y009072D01*
X031086Y009465D01*
X030987Y009564D01*
X030790Y009564D01*
X030692Y009465D01*
X030441Y009072D02*
X030343Y008973D01*
X030146Y008973D01*
X031337Y008973D02*
X031632Y008973D01*
X031730Y009072D01*
X031730Y009170D01*
X031632Y009268D01*
X031337Y009268D01*
X031632Y009268D02*
X031730Y009367D01*
X031730Y009465D01*
X031632Y009564D01*
X031337Y009564D01*
X031337Y008973D01*
X031981Y008973D02*
X032375Y009367D01*
X032375Y009465D01*
X032276Y009564D01*
X032080Y009564D01*
X031981Y009465D01*
X031981Y008973D02*
X032375Y008973D01*
X033197Y009072D02*
X033296Y008973D01*
X033492Y008973D01*
X033591Y009072D01*
X033842Y009072D02*
X033842Y009465D01*
X033940Y009564D01*
X034137Y009564D01*
X034235Y009465D01*
X034235Y009072D01*
X034137Y008973D01*
X033940Y008973D01*
X033842Y009072D01*
X033591Y009465D02*
X033492Y009564D01*
X033296Y009564D01*
X033197Y009465D01*
X033197Y009072D01*
X034486Y008973D02*
X034781Y008973D01*
X034880Y009072D01*
X034880Y009170D01*
X034781Y009268D01*
X034486Y009268D01*
X034486Y008973D02*
X034486Y009564D01*
X034781Y009564D01*
X034880Y009465D01*
X034880Y009367D01*
X034781Y009268D01*
X035131Y009072D02*
X035229Y008973D01*
X035426Y008973D01*
X035524Y009072D01*
X035524Y009170D01*
X035426Y009268D01*
X035328Y009268D01*
X035426Y009268D02*
X035524Y009367D01*
X035524Y009465D01*
X035426Y009564D01*
X035229Y009564D01*
X035131Y009465D01*
X036347Y009465D02*
X036347Y009072D01*
X036445Y008973D01*
X036642Y008973D01*
X036740Y009072D01*
X036991Y009072D02*
X036991Y009465D01*
X037090Y009564D01*
X037287Y009564D01*
X037385Y009465D01*
X037385Y009072D01*
X037287Y008973D01*
X037090Y008973D01*
X036991Y009072D01*
X036740Y009465D02*
X036642Y009564D01*
X036445Y009564D01*
X036347Y009465D01*
X037636Y009564D02*
X037636Y008973D01*
X037931Y008973D01*
X038030Y009072D01*
X038030Y009170D01*
X037931Y009268D01*
X037636Y009268D01*
X037931Y009268D02*
X038030Y009367D01*
X038030Y009465D01*
X037931Y009564D01*
X037636Y009564D01*
X038280Y009367D02*
X038477Y009564D01*
X038477Y008973D01*
X038280Y008973D02*
X038674Y008973D01*
X039654Y009839D02*
X040047Y010430D01*
X040298Y010135D02*
X040692Y010135D01*
X040943Y010430D02*
X040943Y009839D01*
X041337Y009839D01*
X041587Y009839D02*
X041981Y010233D01*
X041981Y010331D01*
X041883Y010430D01*
X041686Y010430D01*
X041587Y010331D01*
X041587Y009839D02*
X041981Y009839D01*
X042232Y009938D02*
X042330Y009839D01*
X042527Y009839D01*
X042626Y009938D01*
X042626Y010331D01*
X042527Y010430D01*
X042330Y010430D01*
X042232Y010331D01*
X042232Y009938D01*
X042877Y009938D02*
X042975Y009839D01*
X043172Y009839D01*
X043270Y009938D01*
X043270Y010430D01*
X043521Y010430D02*
X043915Y010430D01*
X043718Y010430D02*
X043718Y009839D01*
X042877Y009938D02*
X042877Y010430D01*
X042290Y012298D02*
X041897Y012298D01*
X042094Y012298D02*
X042094Y012888D01*
X041897Y012692D01*
X041646Y012888D02*
X041252Y012298D01*
X041646Y012298D02*
X041252Y012888D01*
X039654Y010430D02*
X040047Y009839D01*
X036183Y008239D02*
X035987Y008140D01*
X035790Y007943D01*
X036085Y007943D01*
X036183Y007845D01*
X036183Y007747D01*
X036085Y007648D01*
X035888Y007648D01*
X035790Y007747D01*
X035790Y007943D01*
X035539Y007648D02*
X035145Y007648D01*
X035342Y007648D02*
X035342Y008239D01*
X035145Y008042D01*
X034894Y008140D02*
X034894Y007943D01*
X034796Y007845D01*
X034501Y007845D01*
X034698Y007845D02*
X034894Y007648D01*
X034501Y007648D02*
X034501Y008239D01*
X034796Y008239D01*
X034894Y008140D01*
X034025Y006474D02*
X033591Y006474D01*
X033591Y006149D01*
X033808Y006257D01*
X033916Y006257D01*
X034025Y006149D01*
X034025Y005932D01*
X033916Y005824D01*
X033699Y005824D01*
X033591Y005932D01*
X033325Y005824D02*
X032891Y005824D01*
X032891Y006474D01*
X028119Y006149D02*
X027685Y006149D01*
X028011Y006474D01*
X028011Y005824D01*
X027419Y005824D02*
X026986Y005824D01*
X026986Y006474D01*
X022214Y006366D02*
X022214Y006257D01*
X022105Y006149D01*
X022214Y006040D01*
X022214Y005932D01*
X022105Y005824D01*
X021888Y005824D01*
X021780Y005932D01*
X021514Y005824D02*
X021080Y005824D01*
X021080Y006474D01*
X021780Y006366D02*
X021888Y006474D01*
X022105Y006474D01*
X022214Y006366D01*
X022105Y006149D02*
X021997Y006149D01*
X020711Y008186D02*
X020711Y008776D01*
X019386Y008678D02*
X019288Y008776D01*
X019091Y008776D01*
X018992Y008678D01*
X018992Y008284D01*
X010475Y008186D02*
X010475Y008776D01*
X009150Y008678D02*
X009051Y008776D01*
X008855Y008776D01*
X008756Y008678D01*
X009269Y006474D02*
X009269Y005824D01*
X009703Y005824D01*
X009969Y005824D02*
X010402Y005824D01*
X010186Y005824D02*
X010186Y006474D01*
X009969Y006257D01*
X028508Y035832D02*
X028508Y036423D01*
X028803Y036423D01*
X028901Y036324D01*
X028901Y036127D01*
X028803Y036029D01*
X028508Y036029D01*
X028704Y036029D02*
X028901Y035832D01*
X029152Y035832D02*
X029546Y035832D01*
X029349Y035832D02*
X029349Y036423D01*
X029152Y036226D01*
X029797Y036324D02*
X029895Y036423D01*
X030092Y036423D01*
X030190Y036324D01*
X029797Y035931D01*
X029895Y035832D01*
X030092Y035832D01*
X030190Y035931D01*
X030190Y036324D01*
X029797Y036324D02*
X029797Y035931D01*
X027981Y037713D02*
X028079Y037812D01*
X028079Y038205D01*
X027981Y038304D01*
X027784Y038304D01*
X027685Y038205D01*
X027685Y038107D01*
X027784Y038009D01*
X028079Y038009D01*
X027981Y037713D02*
X027784Y037713D01*
X027685Y037812D01*
X027434Y037713D02*
X027041Y037713D01*
X027041Y038304D01*
X032230Y038304D02*
X032230Y037713D01*
X032624Y037713D01*
X032875Y037713D02*
X033269Y037713D01*
X033072Y037713D02*
X033072Y038304D01*
X032875Y038107D01*
X033519Y038205D02*
X033519Y037812D01*
X033913Y038205D01*
X033913Y037812D01*
X033815Y037713D01*
X033618Y037713D01*
X033519Y037812D01*
X033519Y038205D02*
X033618Y038304D01*
X033815Y038304D01*
X033913Y038205D01*
X034413Y036423D02*
X034708Y036423D01*
X034807Y036324D01*
X034807Y036127D01*
X034708Y036029D01*
X034413Y036029D01*
X034413Y035832D02*
X034413Y036423D01*
X034610Y036029D02*
X034807Y035832D01*
X035058Y035832D02*
X035451Y035832D01*
X035254Y035832D02*
X035254Y036423D01*
X035058Y036226D01*
X035702Y036226D02*
X035899Y036423D01*
X035899Y035832D01*
X035702Y035832D02*
X036096Y035832D01*
X039890Y035154D02*
X040284Y034564D01*
X040535Y034859D02*
X040928Y034859D01*
X041179Y035154D02*
X041179Y034564D01*
X041573Y034564D01*
X041824Y034564D02*
X042217Y034564D01*
X042021Y034564D02*
X042021Y035154D01*
X041824Y034957D01*
X042468Y035056D02*
X042468Y034662D01*
X042567Y034564D01*
X042763Y034564D01*
X042862Y034662D01*
X042862Y035056D01*
X042763Y035154D01*
X042567Y035154D01*
X042468Y035056D01*
X043113Y035154D02*
X043113Y034662D01*
X043211Y034564D01*
X043408Y034564D01*
X043506Y034662D01*
X043506Y035154D01*
X043757Y035154D02*
X044151Y035154D01*
X043954Y035154D02*
X043954Y034564D01*
X042192Y031786D02*
X041995Y031786D01*
X041897Y031688D01*
X041646Y031786D02*
X041252Y031196D01*
X041646Y031196D02*
X041252Y031786D01*
X041897Y031196D02*
X042290Y031589D01*
X042290Y031688D01*
X042192Y031786D01*
X042290Y031196D02*
X041897Y031196D01*
X039890Y034564D02*
X040284Y035154D01*
X036081Y044434D02*
X036081Y044759D01*
X035972Y044867D01*
X035647Y044867D01*
X035647Y044434D01*
X035381Y044650D02*
X034947Y044650D01*
X034947Y044542D02*
X034947Y044759D01*
X035056Y044867D01*
X035272Y044867D01*
X035381Y044759D01*
X035381Y044650D01*
X035272Y044434D02*
X035056Y044434D01*
X034947Y044542D01*
X034681Y044650D02*
X034247Y044650D01*
X034247Y044542D02*
X034247Y044759D01*
X034356Y044867D01*
X034573Y044867D01*
X034681Y044759D01*
X034681Y044650D01*
X034573Y044434D02*
X034356Y044434D01*
X034247Y044542D01*
X033989Y044867D02*
X033881Y044867D01*
X033664Y044650D01*
X033664Y044434D02*
X033664Y044867D01*
X033398Y044867D02*
X033073Y044867D01*
X032964Y044759D01*
X032964Y044542D01*
X033073Y044434D01*
X033398Y044434D01*
X032698Y044542D02*
X032590Y044650D01*
X032373Y044650D01*
X032265Y044759D01*
X032373Y044867D01*
X032698Y044867D01*
X032698Y044542D02*
X032590Y044434D01*
X032265Y044434D01*
X032007Y044434D02*
X031681Y044650D01*
X032007Y044867D01*
X031681Y045084D02*
X031681Y044434D01*
X031432Y044434D02*
X031215Y044434D01*
X031323Y044434D02*
X031323Y045084D01*
X031215Y045084D01*
X030857Y045084D02*
X030857Y045193D01*
X030857Y044867D02*
X030857Y044434D01*
X030965Y044434D02*
X030748Y044434D01*
X030482Y044542D02*
X030482Y044650D01*
X030374Y044759D01*
X030157Y044759D01*
X030049Y044867D01*
X030049Y044976D01*
X030157Y045084D01*
X030374Y045084D01*
X030482Y044976D01*
X030748Y044867D02*
X030857Y044867D01*
X030482Y044542D02*
X030374Y044434D01*
X030157Y044434D01*
X030049Y044542D01*
X029083Y044542D02*
X028974Y044650D01*
X028757Y044650D01*
X028649Y044759D01*
X028757Y044867D01*
X029083Y044867D01*
X029083Y044542D02*
X028974Y044434D01*
X028649Y044434D01*
X028383Y044434D02*
X028383Y044759D01*
X028274Y044867D01*
X028058Y044867D01*
X028058Y044650D02*
X028383Y044650D01*
X028383Y044434D02*
X028058Y044434D01*
X027949Y044542D01*
X028058Y044650D01*
X026983Y044434D02*
X026550Y044434D01*
X026550Y045084D01*
X026983Y045084D01*
X026766Y044759D02*
X026550Y044759D01*
X026283Y044976D02*
X026175Y045084D01*
X025958Y045084D01*
X025850Y044976D01*
X025850Y044542D01*
X025958Y044434D01*
X026175Y044434D01*
X026283Y044542D01*
X025584Y044434D02*
X025584Y044867D01*
X025367Y045084D01*
X025150Y044867D01*
X025150Y044434D01*
X024884Y044434D02*
X024450Y044434D01*
X024450Y045084D01*
X024184Y044976D02*
X024184Y044759D01*
X024076Y044650D01*
X023750Y044650D01*
X023750Y044434D02*
X023750Y045084D01*
X024076Y045084D01*
X024184Y044976D01*
X023484Y045084D02*
X023051Y045084D01*
X023267Y045084D02*
X023267Y044434D01*
X022085Y044759D02*
X021651Y044759D01*
X020685Y044650D02*
X020685Y044542D01*
X020577Y044434D01*
X020360Y044434D01*
X020251Y044542D01*
X020360Y044759D02*
X020577Y044759D01*
X020685Y044650D01*
X020685Y044976D02*
X020577Y045084D01*
X020360Y045084D01*
X020251Y044976D01*
X020251Y044867D01*
X020360Y044759D01*
X019985Y045084D02*
X019552Y045084D01*
X019552Y044434D01*
X019985Y044434D01*
X019768Y044759D02*
X019552Y044759D01*
X019285Y045084D02*
X019285Y044434D01*
X018852Y044434D02*
X018852Y045084D01*
X019069Y044867D01*
X019285Y045084D01*
X018586Y044867D02*
X018586Y044434D01*
X018586Y044759D02*
X018152Y044759D01*
X018152Y044867D02*
X018369Y045084D01*
X018586Y044867D01*
X018152Y044867D02*
X018152Y044434D01*
X017886Y044434D02*
X017886Y045084D01*
X017452Y045084D02*
X017452Y044434D01*
X017886Y044434D02*
X017452Y045084D01*
X017186Y045084D02*
X016752Y045084D01*
X016969Y045084D02*
X016969Y044434D01*
X015803Y044434D02*
X015694Y044542D01*
X015694Y044976D01*
X015586Y044867D02*
X015803Y044867D01*
X015320Y044759D02*
X015320Y044434D01*
X015320Y044759D02*
X015212Y044867D01*
X014886Y044867D01*
X014886Y044434D01*
X014637Y044434D02*
X014420Y044434D01*
X014528Y044434D02*
X014528Y044867D01*
X014420Y044867D01*
X014528Y045084D02*
X014528Y045193D01*
X014162Y044867D02*
X014053Y044867D01*
X013837Y044650D01*
X013837Y044434D02*
X013837Y044867D01*
X013570Y044759D02*
X013462Y044650D01*
X013137Y044650D01*
X013137Y044434D02*
X013137Y045084D01*
X013462Y045084D01*
X013570Y044976D01*
X013570Y044759D01*
X012171Y044759D02*
X012171Y044650D01*
X011737Y044650D01*
X011737Y044542D02*
X011737Y044759D01*
X011846Y044867D01*
X012062Y044867D01*
X012171Y044759D01*
X012062Y044434D02*
X011846Y044434D01*
X011737Y044542D01*
X011471Y044542D02*
X011363Y044650D01*
X011146Y044650D01*
X011037Y044759D01*
X011146Y044867D01*
X011471Y044867D01*
X011471Y044542D02*
X011363Y044434D01*
X011037Y044434D01*
X010771Y044434D02*
X010446Y044434D01*
X010338Y044542D01*
X010446Y044650D01*
X010771Y044650D01*
X010771Y044759D02*
X010771Y044434D01*
X010771Y044759D02*
X010663Y044867D01*
X010446Y044867D01*
X010071Y044759D02*
X010071Y044650D01*
X009638Y044650D01*
X009638Y044542D02*
X009638Y044759D01*
X009746Y044867D01*
X009963Y044867D01*
X010071Y044759D01*
X009963Y044434D02*
X009746Y044434D01*
X009638Y044542D01*
X009388Y044434D02*
X009171Y044434D01*
X009280Y044434D02*
X009280Y045084D01*
X009171Y045084D01*
X008905Y044976D02*
X008905Y044759D01*
X008797Y044650D01*
X008471Y044650D01*
X008471Y044434D02*
X008471Y045084D01*
X008797Y045084D01*
X008905Y044976D01*
X025150Y044759D02*
X025584Y044759D01*
D19*
X026075Y043052D02*
X026075Y041954D01*
X026075Y043052D02*
X021311Y043052D01*
X021311Y041954D01*
X020170Y041954D02*
X020170Y043052D01*
X015406Y043052D01*
X015406Y041954D01*
X014264Y041954D02*
X014264Y043052D01*
X009500Y043052D01*
X009500Y041954D01*
X009500Y039662D02*
X009500Y038564D01*
X014264Y038564D01*
X014264Y039662D01*
X015406Y039662D02*
X015406Y038564D01*
X020170Y038564D01*
X020170Y039662D01*
X021311Y039662D02*
X021311Y038564D01*
X026075Y038564D01*
X026075Y039662D01*
X027217Y039662D02*
X027217Y038564D01*
X031981Y038564D01*
X031981Y039662D01*
X033122Y039662D02*
X033122Y038564D01*
X037886Y038564D01*
X037886Y039662D01*
X037886Y041954D02*
X037886Y043052D01*
X033122Y043052D01*
X033122Y041954D01*
X031981Y041954D02*
X031981Y043052D01*
X027217Y043052D01*
X027217Y041954D01*
X027926Y034706D02*
X021823Y034706D01*
X021823Y022501D01*
X027926Y022501D01*
X027926Y034706D01*
X029402Y034706D02*
X032158Y034706D01*
X032158Y029587D01*
X029402Y029587D01*
X029402Y034706D01*
X032552Y034706D02*
X035307Y034706D01*
X035307Y029587D01*
X032552Y029587D01*
X032552Y034706D01*
X035701Y034706D02*
X038457Y034706D01*
X038457Y029587D01*
X035701Y029587D01*
X035701Y034706D01*
X040426Y036792D02*
X040426Y037737D01*
X040426Y037487D02*
X040870Y037487D01*
X040870Y037042D01*
X040426Y037042D01*
X041581Y037042D02*
X041581Y037487D01*
X042026Y037487D01*
X042026Y037042D01*
X041581Y037042D01*
X041581Y036331D02*
X042026Y036331D01*
X042026Y035887D01*
X042237Y035887D02*
X041331Y035887D01*
X041581Y035887D02*
X041581Y036331D01*
X042737Y037042D02*
X042737Y037487D01*
X043181Y037487D01*
X043181Y037737D02*
X043181Y036831D01*
X043181Y037042D02*
X042737Y037042D01*
X042026Y038198D02*
X041581Y038198D01*
X041581Y038643D01*
X041331Y038643D02*
X042276Y038643D01*
X042026Y038643D02*
X042026Y038198D01*
X041975Y026044D02*
X041975Y025599D01*
X042420Y025599D01*
X042420Y026044D01*
X042630Y026044D02*
X041725Y026044D01*
X041975Y024889D02*
X042420Y024889D01*
X042420Y024444D01*
X041975Y024444D01*
X041975Y024889D01*
X041264Y024889D02*
X041264Y024444D01*
X040819Y024444D01*
X040819Y024194D02*
X040819Y025139D01*
X040819Y024889D02*
X041264Y024889D01*
X041975Y023733D02*
X042420Y023733D01*
X042420Y023288D01*
X042670Y023288D02*
X041725Y023288D01*
X041975Y023288D02*
X041975Y023733D01*
X043130Y024444D02*
X043130Y024889D01*
X043575Y024889D01*
X043575Y025099D02*
X043575Y024194D01*
X043575Y024444D02*
X043130Y024444D01*
X042630Y020532D02*
X041725Y020532D01*
X041975Y020532D02*
X041975Y020087D01*
X042420Y020087D01*
X042420Y020532D01*
X042420Y019377D02*
X041975Y019377D01*
X041975Y018932D01*
X042420Y018932D01*
X042420Y019377D01*
X043130Y019377D02*
X043130Y018932D01*
X043575Y018932D01*
X043575Y018682D02*
X043575Y019587D01*
X043575Y019377D02*
X043130Y019377D01*
X042420Y018221D02*
X041975Y018221D01*
X041975Y017776D01*
X041725Y017776D02*
X042670Y017776D01*
X042420Y017776D02*
X042420Y018221D01*
X041264Y018932D02*
X040819Y018932D01*
X040819Y018682D02*
X040819Y019627D01*
X040819Y019377D02*
X041264Y019377D01*
X041264Y018932D01*
X038851Y015020D02*
X038851Y009902D01*
X036095Y009902D01*
X036095Y015020D01*
X038851Y015020D01*
X035701Y015020D02*
X035701Y009902D01*
X032945Y009902D01*
X032945Y015020D01*
X035701Y015020D01*
X032552Y015020D02*
X032552Y009902D01*
X029796Y009902D01*
X029796Y015020D01*
X032552Y015020D01*
X027926Y009115D02*
X021823Y009115D01*
X021823Y021320D01*
X027926Y021320D01*
X027926Y009115D01*
X027217Y005650D02*
X027217Y004552D01*
X027217Y005650D02*
X031981Y005650D01*
X031981Y004552D01*
X033122Y004552D02*
X033122Y005650D01*
X037886Y005650D01*
X037886Y004552D01*
X037886Y002261D02*
X037886Y001162D01*
X033122Y001162D01*
X033122Y002261D01*
X031981Y002261D02*
X031981Y001162D01*
X027217Y001162D01*
X027217Y002261D01*
X026075Y002261D02*
X026075Y001162D01*
X021311Y001162D01*
X021311Y002261D01*
X020170Y002261D02*
X020170Y001162D01*
X015406Y001162D01*
X015406Y002261D01*
X014264Y002261D02*
X014264Y001162D01*
X009500Y001162D01*
X009500Y002261D01*
X009500Y004552D02*
X009500Y005650D01*
X014264Y005650D01*
X014264Y004552D01*
X015406Y004552D02*
X015406Y005650D01*
X020170Y005650D01*
X020170Y004552D01*
X021311Y004552D02*
X021311Y005650D01*
X026075Y005650D01*
X026075Y004552D01*
X021233Y009115D02*
X015130Y009115D01*
X015130Y021320D01*
X021233Y021320D01*
X021233Y009115D01*
X014540Y009115D02*
X008437Y009115D01*
X008437Y021320D01*
X014540Y021320D01*
X014540Y009115D01*
X005780Y006989D02*
X005780Y006083D01*
X005780Y006333D02*
X005335Y006333D01*
X005335Y006778D01*
X005780Y006778D01*
X004624Y006778D02*
X004624Y006333D01*
X004180Y006333D01*
X004180Y006778D01*
X004624Y006778D01*
X004624Y007489D02*
X004180Y007489D01*
X004180Y007934D01*
X003930Y007934D02*
X004835Y007934D01*
X004624Y007934D02*
X004624Y007489D01*
X003469Y006778D02*
X003469Y006333D01*
X003024Y006333D01*
X003024Y006083D02*
X003024Y007028D01*
X003024Y006778D02*
X003469Y006778D01*
X004180Y005623D02*
X004624Y005623D01*
X004624Y005178D01*
X004874Y005178D02*
X003930Y005178D01*
X004180Y005178D02*
X004180Y005623D01*
X004363Y020532D02*
X005268Y020532D01*
X005018Y020532D02*
X005018Y020977D01*
X004573Y020977D01*
X004573Y020532D01*
X004573Y021688D02*
X004573Y022133D01*
X005018Y022133D01*
X005018Y021688D01*
X004573Y021688D01*
X003863Y021688D02*
X003863Y022133D01*
X003418Y022133D01*
X003418Y022383D02*
X003418Y021477D01*
X003418Y021688D02*
X003863Y021688D01*
X004573Y022843D02*
X004573Y023288D01*
X004323Y023288D02*
X005268Y023288D01*
X005018Y023288D02*
X005018Y022843D01*
X004573Y022843D01*
X005729Y022133D02*
X005729Y021688D01*
X006174Y021688D01*
X006174Y021438D02*
X006174Y022383D01*
X006174Y022133D02*
X005729Y022133D01*
X008437Y022501D02*
X014540Y022501D01*
X014540Y034706D01*
X008437Y034706D01*
X008437Y022501D01*
X015130Y022501D02*
X021233Y022501D01*
X021233Y034706D01*
X015130Y034706D01*
X015130Y022501D01*
X004874Y035887D02*
X003930Y035887D01*
X004180Y035887D02*
X004180Y036331D01*
X004624Y036331D01*
X004624Y035887D01*
X004624Y037042D02*
X004180Y037042D01*
X004180Y037487D01*
X004624Y037487D01*
X004624Y037042D01*
X005335Y037042D02*
X005335Y037487D01*
X005780Y037487D01*
X005780Y037698D02*
X005780Y036792D01*
X005780Y037042D02*
X005335Y037042D01*
X004624Y038198D02*
X004180Y038198D01*
X004180Y038643D01*
X003930Y038643D02*
X004835Y038643D01*
X004624Y038643D02*
X004624Y038198D01*
X003469Y037487D02*
X003469Y037042D01*
X003024Y037042D01*
X003024Y036792D02*
X003024Y037737D01*
X003024Y037487D02*
X003469Y037487D01*
X040426Y008209D02*
X040426Y007265D01*
X040426Y007515D02*
X040870Y007515D01*
X040870Y007959D01*
X040426Y007959D01*
X041581Y007959D02*
X041581Y007515D01*
X042026Y007515D01*
X042026Y007959D01*
X041581Y007959D01*
X041581Y008670D02*
X041581Y009115D01*
X041331Y009115D02*
X042237Y009115D01*
X042026Y009115D02*
X042026Y008670D01*
X041581Y008670D01*
X042737Y007959D02*
X042737Y007515D01*
X043181Y007515D01*
X043181Y007265D02*
X043181Y008170D01*
X043181Y007959D02*
X042737Y007959D01*
X042026Y006804D02*
X041581Y006804D01*
X041581Y006359D01*
X041331Y006359D02*
X042276Y006359D01*
X042026Y006359D02*
X042026Y006804D01*
M02*
