G75*
G70*
%OFA0B0*%
%FSLAX24Y24*%
%IPPOS*%
%LPD*%
%AMOC8*
5,1,8,0,0,1.08239X$1,22.5*
%
%ADD10R,0.1142X0.2126*%
%ADD11C,0.0906*%
%ADD12C,0.1063*%
%ADD13C,0.1260*%
%ADD14R,0.0630X0.0984*%
%ADD15R,0.0984X0.0630*%
%ADD16C,0.0827*%
%ADD17C,0.0160*%
%ADD18R,0.0396X0.0396*%
%ADD19C,0.3937*%
%ADD20C,0.0500*%
%ADD21C,0.1000*%
%ADD22C,0.1500*%
D10*
X009933Y003406D03*
X013831Y003406D03*
X015839Y003406D03*
X019737Y003406D03*
X021744Y003406D03*
X025642Y003406D03*
X027650Y003406D03*
X031548Y003406D03*
X033556Y003406D03*
X037453Y003406D03*
X037453Y040808D03*
X033556Y040808D03*
X031548Y040808D03*
X027650Y040808D03*
X025642Y040808D03*
X021744Y040808D03*
X019737Y040808D03*
X015839Y040808D03*
X013831Y040808D03*
X009933Y040808D03*
D11*
X011489Y034017D03*
X018181Y034017D03*
X024874Y034017D03*
X024874Y023190D03*
X024874Y020631D03*
X018181Y020631D03*
X018181Y023190D03*
X011489Y023190D03*
X011489Y020631D03*
X011489Y009804D03*
X018181Y009804D03*
X024874Y009804D03*
D12*
X041591Y013824D03*
X042591Y014824D03*
X043591Y015824D03*
X043591Y013824D03*
X041591Y015824D03*
X041591Y028391D03*
X042591Y029391D03*
X043591Y030391D03*
X041591Y030391D03*
X043591Y028391D03*
D13*
X043353Y025822D03*
X041042Y025822D03*
X041042Y023511D03*
X043353Y023511D03*
X043353Y020310D03*
X043353Y017999D03*
X041042Y017999D03*
X041042Y020310D03*
X040648Y008893D03*
X042959Y008893D03*
X042959Y006581D03*
X040648Y006581D03*
X040648Y036109D03*
X040648Y038420D03*
X042959Y038420D03*
X042959Y036109D03*
X005951Y023066D03*
X003640Y023066D03*
X003640Y020755D03*
X005951Y020755D03*
X005557Y007711D03*
X003246Y007711D03*
X003246Y005400D03*
X005557Y005400D03*
X005557Y036109D03*
X003246Y036109D03*
X003246Y038420D03*
X005557Y038420D03*
D14*
X010996Y037265D03*
X012768Y037265D03*
X016902Y037265D03*
X018674Y037265D03*
X022807Y037265D03*
X024579Y037265D03*
X028713Y037265D03*
X030485Y037265D03*
X034619Y037265D03*
X036390Y037265D03*
X036390Y006950D03*
X034619Y006950D03*
X030244Y007056D03*
X028473Y007056D03*
X024485Y007013D03*
X022713Y007013D03*
X018689Y006938D03*
X016918Y006938D03*
X012607Y007056D03*
X010835Y007056D03*
D15*
X005977Y013544D03*
X005977Y015316D03*
X003615Y015316D03*
X003615Y013544D03*
X003615Y028505D03*
X003615Y030276D03*
X005977Y030276D03*
X005977Y028505D03*
D16*
X030780Y030178D03*
X033930Y030178D03*
X037079Y030178D03*
X037079Y034115D03*
X033930Y034115D03*
X030780Y034115D03*
X031174Y014430D03*
X034323Y014430D03*
X037473Y014430D03*
X037473Y010493D03*
X034323Y010493D03*
X031174Y010493D03*
D17*
X002433Y008524D02*
X002433Y004587D01*
X006764Y004587D01*
X006764Y008524D01*
X002433Y008524D01*
X002433Y008417D02*
X006764Y008417D01*
X006764Y008258D02*
X002433Y008258D01*
X002433Y008100D02*
X006764Y008100D01*
X006764Y007941D02*
X002433Y007941D01*
X002433Y007783D02*
X006764Y007783D01*
X006764Y007624D02*
X002433Y007624D01*
X002433Y007466D02*
X006764Y007466D01*
X006764Y007307D02*
X002433Y007307D01*
X002433Y007149D02*
X006764Y007149D01*
X006764Y006990D02*
X002433Y006990D01*
X002433Y006832D02*
X006764Y006832D01*
X006764Y006673D02*
X002433Y006673D01*
X002433Y006515D02*
X006764Y006515D01*
X006764Y006356D02*
X002433Y006356D01*
X002433Y006198D02*
X006764Y006198D01*
X006764Y006039D02*
X002433Y006039D01*
X002433Y005881D02*
X006764Y005881D01*
X006764Y005722D02*
X002433Y005722D01*
X002433Y005564D02*
X006764Y005564D01*
X006764Y005405D02*
X002433Y005405D01*
X002433Y005247D02*
X006764Y005247D01*
X006764Y005088D02*
X002433Y005088D01*
X002433Y004930D02*
X006764Y004930D01*
X006764Y004771D02*
X002433Y004771D01*
X002433Y004613D02*
X006764Y004613D01*
X005977Y010493D02*
X002827Y010493D01*
X002827Y014036D01*
X003088Y014036D01*
X003053Y014027D01*
X003012Y014003D01*
X002978Y013970D01*
X002955Y013929D01*
X002942Y013883D01*
X002942Y013622D01*
X003537Y013622D01*
X003537Y013467D01*
X002942Y013467D01*
X002942Y013205D01*
X002955Y013160D01*
X002978Y013119D01*
X003012Y013085D01*
X003053Y013061D01*
X003099Y013049D01*
X003537Y013049D01*
X003537Y013467D01*
X003692Y013467D01*
X003692Y013622D01*
X004287Y013622D01*
X004287Y013883D01*
X004274Y013929D01*
X004251Y013970D01*
X004217Y014003D01*
X004176Y014027D01*
X004141Y014036D01*
X005450Y014036D01*
X005415Y014027D01*
X005374Y014003D01*
X005341Y013970D01*
X005317Y013929D01*
X005305Y013883D01*
X005305Y013622D01*
X005899Y013622D01*
X005899Y013467D01*
X005305Y013467D01*
X005305Y013205D01*
X005317Y013160D01*
X005341Y013119D01*
X005374Y013085D01*
X005415Y013061D01*
X005461Y013049D01*
X005899Y013049D01*
X005899Y013467D01*
X006054Y013467D01*
X006054Y013622D01*
X006649Y013622D01*
X006649Y013883D01*
X006637Y013929D01*
X006613Y013970D01*
X006579Y014003D01*
X006538Y014027D01*
X006503Y014036D01*
X008339Y014036D01*
X008339Y021517D01*
X026056Y021517D01*
X026056Y019548D01*
X009914Y019548D01*
X009914Y012855D01*
X009126Y012068D01*
X007552Y012068D01*
X005977Y010493D01*
X006120Y010636D02*
X002827Y010636D01*
X002827Y010794D02*
X006278Y010794D01*
X006437Y010953D02*
X002827Y010953D01*
X002827Y011111D02*
X006595Y011111D01*
X006754Y011270D02*
X002827Y011270D01*
X002827Y011428D02*
X006912Y011428D01*
X007071Y011587D02*
X002827Y011587D01*
X002827Y011745D02*
X007229Y011745D01*
X007388Y011904D02*
X002827Y011904D01*
X002827Y012062D02*
X007546Y012062D01*
X006579Y013085D02*
X006613Y013119D01*
X006637Y013160D01*
X006649Y013205D01*
X006649Y013467D01*
X006054Y013467D01*
X006054Y013049D01*
X006493Y013049D01*
X006538Y013061D01*
X006579Y013085D01*
X006640Y013172D02*
X009914Y013172D01*
X009914Y013330D02*
X006649Y013330D01*
X006649Y013647D02*
X009914Y013647D01*
X009914Y013489D02*
X006054Y013489D01*
X005899Y013489D02*
X003692Y013489D01*
X003692Y013467D02*
X004287Y013467D01*
X004287Y013205D01*
X004274Y013160D01*
X004251Y013119D01*
X004217Y013085D01*
X004176Y013061D01*
X004130Y013049D01*
X003692Y013049D01*
X003692Y013467D01*
X003692Y013330D02*
X003537Y013330D01*
X003537Y013172D02*
X003692Y013172D01*
X003537Y013489D02*
X002827Y013489D01*
X002827Y013647D02*
X002942Y013647D01*
X002942Y013806D02*
X002827Y013806D01*
X002827Y013964D02*
X002975Y013964D01*
X002942Y013330D02*
X002827Y013330D01*
X002827Y013172D02*
X002951Y013172D01*
X002827Y013013D02*
X009914Y013013D01*
X009914Y012855D02*
X002827Y012855D01*
X002827Y012696D02*
X009755Y012696D01*
X009597Y012538D02*
X002827Y012538D01*
X002827Y012379D02*
X009438Y012379D01*
X009280Y012221D02*
X002827Y012221D01*
X004278Y013172D02*
X005314Y013172D01*
X005305Y013330D02*
X004287Y013330D01*
X004287Y013647D02*
X005305Y013647D01*
X005305Y013806D02*
X004287Y013806D01*
X004254Y013964D02*
X005338Y013964D01*
X005899Y013330D02*
X006054Y013330D01*
X006054Y013172D02*
X005899Y013172D01*
X006649Y013806D02*
X009914Y013806D01*
X009914Y013964D02*
X006616Y013964D01*
X006503Y014824D02*
X006538Y014833D01*
X006579Y014857D01*
X006613Y014890D01*
X006637Y014931D01*
X006649Y014977D01*
X006649Y015238D01*
X006054Y015238D01*
X006054Y015393D01*
X005899Y015393D01*
X005899Y015238D01*
X005305Y015238D01*
X005305Y014977D01*
X005317Y014931D01*
X005341Y014890D01*
X005374Y014857D01*
X005415Y014833D01*
X005450Y014824D01*
X004141Y014824D01*
X004176Y014833D01*
X004217Y014857D01*
X004251Y014890D01*
X004274Y014931D01*
X004287Y014977D01*
X004287Y015238D01*
X003692Y015238D01*
X003692Y015393D01*
X004287Y015393D01*
X004287Y015654D01*
X004274Y015700D01*
X004251Y015741D01*
X004217Y015775D01*
X004176Y015798D01*
X004130Y015811D01*
X003692Y015811D01*
X003692Y015393D01*
X003537Y015393D01*
X003537Y015238D01*
X002942Y015238D01*
X002942Y014977D01*
X002955Y014931D01*
X002978Y014890D01*
X003012Y014857D01*
X003053Y014833D01*
X003088Y014824D01*
X002827Y014824D01*
X002827Y028997D01*
X003088Y028997D01*
X003053Y028987D01*
X003012Y028964D01*
X002978Y028930D01*
X002955Y028889D01*
X002942Y028843D01*
X002942Y028582D01*
X003537Y028582D01*
X003537Y028427D01*
X003692Y028427D01*
X003692Y028010D01*
X004130Y028010D01*
X004176Y028022D01*
X004217Y028046D01*
X004251Y028079D01*
X004274Y028120D01*
X004287Y028166D01*
X004287Y028427D01*
X003692Y028427D01*
X003692Y028582D01*
X004287Y028582D01*
X004287Y028843D01*
X004274Y028889D01*
X004251Y028930D01*
X004217Y028964D01*
X004176Y028987D01*
X004141Y028997D01*
X005450Y028997D01*
X005415Y028987D01*
X005374Y028964D01*
X005341Y028930D01*
X005317Y028889D01*
X005305Y028843D01*
X005305Y028582D01*
X005899Y028582D01*
X005899Y028427D01*
X006054Y028427D01*
X006054Y028010D01*
X006493Y028010D01*
X006538Y028022D01*
X006579Y028046D01*
X006613Y028079D01*
X006637Y028120D01*
X006649Y028166D01*
X006649Y028427D01*
X006054Y028427D01*
X006054Y028582D01*
X006649Y028582D01*
X006649Y028843D01*
X006637Y028889D01*
X006613Y028930D01*
X006579Y028964D01*
X006538Y028987D01*
X006503Y028997D01*
X006764Y028997D01*
X006764Y014824D01*
X006503Y014824D01*
X006627Y014915D02*
X006764Y014915D01*
X006764Y015074D02*
X006649Y015074D01*
X006649Y015232D02*
X006764Y015232D01*
X006764Y015391D02*
X006054Y015391D01*
X006054Y015393D02*
X006649Y015393D01*
X006649Y015654D01*
X006637Y015700D01*
X006613Y015741D01*
X006579Y015775D01*
X006538Y015798D01*
X006493Y015811D01*
X006054Y015811D01*
X006054Y015393D01*
X005899Y015393D02*
X005899Y015811D01*
X005461Y015811D01*
X005415Y015798D01*
X005374Y015775D01*
X005341Y015741D01*
X005317Y015700D01*
X005305Y015654D01*
X005305Y015393D01*
X005899Y015393D01*
X005899Y015391D02*
X003692Y015391D01*
X003537Y015391D02*
X002827Y015391D01*
X002942Y015393D02*
X003537Y015393D01*
X003537Y015811D01*
X003099Y015811D01*
X003053Y015798D01*
X003012Y015775D01*
X002978Y015741D01*
X002955Y015700D01*
X002942Y015654D01*
X002942Y015393D01*
X002942Y015549D02*
X002827Y015549D01*
X002827Y015708D02*
X002959Y015708D01*
X002827Y015866D02*
X006764Y015866D01*
X006764Y015708D02*
X006632Y015708D01*
X006649Y015549D02*
X006764Y015549D01*
X006764Y016025D02*
X002827Y016025D01*
X002827Y016183D02*
X006764Y016183D01*
X006764Y016342D02*
X002827Y016342D01*
X002827Y016500D02*
X006764Y016500D01*
X006764Y016659D02*
X002827Y016659D01*
X002827Y016817D02*
X006764Y016817D01*
X006764Y016976D02*
X002827Y016976D01*
X002827Y017134D02*
X006764Y017134D01*
X006764Y017293D02*
X002827Y017293D01*
X002827Y017451D02*
X006764Y017451D01*
X006764Y017610D02*
X002827Y017610D01*
X002827Y017768D02*
X006764Y017768D01*
X006764Y017927D02*
X002827Y017927D01*
X002827Y018085D02*
X006764Y018085D01*
X006764Y018244D02*
X002827Y018244D01*
X002827Y018402D02*
X006764Y018402D01*
X006764Y018561D02*
X002827Y018561D01*
X002827Y018719D02*
X006764Y018719D01*
X006764Y018878D02*
X002827Y018878D01*
X002827Y019036D02*
X006764Y019036D01*
X006764Y019195D02*
X002827Y019195D01*
X002827Y019353D02*
X006764Y019353D01*
X006764Y019512D02*
X002827Y019512D01*
X002827Y019670D02*
X006764Y019670D01*
X006764Y019829D02*
X002827Y019829D01*
X002827Y019987D02*
X003376Y019987D01*
X003379Y019986D02*
X003482Y019959D01*
X003560Y019948D01*
X003560Y020675D01*
X002834Y020675D01*
X002844Y020596D01*
X002872Y020494D01*
X002912Y020396D01*
X002965Y020304D01*
X003030Y020220D01*
X003105Y020144D01*
X003189Y020080D01*
X003281Y020027D01*
X003379Y019986D01*
X003560Y019987D02*
X003720Y019987D01*
X003720Y019948D02*
X003799Y019959D01*
X003901Y019986D01*
X003999Y020027D01*
X004091Y020080D01*
X004175Y020144D01*
X004250Y020220D01*
X004315Y020304D01*
X004368Y020396D01*
X004409Y020494D01*
X004436Y020596D01*
X004447Y020675D01*
X003720Y020675D01*
X003720Y020835D01*
X003560Y020835D01*
X003560Y021561D01*
X003482Y021551D01*
X003379Y021523D01*
X003281Y021483D01*
X003189Y021430D01*
X003105Y021365D01*
X003030Y021290D01*
X002965Y021206D01*
X002912Y021114D01*
X002872Y021016D01*
X002844Y020913D01*
X002834Y020835D01*
X003560Y020835D01*
X003560Y020675D01*
X003720Y020675D01*
X003720Y019948D01*
X003904Y019987D02*
X005687Y019987D01*
X005690Y019986D02*
X005793Y019959D01*
X005871Y019948D01*
X005871Y020675D01*
X005145Y020675D01*
X005155Y020596D01*
X005183Y020494D01*
X005223Y020396D01*
X005276Y020304D01*
X005341Y020220D01*
X005416Y020144D01*
X005500Y020080D01*
X005592Y020027D01*
X005690Y019986D01*
X005871Y019987D02*
X006031Y019987D01*
X006031Y019948D02*
X006110Y019959D01*
X006212Y019986D01*
X006310Y020027D01*
X006402Y020080D01*
X006486Y020144D01*
X006561Y020220D01*
X006626Y020304D01*
X006679Y020396D01*
X006720Y020494D01*
X006747Y020596D01*
X006758Y020675D01*
X006031Y020675D01*
X006031Y020835D01*
X005871Y020835D01*
X005871Y021561D01*
X005793Y021551D01*
X005690Y021523D01*
X005592Y021483D01*
X005500Y021430D01*
X005416Y021365D01*
X005341Y021290D01*
X005276Y021206D01*
X005223Y021114D01*
X005183Y021016D01*
X005155Y020913D01*
X005145Y020835D01*
X005871Y020835D01*
X005871Y020675D01*
X006031Y020675D01*
X006031Y019948D01*
X006215Y019987D02*
X006764Y019987D01*
X006764Y020146D02*
X006488Y020146D01*
X006626Y020304D02*
X006764Y020304D01*
X006764Y020463D02*
X006707Y020463D01*
X006751Y020621D02*
X006764Y020621D01*
X006764Y020780D02*
X006031Y020780D01*
X006031Y020835D02*
X006758Y020835D01*
X006747Y020913D01*
X006720Y021016D01*
X006679Y021114D01*
X006626Y021206D01*
X006561Y021290D01*
X006486Y021365D01*
X006402Y021430D01*
X006310Y021483D01*
X006212Y021523D01*
X006110Y021551D01*
X006031Y021561D01*
X006031Y020835D01*
X006031Y020938D02*
X005871Y020938D01*
X005871Y020780D02*
X003720Y020780D01*
X003720Y020835D02*
X004447Y020835D01*
X004436Y020913D01*
X004409Y021016D01*
X004368Y021114D01*
X004315Y021206D01*
X004250Y021290D01*
X004175Y021365D01*
X004091Y021430D01*
X003999Y021483D01*
X003901Y021523D01*
X003799Y021551D01*
X003720Y021561D01*
X003720Y020835D01*
X003720Y020938D02*
X003560Y020938D01*
X003560Y020780D02*
X002827Y020780D01*
X002827Y020938D02*
X002851Y020938D01*
X002827Y021097D02*
X002905Y021097D01*
X002827Y021255D02*
X003003Y021255D01*
X003169Y021414D02*
X002827Y021414D01*
X002827Y021572D02*
X006764Y021572D01*
X006764Y021414D02*
X006423Y021414D01*
X006588Y021255D02*
X006764Y021255D01*
X006764Y021097D02*
X006686Y021097D01*
X006740Y020938D02*
X006764Y020938D01*
X006764Y021731D02*
X002827Y021731D01*
X002827Y021889D02*
X006764Y021889D01*
X006764Y022048D02*
X002827Y022048D01*
X002827Y022206D02*
X006764Y022206D01*
X006764Y022365D02*
X006357Y022365D01*
X006402Y022391D02*
X006486Y022456D01*
X006561Y022531D01*
X006626Y022615D01*
X006679Y022707D01*
X006720Y022805D01*
X006747Y022907D01*
X006758Y022986D01*
X006031Y022986D01*
X006031Y023146D01*
X005871Y023146D01*
X005871Y023872D01*
X005793Y023862D01*
X005690Y023834D01*
X005592Y023794D01*
X005500Y023741D01*
X005416Y023676D01*
X005341Y023601D01*
X005276Y023517D01*
X005223Y023425D01*
X005183Y023327D01*
X005155Y023224D01*
X005145Y023146D01*
X005871Y023146D01*
X005871Y022986D01*
X005145Y022986D01*
X005155Y022907D01*
X005183Y022805D01*
X005223Y022707D01*
X005276Y022615D01*
X005341Y022531D01*
X005416Y022456D01*
X005500Y022391D01*
X005592Y022338D01*
X005690Y022297D01*
X005793Y022270D01*
X005871Y022259D01*
X005871Y022986D01*
X006031Y022986D01*
X006031Y022259D01*
X006110Y022270D01*
X006212Y022297D01*
X006310Y022338D01*
X006402Y022391D01*
X006554Y022523D02*
X006764Y022523D01*
X006764Y022682D02*
X006665Y022682D01*
X006729Y022840D02*
X006764Y022840D01*
X006764Y022999D02*
X006031Y022999D01*
X006031Y023146D02*
X006758Y023146D01*
X006747Y023224D01*
X006720Y023327D01*
X006679Y023425D01*
X006626Y023517D01*
X006561Y023601D01*
X006486Y023676D01*
X006402Y023741D01*
X006310Y023794D01*
X006212Y023834D01*
X006110Y023862D01*
X006031Y023872D01*
X006031Y023146D01*
X006031Y023157D02*
X005871Y023157D01*
X005871Y022999D02*
X003720Y022999D01*
X003720Y022986D02*
X003720Y023146D01*
X003560Y023146D01*
X003560Y023872D01*
X003482Y023862D01*
X003379Y023834D01*
X003281Y023794D01*
X003189Y023741D01*
X003105Y023676D01*
X003030Y023601D01*
X002965Y023517D01*
X002912Y023425D01*
X002872Y023327D01*
X002844Y023224D01*
X002834Y023146D01*
X003560Y023146D01*
X003560Y022986D01*
X002834Y022986D01*
X002844Y022907D01*
X002872Y022805D01*
X002912Y022707D01*
X002965Y022615D01*
X003030Y022531D01*
X003105Y022456D01*
X003189Y022391D01*
X003281Y022338D01*
X003379Y022297D01*
X003482Y022270D01*
X003560Y022259D01*
X003560Y022986D01*
X003720Y022986D01*
X004447Y022986D01*
X004436Y022907D01*
X004409Y022805D01*
X004368Y022707D01*
X004315Y022615D01*
X004250Y022531D01*
X004175Y022456D01*
X004091Y022391D01*
X003999Y022338D01*
X003901Y022297D01*
X003799Y022270D01*
X003720Y022259D01*
X003720Y022986D01*
X003720Y022840D02*
X003560Y022840D01*
X003560Y022682D02*
X003720Y022682D01*
X003720Y022523D02*
X003560Y022523D01*
X003560Y022365D02*
X003720Y022365D01*
X004046Y022365D02*
X005545Y022365D01*
X005348Y022523D02*
X004243Y022523D01*
X004354Y022682D02*
X005238Y022682D01*
X005173Y022840D02*
X004418Y022840D01*
X004447Y023146D02*
X003720Y023146D01*
X003720Y023872D01*
X003799Y023862D01*
X003901Y023834D01*
X003999Y023794D01*
X004091Y023741D01*
X004175Y023676D01*
X004250Y023601D01*
X004315Y023517D01*
X004368Y023425D01*
X004409Y023327D01*
X004436Y023224D01*
X004447Y023146D01*
X004445Y023157D02*
X005146Y023157D01*
X005180Y023316D02*
X004412Y023316D01*
X004339Y023474D02*
X005252Y023474D01*
X005373Y023633D02*
X004218Y023633D01*
X004003Y023791D02*
X005588Y023791D01*
X005871Y023791D02*
X006031Y023791D01*
X006031Y023633D02*
X005871Y023633D01*
X005871Y023474D02*
X006031Y023474D01*
X006031Y023316D02*
X005871Y023316D01*
X005871Y022840D02*
X006031Y022840D01*
X006031Y022682D02*
X005871Y022682D01*
X005871Y022523D02*
X006031Y022523D01*
X006031Y022365D02*
X005871Y022365D01*
X005871Y021414D02*
X006031Y021414D01*
X006031Y021255D02*
X005871Y021255D01*
X005871Y021097D02*
X006031Y021097D01*
X006031Y020621D02*
X005871Y020621D01*
X005871Y020463D02*
X006031Y020463D01*
X006031Y020304D02*
X005871Y020304D01*
X005871Y020146D02*
X006031Y020146D01*
X005415Y020146D02*
X004177Y020146D01*
X004315Y020304D02*
X005276Y020304D01*
X005195Y020463D02*
X004396Y020463D01*
X004440Y020621D02*
X005152Y020621D01*
X005162Y020938D02*
X004429Y020938D01*
X004375Y021097D02*
X005216Y021097D01*
X005315Y021255D02*
X004277Y021255D01*
X004112Y021414D02*
X005480Y021414D01*
X003720Y021414D02*
X003560Y021414D01*
X003560Y021255D02*
X003720Y021255D01*
X003720Y021097D02*
X003560Y021097D01*
X003560Y020621D02*
X003720Y020621D01*
X003720Y020463D02*
X003560Y020463D01*
X003560Y020304D02*
X003720Y020304D01*
X003720Y020146D02*
X003560Y020146D01*
X003104Y020146D02*
X002827Y020146D01*
X002827Y020304D02*
X002965Y020304D01*
X002884Y020463D02*
X002827Y020463D01*
X002827Y020621D02*
X002841Y020621D01*
X002827Y022365D02*
X003234Y022365D01*
X003037Y022523D02*
X002827Y022523D01*
X002827Y022682D02*
X002927Y022682D01*
X002862Y022840D02*
X002827Y022840D01*
X002827Y022999D02*
X003560Y022999D01*
X003560Y023157D02*
X003720Y023157D01*
X003720Y023316D02*
X003560Y023316D01*
X003560Y023474D02*
X003720Y023474D01*
X003720Y023633D02*
X003560Y023633D01*
X003560Y023791D02*
X003720Y023791D01*
X003277Y023791D02*
X002827Y023791D01*
X002827Y023633D02*
X003062Y023633D01*
X002941Y023474D02*
X002827Y023474D01*
X002827Y023316D02*
X002869Y023316D01*
X002835Y023157D02*
X002827Y023157D01*
X002827Y023950D02*
X006764Y023950D01*
X006764Y024108D02*
X002827Y024108D01*
X002827Y024267D02*
X006764Y024267D01*
X006764Y024425D02*
X002827Y024425D01*
X002827Y024584D02*
X006764Y024584D01*
X006764Y024742D02*
X002827Y024742D01*
X002827Y024901D02*
X006764Y024901D01*
X006764Y025059D02*
X002827Y025059D01*
X002827Y025218D02*
X006764Y025218D01*
X006764Y025376D02*
X002827Y025376D01*
X002827Y025535D02*
X006764Y025535D01*
X006764Y025693D02*
X002827Y025693D01*
X002827Y025852D02*
X006764Y025852D01*
X006764Y026010D02*
X002827Y026010D01*
X002827Y026169D02*
X006764Y026169D01*
X006764Y026327D02*
X002827Y026327D01*
X002827Y026486D02*
X006764Y026486D01*
X006764Y026644D02*
X002827Y026644D01*
X002827Y026803D02*
X006764Y026803D01*
X006764Y026961D02*
X002827Y026961D01*
X002827Y027120D02*
X006764Y027120D01*
X006764Y027278D02*
X002827Y027278D01*
X002827Y027437D02*
X006764Y027437D01*
X006764Y027595D02*
X002827Y027595D01*
X002827Y027754D02*
X006764Y027754D01*
X006764Y027912D02*
X002827Y027912D01*
X002827Y028071D02*
X002987Y028071D01*
X002978Y028079D02*
X003012Y028046D01*
X003053Y028022D01*
X003099Y028010D01*
X003537Y028010D01*
X003537Y028427D01*
X002942Y028427D01*
X002942Y028166D01*
X002955Y028120D01*
X002978Y028079D01*
X002942Y028229D02*
X002827Y028229D01*
X002827Y028388D02*
X002942Y028388D01*
X002827Y028546D02*
X003537Y028546D01*
X003692Y028546D02*
X005899Y028546D01*
X005899Y028427D02*
X005305Y028427D01*
X005305Y028166D01*
X005317Y028120D01*
X005341Y028079D01*
X005374Y028046D01*
X005415Y028022D01*
X005461Y028010D01*
X005899Y028010D01*
X005899Y028427D01*
X005899Y028388D02*
X006054Y028388D01*
X006054Y028546D02*
X006764Y028546D01*
X006764Y028388D02*
X006649Y028388D01*
X006649Y028229D02*
X006764Y028229D01*
X006764Y028071D02*
X006605Y028071D01*
X006054Y028071D02*
X005899Y028071D01*
X005899Y028229D02*
X006054Y028229D01*
X005349Y028071D02*
X004242Y028071D01*
X004287Y028229D02*
X005305Y028229D01*
X005305Y028388D02*
X004287Y028388D01*
X004287Y028705D02*
X005305Y028705D01*
X005310Y028863D02*
X004281Y028863D01*
X003692Y028388D02*
X003537Y028388D01*
X003537Y028229D02*
X003692Y028229D01*
X003692Y028071D02*
X003537Y028071D01*
X002942Y028705D02*
X002827Y028705D01*
X002827Y028863D02*
X002948Y028863D01*
X002827Y029784D02*
X002827Y033328D01*
X005977Y033328D01*
X007552Y031753D01*
X009126Y031753D01*
X009914Y030965D01*
X009914Y024272D01*
X026056Y024272D01*
X026056Y022304D01*
X008339Y022304D01*
X008339Y029784D01*
X006503Y029784D01*
X006538Y029794D01*
X006579Y029817D01*
X006613Y029851D01*
X006637Y029892D01*
X006649Y029938D01*
X006649Y030199D01*
X006054Y030199D01*
X006054Y030354D01*
X005899Y030354D01*
X005899Y030199D01*
X005305Y030199D01*
X005305Y029938D01*
X005317Y029892D01*
X005341Y029851D01*
X005374Y029817D01*
X005415Y029794D01*
X005450Y029784D01*
X004141Y029784D01*
X004176Y029794D01*
X004217Y029817D01*
X004251Y029851D01*
X004274Y029892D01*
X004287Y029938D01*
X004287Y030199D01*
X003692Y030199D01*
X003692Y030354D01*
X003537Y030354D01*
X003537Y030771D01*
X003099Y030771D01*
X003053Y030759D01*
X003012Y030735D01*
X002978Y030702D01*
X002955Y030661D01*
X002942Y030615D01*
X002942Y030354D01*
X003537Y030354D01*
X003537Y030199D01*
X002942Y030199D01*
X002942Y029938D01*
X002955Y029892D01*
X002978Y029851D01*
X003012Y029817D01*
X003053Y029794D01*
X003088Y029784D01*
X002827Y029784D01*
X002827Y029814D02*
X003017Y029814D01*
X002942Y029973D02*
X002827Y029973D01*
X002827Y030131D02*
X002942Y030131D01*
X002827Y030290D02*
X003537Y030290D01*
X003692Y030290D02*
X005899Y030290D01*
X005899Y030354D02*
X005305Y030354D01*
X005305Y030615D01*
X005317Y030661D01*
X005341Y030702D01*
X005374Y030735D01*
X005415Y030759D01*
X005461Y030771D01*
X005899Y030771D01*
X005899Y030354D01*
X005899Y030448D02*
X006054Y030448D01*
X006054Y030354D02*
X006054Y030771D01*
X006493Y030771D01*
X006538Y030759D01*
X006579Y030735D01*
X006613Y030702D01*
X006637Y030661D01*
X006649Y030615D01*
X006649Y030354D01*
X006054Y030354D01*
X006054Y030290D02*
X009914Y030290D01*
X009914Y030448D02*
X006649Y030448D01*
X006649Y030607D02*
X009914Y030607D01*
X009914Y030765D02*
X006515Y030765D01*
X006054Y030765D02*
X005899Y030765D01*
X005899Y030607D02*
X006054Y030607D01*
X005439Y030765D02*
X004152Y030765D01*
X004130Y030771D02*
X003692Y030771D01*
X003692Y030354D01*
X004287Y030354D01*
X004287Y030615D01*
X004274Y030661D01*
X004251Y030702D01*
X004217Y030735D01*
X004176Y030759D01*
X004130Y030771D01*
X004287Y030607D02*
X005305Y030607D01*
X005305Y030448D02*
X004287Y030448D01*
X004287Y030131D02*
X005305Y030131D01*
X005305Y029973D02*
X004287Y029973D01*
X004212Y029814D02*
X005379Y029814D01*
X006574Y029814D02*
X009914Y029814D01*
X009914Y029656D02*
X008339Y029656D01*
X008339Y029497D02*
X009914Y029497D01*
X009914Y029339D02*
X008339Y029339D01*
X008339Y029180D02*
X009914Y029180D01*
X009914Y029022D02*
X008339Y029022D01*
X008339Y028863D02*
X009914Y028863D01*
X009914Y028705D02*
X008339Y028705D01*
X008339Y028546D02*
X009914Y028546D01*
X009914Y028388D02*
X008339Y028388D01*
X008339Y028229D02*
X009914Y028229D01*
X009914Y028071D02*
X008339Y028071D01*
X008339Y027912D02*
X009914Y027912D01*
X009914Y027754D02*
X008339Y027754D01*
X008339Y027595D02*
X009914Y027595D01*
X009914Y027437D02*
X008339Y027437D01*
X008339Y027278D02*
X009914Y027278D01*
X009914Y027120D02*
X008339Y027120D01*
X008339Y026961D02*
X009914Y026961D01*
X009914Y026803D02*
X008339Y026803D01*
X008339Y026644D02*
X009914Y026644D01*
X009914Y026486D02*
X008339Y026486D01*
X008339Y026327D02*
X009914Y026327D01*
X009914Y026169D02*
X008339Y026169D01*
X008339Y026010D02*
X009914Y026010D01*
X009914Y025852D02*
X008339Y025852D01*
X008339Y025693D02*
X009914Y025693D01*
X009914Y025535D02*
X008339Y025535D01*
X008339Y025376D02*
X009914Y025376D01*
X009914Y025218D02*
X008339Y025218D01*
X008339Y025059D02*
X009914Y025059D01*
X009914Y024901D02*
X008339Y024901D01*
X008339Y024742D02*
X009914Y024742D01*
X009914Y024584D02*
X008339Y024584D01*
X008339Y024425D02*
X009914Y024425D01*
X011006Y023602D02*
X010947Y023521D01*
X010902Y023433D01*
X010871Y023338D01*
X010856Y023240D01*
X010856Y023218D01*
X011460Y023218D01*
X011460Y023161D01*
X011517Y023161D01*
X011517Y022557D01*
X011538Y022557D01*
X011637Y022573D01*
X011731Y022603D01*
X011820Y022649D01*
X011901Y022707D01*
X011971Y022778D01*
X012030Y022858D01*
X012075Y022947D01*
X012106Y023042D01*
X012121Y023140D01*
X012121Y023161D01*
X011517Y023161D01*
X011517Y023218D01*
X012121Y023218D01*
X012121Y023240D01*
X012106Y023338D01*
X012075Y023433D01*
X012030Y023521D01*
X011971Y023602D01*
X011901Y023672D01*
X011820Y023731D01*
X011731Y023776D01*
X011637Y023807D01*
X011538Y023823D01*
X011517Y023823D01*
X011517Y023218D01*
X011460Y023218D01*
X011460Y023823D01*
X011439Y023823D01*
X011340Y023807D01*
X011246Y023776D01*
X011157Y023731D01*
X011076Y023672D01*
X011006Y023602D01*
X011037Y023633D02*
X008339Y023633D01*
X008339Y023791D02*
X011293Y023791D01*
X011460Y023791D02*
X011517Y023791D01*
X011517Y023633D02*
X011460Y023633D01*
X011460Y023474D02*
X011517Y023474D01*
X011517Y023316D02*
X011460Y023316D01*
X011460Y023161D02*
X010856Y023161D01*
X010856Y023140D01*
X010871Y023042D01*
X010902Y022947D01*
X010947Y022858D01*
X011006Y022778D01*
X011076Y022707D01*
X011157Y022649D01*
X011246Y022603D01*
X011340Y022573D01*
X011439Y022557D01*
X011460Y022557D01*
X011460Y023161D01*
X011460Y023157D02*
X011517Y023157D01*
X011517Y022999D02*
X011460Y022999D01*
X011460Y022840D02*
X011517Y022840D01*
X011517Y022682D02*
X011460Y022682D01*
X011111Y022682D02*
X008339Y022682D01*
X008339Y022840D02*
X010960Y022840D01*
X010885Y022999D02*
X008339Y022999D01*
X008339Y023157D02*
X010856Y023157D01*
X010868Y023316D02*
X008339Y023316D01*
X008339Y023474D02*
X010923Y023474D01*
X011684Y023791D02*
X017986Y023791D01*
X017939Y023776D02*
X017850Y023731D01*
X017769Y023672D01*
X017699Y023602D01*
X017640Y023521D01*
X017595Y023433D01*
X017564Y023338D01*
X017549Y023240D01*
X017549Y023218D01*
X018153Y023218D01*
X018153Y023161D01*
X018210Y023161D01*
X018210Y022557D01*
X018231Y022557D01*
X018330Y022573D01*
X018424Y022603D01*
X018513Y022649D01*
X018594Y022707D01*
X018664Y022778D01*
X018723Y022858D01*
X018768Y022947D01*
X018799Y023042D01*
X018814Y023140D01*
X018814Y023161D01*
X018210Y023161D01*
X018210Y023218D01*
X018814Y023218D01*
X018814Y023240D01*
X018799Y023338D01*
X018768Y023433D01*
X018723Y023521D01*
X018664Y023602D01*
X018594Y023672D01*
X018513Y023731D01*
X018424Y023776D01*
X018330Y023807D01*
X018231Y023823D01*
X018210Y023823D01*
X018210Y023218D01*
X018153Y023218D01*
X018153Y023823D01*
X018132Y023823D01*
X018033Y023807D01*
X017939Y023776D01*
X018153Y023791D02*
X018210Y023791D01*
X018210Y023633D02*
X018153Y023633D01*
X018153Y023474D02*
X018210Y023474D01*
X018210Y023316D02*
X018153Y023316D01*
X018153Y023161D02*
X017549Y023161D01*
X017549Y023140D01*
X017564Y023042D01*
X017595Y022947D01*
X017640Y022858D01*
X017699Y022778D01*
X017769Y022707D01*
X017850Y022649D01*
X017939Y022603D01*
X018033Y022573D01*
X018132Y022557D01*
X018153Y022557D01*
X018153Y023161D01*
X018153Y023157D02*
X018210Y023157D01*
X018210Y022999D02*
X018153Y022999D01*
X018153Y022840D02*
X018210Y022840D01*
X018210Y022682D02*
X018153Y022682D01*
X017804Y022682D02*
X011866Y022682D01*
X012017Y022840D02*
X017653Y022840D01*
X017578Y022999D02*
X012092Y022999D01*
X012121Y023157D02*
X017549Y023157D01*
X017561Y023316D02*
X012109Y023316D01*
X012054Y023474D02*
X017616Y023474D01*
X017730Y023633D02*
X011940Y023633D01*
X011589Y021255D02*
X018081Y021255D01*
X018033Y021248D02*
X017939Y021217D01*
X017850Y021172D01*
X017769Y021113D01*
X017699Y021043D01*
X017640Y020962D01*
X017595Y020874D01*
X017564Y020779D01*
X017549Y020681D01*
X017549Y020659D01*
X018153Y020659D01*
X018153Y020602D01*
X018210Y020602D01*
X018210Y019998D01*
X018231Y019998D01*
X018330Y020014D01*
X018424Y020044D01*
X018513Y020090D01*
X018594Y020148D01*
X018664Y020218D01*
X018723Y020299D01*
X018768Y020388D01*
X018799Y020483D01*
X018814Y020581D01*
X018814Y020602D01*
X018210Y020602D01*
X018210Y020659D01*
X018814Y020659D01*
X018814Y020681D01*
X018799Y020779D01*
X018768Y020874D01*
X018723Y020962D01*
X018664Y021043D01*
X018594Y021113D01*
X018513Y021172D01*
X018424Y021217D01*
X018330Y021248D01*
X018231Y021263D01*
X018210Y021263D01*
X018210Y020659D01*
X018153Y020659D01*
X018153Y021263D01*
X018132Y021263D01*
X018033Y021248D01*
X018153Y021255D02*
X018210Y021255D01*
X018282Y021255D02*
X024774Y021255D01*
X024726Y021248D02*
X024632Y021217D01*
X024543Y021172D01*
X024462Y021113D01*
X024392Y021043D01*
X024333Y020962D01*
X024288Y020874D01*
X024257Y020779D01*
X024242Y020681D01*
X024242Y020659D01*
X024846Y020659D01*
X024846Y020602D01*
X024903Y020602D01*
X024903Y020659D01*
X025507Y020659D01*
X025507Y020681D01*
X025492Y020779D01*
X025461Y020874D01*
X025416Y020962D01*
X025357Y021043D01*
X025287Y021113D01*
X025206Y021172D01*
X025117Y021217D01*
X025023Y021248D01*
X024924Y021263D01*
X024903Y021263D01*
X024903Y020659D01*
X024846Y020659D01*
X024846Y021263D01*
X024825Y021263D01*
X024726Y021248D01*
X024846Y021255D02*
X024903Y021255D01*
X024975Y021255D02*
X026056Y021255D01*
X026056Y021097D02*
X025303Y021097D01*
X025428Y020938D02*
X026056Y020938D01*
X026056Y020780D02*
X025491Y020780D01*
X025507Y020602D02*
X024903Y020602D01*
X024903Y019998D01*
X024924Y019998D01*
X025023Y020014D01*
X025117Y020044D01*
X025206Y020090D01*
X025287Y020148D01*
X025357Y020218D01*
X025416Y020299D01*
X025461Y020388D01*
X025492Y020483D01*
X025507Y020581D01*
X025507Y020602D01*
X025485Y020463D02*
X026056Y020463D01*
X026056Y020621D02*
X024903Y020621D01*
X024846Y020621D02*
X018210Y020621D01*
X018153Y020621D02*
X011517Y020621D01*
X011517Y020602D02*
X011517Y020659D01*
X012121Y020659D01*
X012121Y020681D01*
X012106Y020779D01*
X012075Y020874D01*
X012030Y020962D01*
X011971Y021043D01*
X011901Y021113D01*
X011820Y021172D01*
X011731Y021217D01*
X011637Y021248D01*
X011538Y021263D01*
X011517Y021263D01*
X011517Y020659D01*
X011460Y020659D01*
X011460Y020602D01*
X011517Y020602D01*
X011517Y019998D01*
X011538Y019998D01*
X011637Y020014D01*
X011731Y020044D01*
X011820Y020090D01*
X011901Y020148D01*
X011971Y020218D01*
X012030Y020299D01*
X012075Y020388D01*
X012106Y020483D01*
X012121Y020581D01*
X012121Y020602D01*
X011517Y020602D01*
X011460Y020602D02*
X011460Y019998D01*
X011439Y019998D01*
X011340Y020014D01*
X011246Y020044D01*
X011157Y020090D01*
X011076Y020148D01*
X011006Y020218D01*
X010947Y020299D01*
X010902Y020388D01*
X010871Y020483D01*
X010856Y020581D01*
X010856Y020602D01*
X011460Y020602D01*
X011460Y020621D02*
X008339Y020621D01*
X008339Y020463D02*
X010878Y020463D01*
X010945Y020304D02*
X008339Y020304D01*
X008339Y020146D02*
X011079Y020146D01*
X011460Y020146D02*
X011517Y020146D01*
X011517Y020304D02*
X011460Y020304D01*
X011460Y020463D02*
X011517Y020463D01*
X011460Y020659D02*
X010856Y020659D01*
X010856Y020681D01*
X010871Y020779D01*
X010902Y020874D01*
X010947Y020962D01*
X011006Y021043D01*
X011076Y021113D01*
X011157Y021172D01*
X011246Y021217D01*
X011340Y021248D01*
X011439Y021263D01*
X011460Y021263D01*
X011460Y020659D01*
X011460Y020780D02*
X011517Y020780D01*
X011517Y020938D02*
X011460Y020938D01*
X011460Y021097D02*
X011517Y021097D01*
X011517Y021255D02*
X011460Y021255D01*
X011388Y021255D02*
X008339Y021255D01*
X008339Y021097D02*
X011060Y021097D01*
X010935Y020938D02*
X008339Y020938D01*
X008339Y020780D02*
X010872Y020780D01*
X011917Y021097D02*
X017753Y021097D01*
X017628Y020938D02*
X012042Y020938D01*
X012105Y020780D02*
X017565Y020780D01*
X017549Y020602D02*
X017549Y020581D01*
X017564Y020483D01*
X017595Y020388D01*
X017640Y020299D01*
X017699Y020218D01*
X017769Y020148D01*
X017850Y020090D01*
X017939Y020044D01*
X018033Y020014D01*
X018132Y019998D01*
X018153Y019998D01*
X018153Y020602D01*
X017549Y020602D01*
X017571Y020463D02*
X012099Y020463D01*
X012032Y020304D02*
X017638Y020304D01*
X017772Y020146D02*
X011898Y020146D01*
X009914Y019512D02*
X008339Y019512D01*
X008339Y019670D02*
X026056Y019670D01*
X026056Y019829D02*
X008339Y019829D01*
X008339Y019987D02*
X026056Y019987D01*
X026056Y020146D02*
X025284Y020146D01*
X025418Y020304D02*
X026056Y020304D01*
X026056Y021414D02*
X008339Y021414D01*
X008339Y022365D02*
X026056Y022365D01*
X026056Y022523D02*
X008339Y022523D01*
X008339Y023950D02*
X026056Y023950D01*
X026056Y024108D02*
X008339Y024108D01*
X008339Y024267D02*
X026056Y024267D01*
X026056Y023791D02*
X025070Y023791D01*
X025117Y023776D02*
X025023Y023807D01*
X024924Y023823D01*
X024903Y023823D01*
X024903Y023218D01*
X025507Y023218D01*
X025507Y023240D01*
X025492Y023338D01*
X025461Y023433D01*
X025416Y023521D01*
X025357Y023602D01*
X025287Y023672D01*
X025206Y023731D01*
X025117Y023776D01*
X024903Y023791D02*
X024846Y023791D01*
X024846Y023823D02*
X024825Y023823D01*
X024726Y023807D01*
X024632Y023776D01*
X024543Y023731D01*
X024462Y023672D01*
X024392Y023602D01*
X024333Y023521D01*
X024288Y023433D01*
X024257Y023338D01*
X024242Y023240D01*
X024242Y023218D01*
X024846Y023218D01*
X024846Y023161D01*
X024903Y023161D01*
X024903Y022557D01*
X024924Y022557D01*
X025023Y022573D01*
X025117Y022603D01*
X025206Y022649D01*
X025287Y022707D01*
X025357Y022778D01*
X025416Y022858D01*
X025461Y022947D01*
X025492Y023042D01*
X025507Y023140D01*
X025507Y023161D01*
X024903Y023161D01*
X024903Y023218D01*
X024846Y023218D01*
X024846Y023823D01*
X024679Y023791D02*
X018377Y023791D01*
X018633Y023633D02*
X024423Y023633D01*
X024309Y023474D02*
X018747Y023474D01*
X018802Y023316D02*
X024254Y023316D01*
X024242Y023161D02*
X024242Y023140D01*
X024257Y023042D01*
X024288Y022947D01*
X024333Y022858D01*
X024392Y022778D01*
X024462Y022707D01*
X024543Y022649D01*
X024632Y022603D01*
X024726Y022573D01*
X024825Y022557D01*
X024846Y022557D01*
X024846Y023161D01*
X024242Y023161D01*
X024242Y023157D02*
X018814Y023157D01*
X018785Y022999D02*
X024271Y022999D01*
X024346Y022840D02*
X018710Y022840D01*
X018559Y022682D02*
X024497Y022682D01*
X024846Y022682D02*
X024903Y022682D01*
X024903Y022840D02*
X024846Y022840D01*
X024846Y022999D02*
X024903Y022999D01*
X024903Y023157D02*
X024846Y023157D01*
X024846Y023316D02*
X024903Y023316D01*
X024903Y023474D02*
X024846Y023474D01*
X024846Y023633D02*
X024903Y023633D01*
X025326Y023633D02*
X026056Y023633D01*
X026056Y023474D02*
X025440Y023474D01*
X025495Y023316D02*
X026056Y023316D01*
X026056Y023157D02*
X025507Y023157D01*
X025478Y022999D02*
X026056Y022999D01*
X026056Y022840D02*
X025403Y022840D01*
X025252Y022682D02*
X026056Y022682D01*
X024903Y021097D02*
X024846Y021097D01*
X024846Y020938D02*
X024903Y020938D01*
X024903Y020780D02*
X024846Y020780D01*
X024846Y020602D02*
X024242Y020602D01*
X024242Y020581D01*
X024257Y020483D01*
X024288Y020388D01*
X024333Y020299D01*
X024392Y020218D01*
X024462Y020148D01*
X024543Y020090D01*
X024632Y020044D01*
X024726Y020014D01*
X024825Y019998D01*
X024846Y019998D01*
X024846Y020602D01*
X024846Y020463D02*
X024903Y020463D01*
X024903Y020304D02*
X024846Y020304D01*
X024846Y020146D02*
X024903Y020146D01*
X024465Y020146D02*
X018591Y020146D01*
X018725Y020304D02*
X024331Y020304D01*
X024264Y020463D02*
X018792Y020463D01*
X018798Y020780D02*
X024258Y020780D01*
X024321Y020938D02*
X018735Y020938D01*
X018610Y021097D02*
X024446Y021097D01*
X018210Y021097D02*
X018153Y021097D01*
X018153Y020938D02*
X018210Y020938D01*
X018210Y020780D02*
X018153Y020780D01*
X018153Y020463D02*
X018210Y020463D01*
X018210Y020304D02*
X018153Y020304D01*
X018153Y020146D02*
X018210Y020146D01*
X009914Y019353D02*
X008339Y019353D01*
X008339Y019195D02*
X009914Y019195D01*
X009914Y019036D02*
X008339Y019036D01*
X008339Y018878D02*
X009914Y018878D01*
X009914Y018719D02*
X008339Y018719D01*
X008339Y018561D02*
X009914Y018561D01*
X009914Y018402D02*
X008339Y018402D01*
X008339Y018244D02*
X009914Y018244D01*
X009914Y018085D02*
X008339Y018085D01*
X008339Y017927D02*
X009914Y017927D01*
X009914Y017768D02*
X008339Y017768D01*
X008339Y017610D02*
X009914Y017610D01*
X009914Y017451D02*
X008339Y017451D01*
X008339Y017293D02*
X009914Y017293D01*
X009914Y017134D02*
X008339Y017134D01*
X008339Y016976D02*
X009914Y016976D01*
X009914Y016817D02*
X008339Y016817D01*
X008339Y016659D02*
X009914Y016659D01*
X009914Y016500D02*
X008339Y016500D01*
X008339Y016342D02*
X009914Y016342D01*
X009914Y016183D02*
X008339Y016183D01*
X008339Y016025D02*
X009914Y016025D01*
X009914Y015866D02*
X008339Y015866D01*
X008339Y015708D02*
X009914Y015708D01*
X009914Y015549D02*
X008339Y015549D01*
X008339Y015391D02*
X009914Y015391D01*
X009914Y015232D02*
X008339Y015232D01*
X008339Y015074D02*
X009914Y015074D01*
X009914Y014915D02*
X008339Y014915D01*
X008339Y014757D02*
X009914Y014757D01*
X009914Y014598D02*
X008339Y014598D01*
X008339Y014440D02*
X009914Y014440D01*
X009914Y014281D02*
X008339Y014281D01*
X008339Y014123D02*
X009914Y014123D01*
X006054Y015549D02*
X005899Y015549D01*
X005899Y015708D02*
X006054Y015708D01*
X005321Y015708D02*
X004270Y015708D01*
X004287Y015549D02*
X005305Y015549D01*
X005305Y015232D02*
X004287Y015232D01*
X004287Y015074D02*
X005305Y015074D01*
X005326Y014915D02*
X004265Y014915D01*
X003692Y015549D02*
X003537Y015549D01*
X003537Y015708D02*
X003692Y015708D01*
X002942Y015232D02*
X002827Y015232D01*
X002827Y015074D02*
X002942Y015074D01*
X002964Y014915D02*
X002827Y014915D01*
X006756Y023157D02*
X006764Y023157D01*
X006764Y023316D02*
X006723Y023316D01*
X006764Y023474D02*
X006650Y023474D01*
X006764Y023633D02*
X006529Y023633D01*
X006314Y023791D02*
X006764Y023791D01*
X006764Y028705D02*
X006649Y028705D01*
X006644Y028863D02*
X006764Y028863D01*
X006649Y029973D02*
X009914Y029973D01*
X009914Y030131D02*
X006649Y030131D01*
X007429Y031875D02*
X002827Y031875D01*
X002827Y032033D02*
X007271Y032033D01*
X007112Y032192D02*
X002827Y032192D01*
X002827Y032350D02*
X006954Y032350D01*
X006795Y032509D02*
X002827Y032509D01*
X002827Y032667D02*
X006637Y032667D01*
X006478Y032826D02*
X002827Y032826D01*
X002827Y032984D02*
X006320Y032984D01*
X006161Y033143D02*
X002827Y033143D01*
X002827Y033301D02*
X006003Y033301D01*
X006764Y035296D02*
X002433Y035296D01*
X002433Y039233D01*
X006764Y039233D01*
X006764Y035296D01*
X006764Y035362D02*
X002433Y035362D01*
X002433Y035520D02*
X006764Y035520D01*
X006764Y035679D02*
X002433Y035679D01*
X002433Y035837D02*
X006764Y035837D01*
X006764Y035996D02*
X002433Y035996D01*
X002433Y036154D02*
X006764Y036154D01*
X006764Y036313D02*
X002433Y036313D01*
X002433Y036471D02*
X006764Y036471D01*
X006764Y036630D02*
X002433Y036630D01*
X002433Y036788D02*
X006764Y036788D01*
X006764Y036947D02*
X002433Y036947D01*
X002433Y037105D02*
X006764Y037105D01*
X006764Y037264D02*
X002433Y037264D01*
X002433Y037422D02*
X006764Y037422D01*
X006764Y037581D02*
X002433Y037581D01*
X002433Y037739D02*
X006764Y037739D01*
X006764Y037898D02*
X002433Y037898D01*
X002433Y038056D02*
X006764Y038056D01*
X006764Y038215D02*
X002433Y038215D01*
X002433Y038373D02*
X006764Y038373D01*
X006764Y038532D02*
X002433Y038532D01*
X002433Y038690D02*
X006764Y038690D01*
X006764Y038849D02*
X002433Y038849D01*
X002433Y039007D02*
X006764Y039007D01*
X006764Y039166D02*
X002433Y039166D01*
X002827Y031716D02*
X009163Y031716D01*
X009321Y031558D02*
X002827Y031558D01*
X002827Y031399D02*
X009480Y031399D01*
X009638Y031241D02*
X002827Y031241D01*
X002827Y031082D02*
X009797Y031082D01*
X009914Y030924D02*
X002827Y030924D01*
X002827Y030765D02*
X003077Y030765D01*
X002942Y030607D02*
X002827Y030607D01*
X002827Y030448D02*
X002942Y030448D01*
X003537Y030448D02*
X003692Y030448D01*
X003692Y030607D02*
X003537Y030607D01*
X003537Y030765D02*
X003692Y030765D01*
X039048Y030765D02*
X040986Y030765D01*
X040998Y030787D02*
X040951Y030706D01*
X040916Y030620D01*
X040892Y030530D01*
X040882Y030458D01*
X041523Y030458D01*
X041523Y030323D01*
X040882Y030323D01*
X040892Y030251D01*
X040916Y030161D01*
X040951Y030075D01*
X040998Y029994D01*
X041055Y029920D01*
X041121Y029854D01*
X041195Y029798D01*
X041276Y029751D01*
X041362Y029715D01*
X041452Y029691D01*
X041523Y029682D01*
X041523Y030323D01*
X041659Y030323D01*
X041659Y030458D01*
X042300Y030458D01*
X042290Y030530D01*
X042266Y030620D01*
X042230Y030706D01*
X042184Y030787D01*
X042127Y030861D01*
X042061Y030927D01*
X041987Y030983D01*
X041906Y031030D01*
X041820Y031066D01*
X041730Y031090D01*
X041659Y031099D01*
X041659Y030458D01*
X041523Y030458D01*
X041523Y031099D01*
X041452Y031090D01*
X041362Y031066D01*
X041276Y031030D01*
X041195Y030983D01*
X041121Y030927D01*
X041055Y030861D01*
X040998Y030787D01*
X041118Y030924D02*
X039048Y030924D01*
X039048Y031082D02*
X041424Y031082D01*
X041523Y031082D02*
X041659Y031082D01*
X041758Y031082D02*
X043424Y031082D01*
X043452Y031090D02*
X043362Y031066D01*
X043276Y031030D01*
X043195Y030983D01*
X043121Y030927D01*
X043055Y030861D01*
X042998Y030787D01*
X042951Y030706D01*
X042916Y030620D01*
X042892Y030530D01*
X042882Y030458D01*
X043523Y030458D01*
X043523Y030323D01*
X042882Y030323D01*
X042892Y030251D01*
X042911Y030180D01*
X042760Y030242D01*
X042422Y030242D01*
X042271Y030180D01*
X042290Y030251D01*
X042300Y030323D01*
X041659Y030323D01*
X041659Y029682D01*
X041730Y029691D01*
X041802Y029710D01*
X041739Y029560D01*
X041739Y029221D01*
X041802Y029071D01*
X041730Y029090D01*
X041659Y029099D01*
X041659Y028458D01*
X042300Y028458D01*
X042290Y028530D01*
X042271Y028601D01*
X042422Y028539D01*
X042760Y028539D01*
X042911Y028601D01*
X042892Y028530D01*
X042882Y028458D01*
X043523Y028458D01*
X043523Y028323D01*
X042882Y028323D01*
X042892Y028251D01*
X042916Y028161D01*
X042951Y028075D01*
X042998Y027994D01*
X043055Y027920D01*
X043121Y027854D01*
X043195Y027798D01*
X043276Y027751D01*
X043362Y027715D01*
X043452Y027691D01*
X043523Y027682D01*
X043523Y028323D01*
X043659Y028323D01*
X043659Y028458D01*
X044300Y028458D01*
X044290Y028530D01*
X044266Y028620D01*
X044230Y028706D01*
X044184Y028787D01*
X044127Y028861D01*
X044061Y028927D01*
X043987Y028983D01*
X043906Y029030D01*
X043820Y029066D01*
X043730Y029090D01*
X043659Y029099D01*
X043659Y028458D01*
X043523Y028458D01*
X043523Y029099D01*
X043452Y029090D01*
X043380Y029071D01*
X043442Y029221D01*
X043442Y029560D01*
X043380Y029710D01*
X043452Y029691D01*
X043523Y029682D01*
X043523Y030323D01*
X043659Y030323D01*
X043659Y030458D01*
X044300Y030458D01*
X044290Y030530D01*
X044266Y030620D01*
X044230Y030706D01*
X044184Y030787D01*
X044127Y030861D01*
X044061Y030927D01*
X043987Y030983D01*
X043906Y031030D01*
X043820Y031066D01*
X043730Y031090D01*
X043659Y031099D01*
X043659Y030458D01*
X043523Y030458D01*
X043523Y031099D01*
X043452Y031090D01*
X043523Y031082D02*
X043659Y031082D01*
X043758Y031082D02*
X044473Y031082D01*
X044473Y030924D02*
X044064Y030924D01*
X044196Y030765D02*
X044473Y030765D01*
X044473Y030607D02*
X044270Y030607D01*
X044473Y030448D02*
X043659Y030448D01*
X043659Y030323D02*
X044300Y030323D01*
X044290Y030251D01*
X044266Y030161D01*
X044230Y030075D01*
X044184Y029994D01*
X044127Y029920D01*
X044061Y029854D01*
X043987Y029798D01*
X043906Y029751D01*
X043820Y029715D01*
X043730Y029691D01*
X043659Y029682D01*
X043659Y030323D01*
X043659Y030290D02*
X043523Y030290D01*
X043523Y030448D02*
X041659Y030448D01*
X041523Y030448D02*
X039048Y030448D01*
X039048Y030290D02*
X040887Y030290D01*
X040928Y030131D02*
X039048Y030131D01*
X039048Y029973D02*
X041015Y029973D01*
X041173Y029814D02*
X039048Y029814D01*
X039048Y029656D02*
X041779Y029656D01*
X041739Y029497D02*
X039048Y029497D01*
X039048Y029339D02*
X041739Y029339D01*
X041756Y029180D02*
X039048Y029180D01*
X039048Y029022D02*
X041262Y029022D01*
X041276Y029030D02*
X041195Y028983D01*
X041121Y028927D01*
X041055Y028861D01*
X040998Y028787D01*
X040951Y028706D01*
X040916Y028620D01*
X040892Y028530D01*
X040882Y028458D01*
X041523Y028458D01*
X041523Y028323D01*
X040882Y028323D01*
X040892Y028251D01*
X040916Y028161D01*
X040951Y028075D01*
X040998Y027994D01*
X041055Y027920D01*
X041121Y027854D01*
X041195Y027798D01*
X041276Y027751D01*
X041362Y027715D01*
X041452Y027691D01*
X041523Y027682D01*
X041523Y028323D01*
X041659Y028323D01*
X041659Y028458D01*
X041523Y028458D01*
X041523Y029099D01*
X041452Y029090D01*
X041362Y029066D01*
X041276Y029030D01*
X041523Y029022D02*
X041659Y029022D01*
X041659Y028863D02*
X041523Y028863D01*
X041523Y028705D02*
X041659Y028705D01*
X041659Y028546D02*
X041523Y028546D01*
X041523Y028388D02*
X039048Y028388D01*
X039048Y028546D02*
X040896Y028546D01*
X040951Y028705D02*
X039048Y028705D01*
X039048Y028863D02*
X041058Y028863D01*
X040898Y028229D02*
X039048Y028229D01*
X039048Y028071D02*
X040954Y028071D01*
X041063Y027912D02*
X039048Y027912D01*
X039048Y027754D02*
X041271Y027754D01*
X041523Y027754D02*
X041659Y027754D01*
X041659Y027682D02*
X041730Y027691D01*
X041820Y027715D01*
X041906Y027751D01*
X041987Y027798D01*
X042061Y027854D01*
X042127Y027920D01*
X042184Y027994D01*
X042230Y028075D01*
X042266Y028161D01*
X042290Y028251D01*
X042300Y028323D01*
X041659Y028323D01*
X041659Y027682D01*
X041659Y027912D02*
X041523Y027912D01*
X041523Y028071D02*
X041659Y028071D01*
X041659Y028229D02*
X041523Y028229D01*
X041659Y028388D02*
X043523Y028388D01*
X043659Y028388D02*
X044473Y028388D01*
X044473Y028546D02*
X044286Y028546D01*
X044231Y028705D02*
X044473Y028705D01*
X044473Y028863D02*
X044124Y028863D01*
X043920Y029022D02*
X044473Y029022D01*
X044473Y029180D02*
X043426Y029180D01*
X043442Y029339D02*
X044473Y029339D01*
X044473Y029497D02*
X043442Y029497D01*
X043403Y029656D02*
X044473Y029656D01*
X044473Y029814D02*
X044009Y029814D01*
X044167Y029973D02*
X044473Y029973D01*
X044473Y030131D02*
X044254Y030131D01*
X044295Y030290D02*
X044473Y030290D01*
X044473Y031241D02*
X039048Y031241D01*
X039048Y031399D02*
X044473Y031399D01*
X044473Y031558D02*
X039048Y031558D01*
X039048Y031716D02*
X044473Y031716D01*
X044473Y031875D02*
X039048Y031875D01*
X039048Y032033D02*
X044473Y032033D01*
X044473Y032146D02*
X044473Y012068D01*
X039048Y012068D01*
X039048Y032146D01*
X044473Y032146D01*
X043659Y030924D02*
X043523Y030924D01*
X043523Y030765D02*
X043659Y030765D01*
X043659Y030607D02*
X043523Y030607D01*
X043523Y030131D02*
X043659Y030131D01*
X043659Y029973D02*
X043523Y029973D01*
X043523Y029814D02*
X043659Y029814D01*
X042887Y030290D02*
X042295Y030290D01*
X042270Y030607D02*
X042912Y030607D01*
X042986Y030765D02*
X042196Y030765D01*
X042064Y030924D02*
X043118Y030924D01*
X041659Y030924D02*
X041523Y030924D01*
X041523Y030765D02*
X041659Y030765D01*
X041659Y030607D02*
X041523Y030607D01*
X041523Y030290D02*
X041659Y030290D01*
X041659Y030131D02*
X041523Y030131D01*
X041523Y029973D02*
X041659Y029973D01*
X041659Y029814D02*
X041523Y029814D01*
X040912Y030607D02*
X039048Y030607D01*
X039048Y027595D02*
X044473Y027595D01*
X044473Y027437D02*
X039048Y027437D01*
X039048Y027278D02*
X044473Y027278D01*
X044473Y027120D02*
X039048Y027120D01*
X039048Y026961D02*
X044473Y026961D01*
X044473Y026803D02*
X039048Y026803D01*
X039048Y026644D02*
X044473Y026644D01*
X044473Y026486D02*
X043817Y026486D01*
X043804Y026497D02*
X043712Y026550D01*
X043614Y026590D01*
X043511Y026618D01*
X043433Y026628D01*
X043433Y025902D01*
X043273Y025902D01*
X043273Y026628D01*
X043194Y026618D01*
X043092Y026590D01*
X042994Y026550D01*
X042902Y026497D01*
X042818Y026432D01*
X042743Y026357D01*
X042678Y026273D01*
X042625Y026181D01*
X042584Y026083D01*
X042557Y025980D01*
X042546Y025902D01*
X043273Y025902D01*
X043273Y025742D01*
X042546Y025742D01*
X042557Y025663D01*
X042584Y025561D01*
X042625Y025463D01*
X042678Y025371D01*
X042743Y025286D01*
X042818Y025211D01*
X042902Y025147D01*
X042994Y025094D01*
X043092Y025053D01*
X043194Y025026D01*
X043273Y025015D01*
X043273Y025742D01*
X043433Y025742D01*
X043433Y025902D01*
X044159Y025902D01*
X044149Y025980D01*
X044121Y026083D01*
X044081Y026181D01*
X044028Y026273D01*
X043963Y026357D01*
X043888Y026432D01*
X043804Y026497D01*
X043986Y026327D02*
X044473Y026327D01*
X044473Y026169D02*
X044086Y026169D01*
X044141Y026010D02*
X044473Y026010D01*
X044473Y025852D02*
X043433Y025852D01*
X043433Y025742D02*
X044159Y025742D01*
X044149Y025663D01*
X044121Y025561D01*
X044081Y025463D01*
X044028Y025371D01*
X043963Y025286D01*
X043888Y025211D01*
X043804Y025147D01*
X043712Y025094D01*
X043614Y025053D01*
X043511Y025026D01*
X043433Y025015D01*
X043433Y025742D01*
X043433Y025693D02*
X043273Y025693D01*
X043273Y025535D02*
X043433Y025535D01*
X043433Y025376D02*
X043273Y025376D01*
X043273Y025218D02*
X043433Y025218D01*
X043433Y025059D02*
X043273Y025059D01*
X043076Y025059D02*
X041318Y025059D01*
X041303Y025053D02*
X041401Y025094D01*
X041493Y025147D01*
X041577Y025211D01*
X041652Y025286D01*
X041717Y025371D01*
X041770Y025463D01*
X041810Y025561D01*
X041838Y025663D01*
X041848Y025742D01*
X041122Y025742D01*
X041122Y025902D01*
X040962Y025902D01*
X040962Y026628D01*
X040883Y026618D01*
X040781Y026590D01*
X040683Y026550D01*
X040591Y026497D01*
X040507Y026432D01*
X040431Y026357D01*
X040367Y026273D01*
X040314Y026181D01*
X040273Y026083D01*
X040246Y025980D01*
X040235Y025902D01*
X040962Y025902D01*
X040962Y025742D01*
X040235Y025742D01*
X040246Y025663D01*
X040273Y025561D01*
X040314Y025463D01*
X040367Y025371D01*
X040431Y025286D01*
X040507Y025211D01*
X040591Y025147D01*
X040683Y025094D01*
X040781Y025053D01*
X040883Y025026D01*
X040962Y025015D01*
X040962Y025742D01*
X041122Y025742D01*
X041122Y025015D01*
X041200Y025026D01*
X041303Y025053D01*
X041122Y025059D02*
X040962Y025059D01*
X040962Y025218D02*
X041122Y025218D01*
X041122Y025376D02*
X040962Y025376D01*
X040962Y025535D02*
X041122Y025535D01*
X041122Y025693D02*
X040962Y025693D01*
X040962Y025852D02*
X039048Y025852D01*
X039048Y026010D02*
X040254Y026010D01*
X040309Y026169D02*
X039048Y026169D01*
X039048Y026327D02*
X040409Y026327D01*
X040577Y026486D02*
X039048Y026486D01*
X039048Y025693D02*
X040242Y025693D01*
X040284Y025535D02*
X039048Y025535D01*
X039048Y025376D02*
X040364Y025376D01*
X040500Y025218D02*
X039048Y025218D01*
X039048Y025059D02*
X040765Y025059D01*
X040883Y024307D02*
X040781Y024279D01*
X040683Y024239D01*
X040591Y024185D01*
X040507Y024121D01*
X040431Y024046D01*
X040367Y023962D01*
X040314Y023870D01*
X040273Y023772D01*
X040246Y023669D01*
X040235Y023591D01*
X040962Y023591D01*
X040962Y024317D01*
X040883Y024307D01*
X040962Y024267D02*
X041122Y024267D01*
X041122Y024317D02*
X041200Y024307D01*
X041303Y024279D01*
X041401Y024239D01*
X041493Y024185D01*
X041577Y024121D01*
X041652Y024046D01*
X041717Y023962D01*
X041770Y023870D01*
X041810Y023772D01*
X041838Y023669D01*
X041848Y023591D01*
X041122Y023591D01*
X040962Y023591D01*
X040962Y023431D01*
X040235Y023431D01*
X040246Y023352D01*
X040273Y023250D01*
X040314Y023152D01*
X040367Y023060D01*
X040431Y022975D01*
X040507Y022900D01*
X040591Y022836D01*
X040683Y022783D01*
X040781Y022742D01*
X040883Y022715D01*
X040962Y022704D01*
X040962Y023431D01*
X041122Y023431D01*
X041122Y023591D01*
X041122Y024317D01*
X041122Y024108D02*
X040962Y024108D01*
X040962Y023950D02*
X041122Y023950D01*
X041122Y023791D02*
X040962Y023791D01*
X040962Y023633D02*
X041122Y023633D01*
X041122Y023474D02*
X043273Y023474D01*
X043273Y023431D02*
X042546Y023431D01*
X042557Y023352D01*
X042584Y023250D01*
X042625Y023152D01*
X042678Y023060D01*
X042743Y022975D01*
X042818Y022900D01*
X042902Y022836D01*
X042994Y022783D01*
X043092Y022742D01*
X043194Y022715D01*
X043273Y022704D01*
X043273Y023431D01*
X043273Y023591D01*
X043273Y024317D01*
X043194Y024307D01*
X043092Y024279D01*
X042994Y024239D01*
X042902Y024185D01*
X042818Y024121D01*
X042743Y024046D01*
X042678Y023962D01*
X042625Y023870D01*
X042584Y023772D01*
X042557Y023669D01*
X042546Y023591D01*
X043273Y023591D01*
X043433Y023591D01*
X043433Y024317D01*
X043511Y024307D01*
X043614Y024279D01*
X043712Y024239D01*
X043804Y024185D01*
X043888Y024121D01*
X043963Y024046D01*
X044028Y023962D01*
X044081Y023870D01*
X044121Y023772D01*
X044149Y023669D01*
X044159Y023591D01*
X043433Y023591D01*
X043433Y023431D01*
X044159Y023431D01*
X044149Y023352D01*
X044121Y023250D01*
X044081Y023152D01*
X044028Y023060D01*
X043963Y022975D01*
X043888Y022900D01*
X043804Y022836D01*
X043712Y022783D01*
X043614Y022742D01*
X043511Y022715D01*
X043433Y022704D01*
X043433Y023431D01*
X043273Y023431D01*
X043273Y023316D02*
X043433Y023316D01*
X043433Y023474D02*
X044473Y023474D01*
X044473Y023316D02*
X044139Y023316D01*
X044083Y023157D02*
X044473Y023157D01*
X044473Y022999D02*
X043981Y022999D01*
X043810Y022840D02*
X044473Y022840D01*
X044473Y022682D02*
X039048Y022682D01*
X039048Y022840D02*
X040585Y022840D01*
X040413Y022999D02*
X039048Y022999D01*
X039048Y023157D02*
X040311Y023157D01*
X040255Y023316D02*
X039048Y023316D01*
X039048Y023474D02*
X040962Y023474D01*
X040962Y023316D02*
X041122Y023316D01*
X041122Y023431D02*
X041122Y022704D01*
X041200Y022715D01*
X041303Y022742D01*
X041401Y022783D01*
X041493Y022836D01*
X041577Y022900D01*
X041652Y022975D01*
X041717Y023060D01*
X041770Y023152D01*
X041810Y023250D01*
X041838Y023352D01*
X041848Y023431D01*
X041122Y023431D01*
X041122Y023157D02*
X040962Y023157D01*
X040962Y022999D02*
X041122Y022999D01*
X041122Y022840D02*
X040962Y022840D01*
X041499Y022840D02*
X042896Y022840D01*
X042725Y022999D02*
X041670Y022999D01*
X041772Y023157D02*
X042622Y023157D01*
X042566Y023316D02*
X041828Y023316D01*
X041843Y023633D02*
X042552Y023633D01*
X042592Y023791D02*
X041802Y023791D01*
X041723Y023950D02*
X042671Y023950D01*
X042805Y024108D02*
X041589Y024108D01*
X041332Y024267D02*
X043062Y024267D01*
X043273Y024267D02*
X043433Y024267D01*
X043433Y024108D02*
X043273Y024108D01*
X043273Y023950D02*
X043433Y023950D01*
X043433Y023791D02*
X043273Y023791D01*
X043273Y023633D02*
X043433Y023633D01*
X043433Y023157D02*
X043273Y023157D01*
X043273Y022999D02*
X043433Y022999D01*
X043433Y022840D02*
X043273Y022840D01*
X044154Y023633D02*
X044473Y023633D01*
X044473Y023791D02*
X044113Y023791D01*
X044034Y023950D02*
X044473Y023950D01*
X044473Y024108D02*
X043900Y024108D01*
X043643Y024267D02*
X044473Y024267D01*
X044473Y024425D02*
X039048Y024425D01*
X039048Y024267D02*
X040751Y024267D01*
X040494Y024108D02*
X039048Y024108D01*
X039048Y023950D02*
X040360Y023950D01*
X040281Y023791D02*
X039048Y023791D01*
X039048Y023633D02*
X040241Y023633D01*
X039048Y024584D02*
X044473Y024584D01*
X044473Y024742D02*
X039048Y024742D01*
X039048Y024901D02*
X044473Y024901D01*
X044473Y025059D02*
X043629Y025059D01*
X043894Y025218D02*
X044473Y025218D01*
X044473Y025376D02*
X044031Y025376D01*
X044111Y025535D02*
X044473Y025535D01*
X044473Y025693D02*
X044153Y025693D01*
X043433Y026010D02*
X043273Y026010D01*
X043273Y025852D02*
X041122Y025852D01*
X041122Y025902D02*
X041848Y025902D01*
X041838Y025980D01*
X041810Y026083D01*
X041770Y026181D01*
X041717Y026273D01*
X041652Y026357D01*
X041577Y026432D01*
X041493Y026497D01*
X041401Y026550D01*
X041303Y026590D01*
X041200Y026618D01*
X041122Y026628D01*
X041122Y025902D01*
X041122Y026010D02*
X040962Y026010D01*
X040962Y026169D02*
X041122Y026169D01*
X041122Y026327D02*
X040962Y026327D01*
X040962Y026486D02*
X041122Y026486D01*
X041506Y026486D02*
X042888Y026486D01*
X042720Y026327D02*
X041675Y026327D01*
X041775Y026169D02*
X042620Y026169D01*
X042565Y026010D02*
X041830Y026010D01*
X041842Y025693D02*
X042553Y025693D01*
X042595Y025535D02*
X041800Y025535D01*
X041720Y025376D02*
X042675Y025376D01*
X042811Y025218D02*
X041583Y025218D01*
X043273Y026169D02*
X043433Y026169D01*
X043433Y026327D02*
X043273Y026327D01*
X043273Y026486D02*
X043433Y026486D01*
X043659Y027682D02*
X043730Y027691D01*
X043820Y027715D01*
X043906Y027751D01*
X043987Y027798D01*
X044061Y027854D01*
X044127Y027920D01*
X044184Y027994D01*
X044230Y028075D01*
X044266Y028161D01*
X044290Y028251D01*
X044300Y028323D01*
X043659Y028323D01*
X043659Y027682D01*
X043659Y027754D02*
X043523Y027754D01*
X043523Y027912D02*
X043659Y027912D01*
X043659Y028071D02*
X043523Y028071D01*
X043523Y028229D02*
X043659Y028229D01*
X043659Y028546D02*
X043523Y028546D01*
X043523Y028705D02*
X043659Y028705D01*
X043659Y028863D02*
X043523Y028863D01*
X043523Y029022D02*
X043659Y029022D01*
X042896Y028546D02*
X042778Y028546D01*
X042898Y028229D02*
X042284Y028229D01*
X042228Y028071D02*
X042954Y028071D01*
X043063Y027912D02*
X042119Y027912D01*
X041911Y027754D02*
X043271Y027754D01*
X042404Y028546D02*
X042286Y028546D01*
X043911Y027754D02*
X044473Y027754D01*
X044473Y027912D02*
X044119Y027912D01*
X044228Y028071D02*
X044473Y028071D01*
X044473Y028229D02*
X044284Y028229D01*
X044473Y022523D02*
X039048Y022523D01*
X039048Y022365D02*
X044473Y022365D01*
X044473Y022206D02*
X039048Y022206D01*
X039048Y022048D02*
X044473Y022048D01*
X044473Y021889D02*
X039048Y021889D01*
X039048Y021731D02*
X044473Y021731D01*
X044473Y021572D02*
X039048Y021572D01*
X039048Y021414D02*
X044473Y021414D01*
X044473Y021255D02*
X039048Y021255D01*
X039048Y021097D02*
X040850Y021097D01*
X040883Y021106D02*
X040781Y021078D01*
X040683Y021038D01*
X040591Y020985D01*
X040507Y020920D01*
X040431Y020845D01*
X040367Y020761D01*
X040314Y020669D01*
X040273Y020571D01*
X040246Y020468D01*
X040235Y020390D01*
X040962Y020390D01*
X040962Y021116D01*
X040883Y021106D01*
X040962Y021097D02*
X041122Y021097D01*
X041122Y021116D02*
X041200Y021106D01*
X041303Y021078D01*
X041401Y021038D01*
X041493Y020985D01*
X041577Y020920D01*
X041652Y020845D01*
X041717Y020761D01*
X041770Y020669D01*
X041810Y020571D01*
X041838Y020468D01*
X041848Y020390D01*
X041122Y020390D01*
X041122Y020230D01*
X041848Y020230D01*
X041838Y020151D01*
X041810Y020049D01*
X041770Y019951D01*
X041717Y019859D01*
X041652Y019775D01*
X041577Y019700D01*
X041493Y019635D01*
X041401Y019582D01*
X041303Y019541D01*
X041200Y019514D01*
X041122Y019503D01*
X041122Y020230D01*
X040962Y020230D01*
X040962Y019503D01*
X040883Y019514D01*
X040781Y019541D01*
X040683Y019582D01*
X040591Y019635D01*
X040507Y019700D01*
X040431Y019775D01*
X040367Y019859D01*
X040314Y019951D01*
X040273Y020049D01*
X040246Y020151D01*
X040235Y020230D01*
X040962Y020230D01*
X040962Y020390D01*
X041122Y020390D01*
X041122Y021116D01*
X041234Y021097D02*
X043161Y021097D01*
X043194Y021106D02*
X043092Y021078D01*
X042994Y021038D01*
X042902Y020985D01*
X042818Y020920D01*
X042743Y020845D01*
X042678Y020761D01*
X042625Y020669D01*
X042584Y020571D01*
X042557Y020468D01*
X042546Y020390D01*
X043273Y020390D01*
X043273Y021116D01*
X043194Y021106D01*
X043273Y021097D02*
X043433Y021097D01*
X043433Y021116D02*
X043511Y021106D01*
X043614Y021078D01*
X043712Y021038D01*
X043804Y020985D01*
X043888Y020920D01*
X043963Y020845D01*
X044028Y020761D01*
X044081Y020669D01*
X044121Y020571D01*
X044149Y020468D01*
X044159Y020390D01*
X043433Y020390D01*
X043433Y020230D01*
X044159Y020230D01*
X044149Y020151D01*
X044121Y020049D01*
X044081Y019951D01*
X044028Y019859D01*
X043963Y019775D01*
X043888Y019700D01*
X043804Y019635D01*
X043712Y019582D01*
X043614Y019541D01*
X043511Y019514D01*
X043433Y019503D01*
X043433Y020230D01*
X043273Y020230D01*
X043273Y019503D01*
X043194Y019514D01*
X043092Y019541D01*
X042994Y019582D01*
X042902Y019635D01*
X042818Y019700D01*
X042743Y019775D01*
X042678Y019859D01*
X042625Y019951D01*
X042584Y020049D01*
X042557Y020151D01*
X042546Y020230D01*
X043273Y020230D01*
X043273Y020390D01*
X043433Y020390D01*
X043433Y021116D01*
X043545Y021097D02*
X044473Y021097D01*
X044473Y020938D02*
X043864Y020938D01*
X044013Y020780D02*
X044473Y020780D01*
X044473Y020621D02*
X044100Y020621D01*
X044150Y020463D02*
X044473Y020463D01*
X044473Y020304D02*
X043433Y020304D01*
X043433Y020146D02*
X043273Y020146D01*
X043273Y020304D02*
X041122Y020304D01*
X041122Y020146D02*
X040962Y020146D01*
X040962Y020304D02*
X039048Y020304D01*
X039048Y020146D02*
X040247Y020146D01*
X040299Y019987D02*
X039048Y019987D01*
X039048Y019829D02*
X040390Y019829D01*
X040545Y019670D02*
X039048Y019670D01*
X039048Y019512D02*
X040897Y019512D01*
X040962Y019512D02*
X041122Y019512D01*
X041186Y019512D02*
X043209Y019512D01*
X043273Y019512D02*
X043433Y019512D01*
X043497Y019512D02*
X044473Y019512D01*
X044473Y019670D02*
X043850Y019670D01*
X044005Y019829D02*
X044473Y019829D01*
X044473Y019987D02*
X044096Y019987D01*
X044147Y020146D02*
X044473Y020146D01*
X044473Y019353D02*
X039048Y019353D01*
X039048Y019195D02*
X044473Y019195D01*
X044473Y019036D02*
X039048Y019036D01*
X039048Y018878D02*
X044473Y018878D01*
X044473Y018719D02*
X043724Y018719D01*
X043712Y018727D02*
X043614Y018767D01*
X043511Y018795D01*
X043433Y018805D01*
X043433Y018079D01*
X044159Y018079D01*
X044149Y018157D01*
X044121Y018260D01*
X044081Y018358D01*
X044028Y018450D01*
X043963Y018534D01*
X043888Y018609D01*
X043804Y018674D01*
X043712Y018727D01*
X043936Y018561D02*
X044473Y018561D01*
X044473Y018402D02*
X044055Y018402D01*
X044126Y018244D02*
X044473Y018244D01*
X044473Y018085D02*
X044158Y018085D01*
X044159Y017919D02*
X043433Y017919D01*
X043433Y018079D01*
X043273Y018079D01*
X043273Y018805D01*
X043194Y018795D01*
X043092Y018767D01*
X042994Y018727D01*
X042902Y018674D01*
X042818Y018609D01*
X042743Y018534D01*
X042678Y018450D01*
X042625Y018358D01*
X042584Y018260D01*
X042557Y018157D01*
X042546Y018079D01*
X043273Y018079D01*
X043273Y017919D01*
X043433Y017919D01*
X043433Y017192D01*
X043511Y017203D01*
X043614Y017230D01*
X043712Y017271D01*
X043804Y017324D01*
X043888Y017389D01*
X043963Y017464D01*
X044028Y017548D01*
X044081Y017640D01*
X044121Y017738D01*
X044149Y017840D01*
X044159Y017919D01*
X044130Y017768D02*
X044473Y017768D01*
X044473Y017610D02*
X044063Y017610D01*
X043951Y017451D02*
X044473Y017451D01*
X044473Y017293D02*
X043750Y017293D01*
X043433Y017293D02*
X043273Y017293D01*
X043273Y017192D02*
X043273Y017919D01*
X042546Y017919D01*
X042557Y017840D01*
X042584Y017738D01*
X042625Y017640D01*
X042678Y017548D01*
X042743Y017464D01*
X042818Y017389D01*
X042902Y017324D01*
X042994Y017271D01*
X043092Y017230D01*
X043194Y017203D01*
X043273Y017192D01*
X043273Y017451D02*
X043433Y017451D01*
X043433Y017610D02*
X043273Y017610D01*
X043273Y017768D02*
X043433Y017768D01*
X043433Y017927D02*
X044473Y017927D01*
X044473Y017134D02*
X039048Y017134D01*
X039048Y016976D02*
X044473Y016976D01*
X044473Y016817D02*
X039048Y016817D01*
X039048Y016659D02*
X044473Y016659D01*
X044473Y016500D02*
X043814Y016500D01*
X043820Y016499D02*
X043730Y016523D01*
X043659Y016532D01*
X043659Y015891D01*
X044300Y015891D01*
X044290Y015963D01*
X044266Y016053D01*
X044230Y016139D01*
X044184Y016220D01*
X044127Y016294D01*
X044061Y016360D01*
X043987Y016416D01*
X043906Y016463D01*
X043820Y016499D01*
X043659Y016500D02*
X043523Y016500D01*
X043523Y016532D02*
X043523Y015891D01*
X043523Y015756D01*
X042882Y015756D01*
X042892Y015685D01*
X042911Y015613D01*
X042760Y015675D01*
X042422Y015675D01*
X042271Y015613D01*
X042290Y015685D01*
X042300Y015756D01*
X041659Y015756D01*
X041659Y015891D01*
X042300Y015891D01*
X042290Y015963D01*
X042266Y016053D01*
X042230Y016139D01*
X042184Y016220D01*
X042127Y016294D01*
X042061Y016360D01*
X041987Y016416D01*
X041906Y016463D01*
X041820Y016499D01*
X041730Y016523D01*
X041659Y016532D01*
X041659Y015891D01*
X041523Y015891D01*
X041523Y015756D01*
X040882Y015756D01*
X040892Y015685D01*
X040916Y015594D01*
X040951Y015508D01*
X040998Y015427D01*
X041055Y015353D01*
X041121Y015288D01*
X041195Y015231D01*
X041276Y015184D01*
X041362Y015148D01*
X041452Y015124D01*
X041523Y015115D01*
X041523Y015756D01*
X041659Y015756D01*
X041659Y015115D01*
X041730Y015124D01*
X041802Y015144D01*
X041739Y014993D01*
X041739Y014654D01*
X041802Y014504D01*
X041730Y014523D01*
X041659Y014532D01*
X041659Y013891D01*
X042300Y013891D01*
X042290Y013963D01*
X042271Y014034D01*
X042422Y013972D01*
X042760Y013972D01*
X042911Y014034D01*
X042892Y013963D01*
X042882Y013891D01*
X043523Y013891D01*
X043523Y013756D01*
X042882Y013756D01*
X042892Y013685D01*
X042916Y013594D01*
X042951Y013508D01*
X042998Y013427D01*
X043055Y013353D01*
X043121Y013288D01*
X043195Y013231D01*
X043276Y013184D01*
X043362Y013148D01*
X043452Y013124D01*
X043523Y013115D01*
X043523Y013756D01*
X043659Y013756D01*
X043659Y013891D01*
X044300Y013891D01*
X044290Y013963D01*
X044266Y014053D01*
X044230Y014139D01*
X044184Y014220D01*
X044127Y014294D01*
X044061Y014360D01*
X043987Y014416D01*
X043906Y014463D01*
X043820Y014499D01*
X043730Y014523D01*
X043659Y014532D01*
X043659Y013891D01*
X043523Y013891D01*
X043523Y014532D01*
X043452Y014523D01*
X043380Y014504D01*
X043442Y014654D01*
X043442Y014993D01*
X043380Y015144D01*
X043452Y015124D01*
X043523Y015115D01*
X043523Y015756D01*
X043659Y015756D01*
X043659Y015891D01*
X043523Y015891D01*
X042882Y015891D01*
X042892Y015963D01*
X042916Y016053D01*
X042951Y016139D01*
X042998Y016220D01*
X043055Y016294D01*
X043121Y016360D01*
X043195Y016416D01*
X043276Y016463D01*
X043362Y016499D01*
X043452Y016523D01*
X043523Y016532D01*
X043368Y016500D02*
X041814Y016500D01*
X041659Y016500D02*
X041523Y016500D01*
X041523Y016532D02*
X041523Y015891D01*
X040882Y015891D01*
X040892Y015963D01*
X040916Y016053D01*
X040951Y016139D01*
X040998Y016220D01*
X041055Y016294D01*
X041121Y016360D01*
X041195Y016416D01*
X041276Y016463D01*
X041362Y016499D01*
X041452Y016523D01*
X041523Y016532D01*
X041368Y016500D02*
X039048Y016500D01*
X039048Y016342D02*
X041103Y016342D01*
X040977Y016183D02*
X039048Y016183D01*
X039048Y016025D02*
X040908Y016025D01*
X040889Y015708D02*
X039048Y015708D01*
X039048Y015866D02*
X041523Y015866D01*
X041659Y015866D02*
X043523Y015866D01*
X043659Y015866D02*
X044473Y015866D01*
X044473Y015708D02*
X044293Y015708D01*
X044290Y015685D02*
X044300Y015756D01*
X043659Y015756D01*
X043659Y015115D01*
X043730Y015124D01*
X043820Y015148D01*
X043906Y015184D01*
X043987Y015231D01*
X044061Y015288D01*
X044127Y015353D01*
X044184Y015427D01*
X044230Y015508D01*
X044266Y015594D01*
X044290Y015685D01*
X044247Y015549D02*
X044473Y015549D01*
X044473Y015391D02*
X044156Y015391D01*
X043989Y015232D02*
X044473Y015232D01*
X044473Y015074D02*
X043409Y015074D01*
X043442Y014915D02*
X044473Y014915D01*
X044473Y014757D02*
X043442Y014757D01*
X043419Y014598D02*
X044473Y014598D01*
X044473Y014440D02*
X043946Y014440D01*
X044136Y014281D02*
X044473Y014281D01*
X044473Y014123D02*
X044237Y014123D01*
X044290Y013964D02*
X044473Y013964D01*
X044473Y013806D02*
X043659Y013806D01*
X043659Y013756D02*
X044300Y013756D01*
X044290Y013685D01*
X044266Y013594D01*
X044230Y013508D01*
X044184Y013427D01*
X044127Y013353D01*
X044061Y013288D01*
X043987Y013231D01*
X043906Y013184D01*
X043820Y013148D01*
X043730Y013124D01*
X043659Y013115D01*
X043659Y013756D01*
X043659Y013647D02*
X043523Y013647D01*
X043523Y013489D02*
X043659Y013489D01*
X043659Y013330D02*
X043523Y013330D01*
X043523Y013172D02*
X043659Y013172D01*
X043877Y013172D02*
X044473Y013172D01*
X044473Y013330D02*
X044104Y013330D01*
X044219Y013489D02*
X044473Y013489D01*
X044473Y013647D02*
X044280Y013647D01*
X044473Y013013D02*
X039048Y013013D01*
X039048Y012855D02*
X044473Y012855D01*
X044473Y012696D02*
X039048Y012696D01*
X039048Y012538D02*
X044473Y012538D01*
X044473Y012379D02*
X039048Y012379D01*
X039048Y012221D02*
X044473Y012221D01*
X043305Y013172D02*
X041877Y013172D01*
X041906Y013184D02*
X041987Y013231D01*
X042061Y013288D01*
X042127Y013353D01*
X042184Y013427D01*
X042230Y013508D01*
X042266Y013594D01*
X042290Y013685D01*
X042300Y013756D01*
X041659Y013756D01*
X041659Y013891D01*
X041523Y013891D01*
X041523Y013756D01*
X040882Y013756D01*
X040892Y013685D01*
X040916Y013594D01*
X040951Y013508D01*
X040998Y013427D01*
X041055Y013353D01*
X041121Y013288D01*
X041195Y013231D01*
X041276Y013184D01*
X041362Y013148D01*
X041452Y013124D01*
X041523Y013115D01*
X041523Y013756D01*
X041659Y013756D01*
X041659Y013115D01*
X041730Y013124D01*
X041820Y013148D01*
X041906Y013184D01*
X042104Y013330D02*
X043078Y013330D01*
X042963Y013489D02*
X042219Y013489D01*
X042280Y013647D02*
X042902Y013647D01*
X042892Y013964D02*
X042290Y013964D01*
X041659Y013964D02*
X041523Y013964D01*
X041523Y013891D02*
X041523Y014532D01*
X041452Y014523D01*
X041362Y014499D01*
X041276Y014463D01*
X041195Y014416D01*
X041121Y014360D01*
X041055Y014294D01*
X040998Y014220D01*
X040951Y014139D01*
X040916Y014053D01*
X040892Y013963D01*
X040882Y013891D01*
X041523Y013891D01*
X041523Y013806D02*
X039048Y013806D01*
X039048Y013964D02*
X040892Y013964D01*
X040945Y014123D02*
X039048Y014123D01*
X039048Y014281D02*
X041045Y014281D01*
X041235Y014440D02*
X039048Y014440D01*
X039048Y014598D02*
X041763Y014598D01*
X041739Y014757D02*
X039048Y014757D01*
X039048Y014915D02*
X041739Y014915D01*
X041773Y015074D02*
X039048Y015074D01*
X039048Y015232D02*
X041193Y015232D01*
X041026Y015391D02*
X039048Y015391D01*
X039048Y015549D02*
X040934Y015549D01*
X041523Y015549D02*
X041659Y015549D01*
X041659Y015391D02*
X041523Y015391D01*
X041523Y015232D02*
X041659Y015232D01*
X041659Y015708D02*
X041523Y015708D01*
X041523Y016025D02*
X041659Y016025D01*
X041659Y016183D02*
X041523Y016183D01*
X041523Y016342D02*
X041659Y016342D01*
X042079Y016342D02*
X043103Y016342D01*
X042977Y016183D02*
X042205Y016183D01*
X042274Y016025D02*
X042908Y016025D01*
X042889Y015708D02*
X042293Y015708D01*
X041659Y014440D02*
X041523Y014440D01*
X041523Y014281D02*
X041659Y014281D01*
X041659Y014123D02*
X041523Y014123D01*
X041659Y013806D02*
X043523Y013806D01*
X043523Y013964D02*
X043659Y013964D01*
X043659Y014123D02*
X043523Y014123D01*
X043523Y014281D02*
X043659Y014281D01*
X043659Y014440D02*
X043523Y014440D01*
X043523Y015232D02*
X043659Y015232D01*
X043659Y015391D02*
X043523Y015391D01*
X043523Y015549D02*
X043659Y015549D01*
X043659Y015708D02*
X043523Y015708D01*
X043523Y016025D02*
X043659Y016025D01*
X043659Y016183D02*
X043523Y016183D01*
X043523Y016342D02*
X043659Y016342D01*
X044079Y016342D02*
X044473Y016342D01*
X044473Y016183D02*
X044205Y016183D01*
X044274Y016025D02*
X044473Y016025D01*
X042956Y017293D02*
X041439Y017293D01*
X041401Y017271D02*
X041493Y017324D01*
X041577Y017389D01*
X041652Y017464D01*
X041717Y017548D01*
X041770Y017640D01*
X041810Y017738D01*
X041838Y017840D01*
X041848Y017919D01*
X041122Y017919D01*
X041122Y018079D01*
X041848Y018079D01*
X041838Y018157D01*
X041810Y018260D01*
X041770Y018358D01*
X041717Y018450D01*
X041652Y018534D01*
X041577Y018609D01*
X041493Y018674D01*
X041401Y018727D01*
X041303Y018767D01*
X041200Y018795D01*
X041122Y018805D01*
X041122Y018079D01*
X040962Y018079D01*
X040962Y018805D01*
X040883Y018795D01*
X040781Y018767D01*
X040683Y018727D01*
X040591Y018674D01*
X040507Y018609D01*
X040431Y018534D01*
X040367Y018450D01*
X040314Y018358D01*
X040273Y018260D01*
X040246Y018157D01*
X040235Y018079D01*
X040962Y018079D01*
X040962Y017919D01*
X041122Y017919D01*
X041122Y017192D01*
X041200Y017203D01*
X041303Y017230D01*
X041401Y017271D01*
X041122Y017293D02*
X040962Y017293D01*
X040962Y017192D02*
X040962Y017919D01*
X040235Y017919D01*
X040246Y017840D01*
X040273Y017738D01*
X040314Y017640D01*
X040367Y017548D01*
X040431Y017464D01*
X040507Y017389D01*
X040591Y017324D01*
X040683Y017271D01*
X040781Y017230D01*
X040883Y017203D01*
X040962Y017192D01*
X040962Y017451D02*
X041122Y017451D01*
X041122Y017610D02*
X040962Y017610D01*
X040962Y017768D02*
X041122Y017768D01*
X041122Y017927D02*
X043273Y017927D01*
X043273Y018085D02*
X043433Y018085D01*
X043433Y018244D02*
X043273Y018244D01*
X043273Y018402D02*
X043433Y018402D01*
X043433Y018561D02*
X043273Y018561D01*
X043273Y018719D02*
X043433Y018719D01*
X042981Y018719D02*
X041413Y018719D01*
X041625Y018561D02*
X042769Y018561D01*
X042651Y018402D02*
X041744Y018402D01*
X041815Y018244D02*
X042580Y018244D01*
X042547Y018085D02*
X041847Y018085D01*
X041818Y017768D02*
X042576Y017768D01*
X042642Y017610D02*
X041752Y017610D01*
X041640Y017451D02*
X042755Y017451D01*
X041122Y018085D02*
X040962Y018085D01*
X040962Y017927D02*
X039048Y017927D01*
X039048Y018085D02*
X040236Y018085D01*
X040269Y018244D02*
X039048Y018244D01*
X039048Y018402D02*
X040340Y018402D01*
X040458Y018561D02*
X039048Y018561D01*
X039048Y018719D02*
X040670Y018719D01*
X040962Y018719D02*
X041122Y018719D01*
X041122Y018561D02*
X040962Y018561D01*
X040962Y018402D02*
X041122Y018402D01*
X041122Y018244D02*
X040962Y018244D01*
X040331Y017610D02*
X039048Y017610D01*
X039048Y017768D02*
X040265Y017768D01*
X040444Y017451D02*
X039048Y017451D01*
X039048Y017293D02*
X040645Y017293D01*
X040962Y019670D02*
X041122Y019670D01*
X041122Y019829D02*
X040962Y019829D01*
X040962Y019987D02*
X041122Y019987D01*
X041122Y020463D02*
X040962Y020463D01*
X040962Y020621D02*
X041122Y020621D01*
X041122Y020780D02*
X040962Y020780D01*
X040962Y020938D02*
X041122Y020938D01*
X041553Y020938D02*
X042842Y020938D01*
X042693Y020780D02*
X041702Y020780D01*
X041789Y020621D02*
X042605Y020621D01*
X042556Y020463D02*
X041838Y020463D01*
X041836Y020146D02*
X042558Y020146D01*
X042610Y019987D02*
X041785Y019987D01*
X041694Y019829D02*
X042701Y019829D01*
X042856Y019670D02*
X041539Y019670D01*
X040382Y020780D02*
X039048Y020780D01*
X039048Y020938D02*
X040530Y020938D01*
X040294Y020621D02*
X039048Y020621D01*
X039048Y020463D02*
X040245Y020463D01*
X043273Y020463D02*
X043433Y020463D01*
X043433Y020621D02*
X043273Y020621D01*
X043273Y020780D02*
X043433Y020780D01*
X043433Y020938D02*
X043273Y020938D01*
X043273Y019987D02*
X043433Y019987D01*
X043433Y019829D02*
X043273Y019829D01*
X043273Y019670D02*
X043433Y019670D01*
X041659Y013647D02*
X041523Y013647D01*
X041523Y013489D02*
X041659Y013489D01*
X041659Y013330D02*
X041523Y013330D01*
X041523Y013172D02*
X041659Y013172D01*
X041305Y013172D02*
X039048Y013172D01*
X039048Y013330D02*
X041078Y013330D01*
X040963Y013489D02*
X039048Y013489D01*
X039048Y013647D02*
X040902Y013647D01*
X039441Y009706D02*
X044166Y009706D01*
X044166Y005769D01*
X039441Y005769D01*
X039441Y009706D01*
X039441Y009685D02*
X044166Y009685D01*
X044166Y009526D02*
X039441Y009526D01*
X039441Y009368D02*
X044166Y009368D01*
X044166Y009209D02*
X039441Y009209D01*
X039441Y009051D02*
X044166Y009051D01*
X044166Y008892D02*
X039441Y008892D01*
X039441Y008734D02*
X044166Y008734D01*
X044166Y008575D02*
X039441Y008575D01*
X039441Y008417D02*
X044166Y008417D01*
X044166Y008258D02*
X039441Y008258D01*
X039441Y008100D02*
X044166Y008100D01*
X044166Y007941D02*
X039441Y007941D01*
X039441Y007783D02*
X044166Y007783D01*
X044166Y007624D02*
X039441Y007624D01*
X039441Y007466D02*
X044166Y007466D01*
X044166Y007307D02*
X039441Y007307D01*
X039441Y007149D02*
X044166Y007149D01*
X044166Y006990D02*
X039441Y006990D01*
X039441Y006832D02*
X044166Y006832D01*
X044166Y006673D02*
X039441Y006673D01*
X039441Y006515D02*
X044166Y006515D01*
X044166Y006356D02*
X039441Y006356D01*
X039441Y006198D02*
X044166Y006198D01*
X044166Y006039D02*
X039441Y006039D01*
X039441Y005881D02*
X044166Y005881D01*
X044166Y035296D02*
X039441Y035296D01*
X039441Y039233D01*
X044166Y039233D01*
X044166Y035296D01*
X044166Y035362D02*
X039441Y035362D01*
X039441Y035520D02*
X044166Y035520D01*
X044166Y035679D02*
X039441Y035679D01*
X039441Y035837D02*
X044166Y035837D01*
X044166Y035996D02*
X039441Y035996D01*
X039441Y036154D02*
X044166Y036154D01*
X044166Y036313D02*
X039441Y036313D01*
X039441Y036471D02*
X044166Y036471D01*
X044166Y036630D02*
X039441Y036630D01*
X039441Y036788D02*
X044166Y036788D01*
X044166Y036947D02*
X039441Y036947D01*
X039441Y037105D02*
X044166Y037105D01*
X044166Y037264D02*
X039441Y037264D01*
X039441Y037422D02*
X044166Y037422D01*
X044166Y037581D02*
X039441Y037581D01*
X039441Y037739D02*
X044166Y037739D01*
X044166Y037898D02*
X039441Y037898D01*
X039441Y038056D02*
X044166Y038056D01*
X044166Y038215D02*
X039441Y038215D01*
X039441Y038373D02*
X044166Y038373D01*
X044166Y038532D02*
X039441Y038532D01*
X039441Y038690D02*
X044166Y038690D01*
X044166Y038849D02*
X039441Y038849D01*
X039441Y039007D02*
X044166Y039007D01*
X044166Y039166D02*
X039441Y039166D01*
D18*
X039441Y031753D03*
X039441Y030572D03*
X041016Y031753D03*
X042591Y031753D03*
X044166Y031753D03*
X042591Y027816D03*
X044166Y026635D03*
X040622Y027816D03*
X039441Y027816D03*
X039441Y025847D03*
X039441Y024272D03*
X039441Y022698D03*
X039441Y021123D03*
X039441Y019548D03*
X039441Y017973D03*
X039441Y016398D03*
X041016Y016792D03*
X042591Y016792D03*
X039441Y014036D03*
X039441Y012855D03*
X040622Y012855D03*
X042591Y012855D03*
X044166Y012855D03*
X044166Y022304D03*
X042591Y022304D03*
X041016Y022304D03*
D19*
X004796Y025847D03*
X004796Y017973D03*
D20*
X009933Y007056D02*
X009933Y003406D01*
X009933Y007056D02*
X010835Y007056D01*
X012607Y007056D02*
X013831Y007056D01*
X013831Y003406D01*
X015839Y003406D02*
X015839Y006938D01*
X016918Y006938D01*
X018689Y006938D02*
X019737Y006938D01*
X019737Y003406D01*
X021744Y003406D02*
X021744Y007013D01*
X022713Y007013D01*
X024485Y007013D02*
X025642Y007013D01*
X025642Y003406D01*
X027650Y003406D02*
X027650Y007056D01*
X028473Y007056D01*
X030244Y007056D02*
X031548Y007056D01*
X031548Y003406D01*
X033556Y003406D02*
X033556Y006950D01*
X034619Y006950D01*
X036390Y006950D02*
X037453Y006950D01*
X037453Y003406D01*
X037453Y037265D02*
X036390Y037265D01*
X037453Y037265D02*
X037453Y040808D01*
X037867Y040808D01*
X034619Y037265D02*
X033536Y037265D01*
X033536Y040808D01*
X033556Y040808D01*
X033536Y040808D02*
X031548Y040808D01*
X031548Y037265D01*
X030485Y037265D01*
X028713Y037265D02*
X027650Y037265D01*
X027650Y040808D01*
X025642Y040808D01*
X025642Y037265D01*
X024579Y037265D01*
X022807Y037265D02*
X021725Y037265D01*
X021725Y040808D01*
X021744Y040808D01*
X021725Y040808D02*
X019737Y040808D01*
X019737Y037265D01*
X018674Y037265D01*
X016902Y037265D02*
X015819Y037265D01*
X015819Y040808D01*
X015839Y040808D01*
X013831Y040808D01*
X013831Y037265D01*
X012768Y037265D01*
X010996Y037265D02*
X009933Y037265D01*
X009933Y040808D01*
X009520Y040808D01*
D21*
X013831Y003406D02*
X015839Y003406D01*
X019737Y003406D02*
X021744Y003406D01*
X025642Y003406D02*
X027650Y003406D01*
X031548Y003406D02*
X033556Y003406D01*
X037453Y003406D02*
X037867Y003406D01*
D22*
X038260Y003406D01*
X040648Y006581D01*
X040648Y038420D02*
X038260Y040808D01*
X037867Y040808D01*
X009520Y040808D02*
X007945Y040808D01*
X005557Y038420D01*
X005557Y005400D02*
X007552Y003406D01*
X009933Y003406D01*
M02*
